<svg xmlns="http://www.w3.org/2000/svg" width="52" height="52" viewBox="0 0 52 52">
    <defs>
        <style>
            .cls-1{fill:#fff;stroke:#d6d6d6}.cls-2{fill:#848bbb}.cls-3{stroke:none}.cls-4{fill:none}
        </style>
    </defs>
    <g id="Group_212" data-name="Group 212" transform="translate(-56 -570)">
        <g id="Ellipse_1331" class="cls-1" data-name="Ellipse 1331" transform="translate(56 570)">
            <circle cx="26" cy="26" r="26" class="cls-3"/>
            <circle cx="26" cy="26" r="25.5" class="cls-4"/>
        </g>
        <g id="cityscape" transform="translate(69 577.565)">
            <g id="Group_211" data-name="Group 211">
                <g id="Group_210" data-name="Group 210">
                    <path id="Path_4188" d="M308.3 324.815a.548.548 0 1 0-1.1 0v1.1a.548.548 0 1 0 1.1 0z" class="cls-2" data-name="Path 4188" transform="translate(-288.24 -304.276)"/>
                    <path id="Path_4189" d="M307.748 426.667a.548.548 0 0 0-.548.548v2.191a.548.548 0 0 0 1.1 0v-2.191a.548.548 0 0 0-.552-.548z" class="cls-2" data-name="Path 4189" transform="translate(-288.24 -400.493)"/>
                    <path id="Path_4190" d="M342.43 222.415a.548.548 0 1 0-1.1 0v1.1a.548.548 0 1 0 1.1 0z" class="cls-2" data-name="Path 4190" transform="translate(-320.421 -208.189)"/>
                    <path id="Path_4191" d="M308.3 273.615a.548.548 0 0 0-1.1 0v1.1a.548.548 0 0 0 1.1 0z" class="cls-2" data-name="Path 4191" transform="translate(-288.24 -256.232)"/>
                    <path id="Path_4192" d="M308.3 376.015a.548.548 0 0 0-1.1 0v1.1a.548.548 0 1 0 1.1 0v-1.1z" class="cls-2" data-name="Path 4192" transform="translate(-288.24 -352.319)"/>
                    <path id="Path_4193" d="M342.43 273.615a.548.548 0 0 0-1.1 0v1.1a.548.548 0 0 0 1.1 0z" class="cls-2" data-name="Path 4193" transform="translate(-320.421 -256.232)"/>
                    <path id="Path_4194" d="M274.163 222.415a.548.548 0 1 0-1.1 0v1.1a.548.548 0 1 0 1.1 0z" class="cls-2" data-name="Path 4194" transform="translate(-256.213 -208.189)"/>
                    <path id="Path_4195" d="M308.3 222.415a.548.548 0 1 0-1.1 0v1.1a.548.548 0 1 0 1.1 0z" class="cls-2" data-name="Path 4195" transform="translate(-288.24 -208.189)"/>
                    <path id="Path_4197" d="M274.163 273.615a.548.548 0 0 0-1.1 0v1.1a.548.548 0 0 0 1.1 0z" class="cls-2" data-name="Path 4197" transform="translate(-256.213 -256.232)"/>
                    <path id="Path_4199" d="M273.615 324.267a.548.548 0 0 0-.548.548v1.1a.548.548 0 1 0 1.1 0v-1.1a.548.548 0 0 0-.552-.548z" class="cls-2" data-name="Path 4199" transform="translate(-256.213 -304.276)"/>
                    <path id="Path_4206" d="M342.43 376.015a.548.548 0 1 0-1.1 0v1.1a.548.548 0 1 0 1.1 0z" class="cls-2" data-name="Path 4206" transform="translate(-320.421 -352.319)"/>
                    <path id="Path_4208" d="M341.882 426.667a.548.548 0 0 0-.548.548v2.191a.548.548 0 0 0 1.1 0v-2.191a.548.548 0 0 0-.552-.548z" class="cls-2" data-name="Path 4208" transform="translate(-320.421 -400.493)"/>
                    <path id="Path_4209" d="M342.43 324.815a.548.548 0 1 0-1.1 0v1.1a.548.548 0 1 0 1.1 0z" class="cls-2" data-name="Path 4209" transform="translate(-320.421 -304.276)"/>
                    <path id="Path_4210" d="M248.246 174.418a.548.548 0 0 0 .548-.548v-17.53a.548.548 0 0 0-.415-.531l-8.765-2.191a.548.548 0 0 0-.681.531V166.2a.548.548 0 1 0 1.1 0v-11.35l7.67 1.917v17.1a.548.548 0 0 0 .543.551z" class="cls-2" data-name="Path 4210" transform="translate(-224.594 -144.957)"/>
                    <path id="Path_4211" d="M171.763 171.215a.548.548 0 0 0-1.1 0v1.1a.548.548 0 1 0 1.1 0z" class="cls-2" data-name="Path 4211" transform="translate(-160.133 -160.145)"/>
                    <path id="Path_4212" d="M171.763 120.015a.548.548 0 1 0-1.1 0v1.1a.548.548 0 1 0 1.1 0z" class="cls-2" data-name="Path 4212" transform="translate(-160.133 -112.102)"/>
                    <path id="Path_4213" d="M103.5 376.015a.548.548 0 0 0-1.1 0v1.1a.548.548 0 1 0 1.1 0v-1.1z" class="cls-2" data-name="Path 4213" transform="translate(-96.08 -352.319)"/>
                    <path id="Path_4214" d="M34.681 243.317a.548.548 0 0 0 .548-.548v-2.739h5.478v13.7a.548.548 0 1 0 1.1 0v-14.248a.548.548 0 0 0-.548-.548h-6.578a.548.548 0 0 0-.548.548v3.287a.548.548 0 0 0 .548.548z" class="cls-2" data-name="Path 4214" transform="translate(-31.942 -224.812)"/>
                    <path id="Path_4215" d="M136.533 171.215v1.1a.548.548 0 1 0 1.1 0v-1.1a.548.548 0 0 0-1.1 0z" class="cls-2" data-name="Path 4215" transform="translate(-128.106 -160.145)"/>
                    <path id="Path_4216" d="M171.763 68.815a.548.548 0 0 0-1.1 0v1.1a.548.548 0 0 0 1.1 0z" class="cls-2" data-name="Path 4216" transform="translate(-160.133 -63.884)"/>
                    <path id="Path_4217" d="M102.948 426.667a.548.548 0 0 0-.548.548v2.191a.548.548 0 0 0 1.1 0v-2.191a.548.548 0 0 0-.552-.548z" class="cls-2" data-name="Path 4217" transform="translate(-96.08 -400.493)"/>
                    <path id="Path_4218" d="M25.473 335.223h-9.647v-2.247a2.72 2.72 0 0 0 2.11-2.684 2.64 2.64 0 1 0-5.275 0 2.72 2.72 0 0 0 2.11 2.684v2.247H3.165v-5.534a2.72 2.72 0 0 0 2.11-2.684 2.693 2.693 0 0 0-2.638-2.739A2.693 2.693 0 0 0 0 327.005a2.72 2.72 0 0 0 2.11 2.684v5.534H.528a.548.548 0 0 0 0 1.1h24.944a.548.548 0 0 0 0-1.1zm-24.418-8.218a1.616 1.616 0 0 1 1.583-1.643 1.645 1.645 0 0 1 0 3.287 1.616 1.616 0 0 1-1.583-1.644zm12.661 3.287a1.584 1.584 0 1 1 1.583 1.643 1.616 1.616 0 0 1-1.583-1.643z" class="cls-2" data-name="Path 4218" transform="translate(0 -304.666)"/>
                    <path id="Path_4219" d="M68.267 427.215v2.191a.548.548 0 0 0 1.1 0v-2.191a.548.548 0 0 0-1.1 0z" class="cls-2" data-name="Path 4219" transform="translate(-64.054 -400.493)"/>
                    <path id="Path_4220" d="M103.5 273.615a.548.548 0 0 0-1.1 0v1.1a.548.548 0 0 0 1.1 0z" class="cls-2" data-name="Path 4220" transform="translate(-96.081 -256.232)"/>
                    <path id="Path_4221" d="M103.5 324.815a.548.548 0 1 0-1.1 0v1.1a.548.548 0 1 0 1.1 0z" class="cls-2" data-name="Path 4221" transform="translate(-96.081 -304.276)"/>
                    <path id="Path_4222" d="M68.267 273.615v1.1a.548.548 0 0 0 1.1 0v-1.1a.548.548 0 0 0-1.1 0z" class="cls-2" data-name="Path 4222" transform="translate(-64.054 -256.232)"/>
                    <path id="Path_4223" d="M171.763 324.815a.548.548 0 1 0-1.1 0v1.1a.548.548 0 1 0 1.1 0z" class="cls-2" data-name="Path 4223" transform="translate(-160.133 -304.276)"/>
                    <path id="Path_4224" d="M205.9 222.415a.548.548 0 1 0-1.1 0v1.1a.548.548 0 1 0 1.1 0z" class="cls-2" data-name="Path 4224" transform="translate(-192.161 -208.189)"/>
                    <path id="Path_4225" d="M205.9 171.215a.548.548 0 0 0-1.1 0v1.1a.548.548 0 1 0 1.1 0z" class="cls-2" data-name="Path 4225" transform="translate(-192.161 -160.145)"/>
                    <path id="Path_4226" d="M205.9 273.615a.548.548 0 0 0-1.1 0v1.1a.548.548 0 0 0 1.1 0z" class="cls-2" data-name="Path 4226" transform="translate(-192.161 -256.232)"/>
                    <path id="Path_4227" d="M205.348 324.267a.548.548 0 0 0-.548.548v1.1a.548.548 0 1 0 1.1 0v-1.1a.548.548 0 0 0-.552-.548z" class="cls-2" data-name="Path 4227" transform="translate(-192.16 -304.276)"/>
                    <path id="Path_4228" d="M205.9 120.015a.548.548 0 1 0-1.1 0v1.1a.548.548 0 1 0 1.1 0z" class="cls-2" data-name="Path 4228" transform="translate(-192.161 -112.102)"/>
                    <path id="Path_4229" d="M171.763 376.015a.548.548 0 1 0-1.1 0v1.1a.548.548 0 1 0 1.1 0z" class="cls-2" data-name="Path 4229" transform="translate(-160.133 -352.319)"/>
                    <path id="Path_4230" d="M102.949 14.244a.548.548 0 0 0 .548-.548V9.652l1.888-.944a.548.548 0 0 0 .3-.49V3.626l2.739-1.37 2.739 1.37v4.591a.548.548 0 0 0 1.1 0v-4.93a.548.548 0 0 0-.3-.49L108.975 1.3V.548a.548.548 0 1 0-1.1 0V1.3L104.9 2.8a.548.548 0 0 0-.3.49v4.589l-1.888.944a.548.548 0 0 0-.3.49V13.7a.548.548 0 0 0 .537.544z" class="cls-2" data-name="Path 4230" transform="translate(-96.211)"/>
                    <path id="Path_4231" d="M171.763 273.615a.548.548 0 0 0-1.1 0v1.1a.548.548 0 0 0 1.1 0z" class="cls-2" data-name="Path 4231" transform="translate(-160.133 -256.232)"/>
                    <path id="Path_4232" d="M171.215 426.667a.548.548 0 0 0-.548.548v2.191a.548.548 0 0 0 1.1 0v-2.191a.548.548 0 0 0-.552-.548z" class="cls-2" data-name="Path 4232" transform="translate(-160.133 -400.493)"/>
                    <path id="Path_4233" d="M205.9 68.815a.548.548 0 0 0-1.1 0v1.1a.548.548 0 0 0 1.1 0z" class="cls-2" data-name="Path 4233" transform="translate(-192.161 -63.884)"/>
                    <path id="Path_4234" d="M171.763 222.415a.548.548 0 1 0-1.1 0v1.1a.548.548 0 1 0 1.1 0z" class="cls-2" data-name="Path 4234" transform="translate(-160.133 -208.189)"/>
                </g>
            </g>
        </g>
    </g>
</svg>
