<svg xmlns="http://www.w3.org/2000/svg" width="9.561" height="17.685" viewBox="0 0 9.561 17.685">
    <defs>
        <style>
            .cls-1{fill:#3a5ba0}
        </style>
    </defs>
    <g id="facebook">
        <path id="Path_58" d="M31.278 0h-2.293a4.027 4.027 0 0 0-4.242 4.352v2.007h-2.305a.361.361 0 0 0-.361.361v2.907a.361.361 0 0 0 .361.361h2.306v7.336a.36.36 0 0 0 .361.361h3.008a.361.361 0 0 0 .361-.361V9.988h2.7a.36.36 0 0 0 .361-.361V6.72a.361.361 0 0 0-.361-.361h-2.7v-1.7c0-.818.195-1.233 1.26-1.233h1.545a.361.361 0 0 0 .36-.361V.364A.361.361 0 0 0 31.278 0z" class="cls-1" data-name="Path 58" transform="translate(-22.077)"/>
    </g>
</svg>
