<svg xmlns="http://www.w3.org/2000/svg" xmlns:xlink="http://www.w3.org/1999/xlink" width="224.103" height="258.393" viewBox="0 0 224.103 258.393">
  <defs>
    <filter id="Path_27617" x="0" y="19.036" width="224.103" height="58.617" filterUnits="userSpaceOnUse">
      <feOffset dy="5" input="SourceAlpha"/>
      <feGaussianBlur stdDeviation="3" result="blur"/>
      <feFlood flood-opacity="0.161"/>
      <feComposite operator="in" in2="blur"/>
      <feComposite in="SourceGraphic"/>
    </filter>
  </defs>
  <g id="Group_19178" data-name="Group 19178" transform="translate(-51 -151.75)">
    <g id="Layer_14" data-name="Layer 14" transform="translate(60 152)">
      <path id="Path_27541" data-name="Path 27541" d="M95.15,59.34h1.737v.584H95.15Z" transform="translate(-62.165 -17.806)" fill="#9e9d9e"/>
      <g id="Group_18518" data-name="Group 18518" transform="translate(0 0)">
        <rect id="Rectangle_12451" data-name="Rectangle 12451" width="183.311" height="256.577" transform="translate(11.322)" fill="#e0e0e0" stroke="#787878" stroke-width="0.5"/>
        <rect id="Rectangle_12452" data-name="Rectangle 12452" width="183.311" height="14.962" transform="translate(11.322)" fill="#085b93"/>
        <rect id="Rectangle_12453" data-name="Rectangle 12453" width="172.508" height="32.267" transform="translate(16.137 71.755)" fill="#fff"/>
        <rect id="Rectangle_12454" data-name="Rectangle 12454" width="172.508" height="32.267" transform="translate(16.137 109.732)" fill="#fff"/>
        <rect id="Rectangle_12455" data-name="Rectangle 12455" width="172.508" height="32.267" transform="translate(16.137 147.701)" fill="#fff"/>
        <rect id="Rectangle_12456" data-name="Rectangle 12456" width="172.508" height="32.267" transform="translate(16.137 185.603)" fill="#fff"/>
        <g transform="matrix(1, 0, 0, 1, -9, -0.25)" filter="url(#Path_27617)">
          <path id="Path_27617-2" data-name="Path 27617" d="M0,0H206.1V40.617H0Z" transform="translate(9 23.04)" fill="#fff"/>
        </g>
        <g id="Group_18502" data-name="Group 18502" transform="translate(16.252 30.695)">
          <g id="Group_18501" data-name="Group 18501" transform="translate(0 0)">
            <rect id="Rectangle_12458" data-name="Rectangle 12458" width="79.172" height="1.65" transform="translate(39.884 8.428)" fill="#d3d6db"/>
            <rect id="Rectangle_12459" data-name="Rectangle 12459" width="31.046" height="1.727" transform="translate(39.884 12.172)" fill="#d3d6db"/>
            <rect id="Rectangle_12460" data-name="Rectangle 12460" width="23.173" height="1.727" transform="translate(39.884 15.728)" fill="#d3d6db"/>
            <path id="Path_27618" data-name="Path 27618" d="M5.68,0H26.512a5.68,5.68,0,0,1,5.68,5.68v8.249a5.68,5.68,0,0,1-5.68,5.68H5.68A5.68,5.68,0,0,1,0,13.929V5.68A5.68,5.68,0,0,1,5.68,0Z" transform="translate(0 0)" fill="#dedede"/>
            <path id="Path_27542" data-name="Path 27542" d="M98.821,59.4H96.983v.325a.325.325,0,0,1-.325.325H94.034a.325.325,0,0,1-.325-.325V59.4H91.871a.974.974,0,0,1-.932-.675l-1.18-3.53v7.155a.974.974,0,0,0,.983.974h9.206a.974.974,0,0,0,.983-.974V55.19l-1.18,3.53a.974.974,0,0,1-.932.675Z" transform="translate(-79.246 -48.608)" fill="#9e9d9e"/>
          </g>
          <path id="Path_27543" data-name="Path 27543" d="M96.754,53.22H94.13a.983.983,0,0,0-.983.974v.333H90.42l1.231,3.7a.325.325,0,0,0,.316.222H93.8v-.291a.325.325,0,0,1,.325-.325h2.624a.325.325,0,0,1,.325.325v.325h1.838a.325.325,0,0,0,.316-.222l1.231-3.7h-2.71v-.333a.983.983,0,0,0-1-1.009ZM93.8,54.528v-.333a.325.325,0,0,1,.325-.325h2.624a.325.325,0,0,1,.325.325v.333Z" transform="translate(-79.342 -48.322)" fill="#9e9d9e"/>
        </g>
      </g>
    </g>
    <g id="Group_19171" data-name="Group 19171" transform="translate(93.261 229.719)">
      <g id="Group_18501-2" data-name="Group 18501" transform="translate(0 0)">
        <rect id="Rectangle_12458-2" data-name="Rectangle 12458" width="79.172" height="1.65" transform="translate(39.884 8.428)" fill="#d3d6db"/>
        <rect id="Rectangle_12459-2" data-name="Rectangle 12459" width="31.046" height="1.727" transform="translate(39.884 12.172)" fill="#d3d6db"/>
        <rect id="Rectangle_12460-2" data-name="Rectangle 12460" width="23.173" height="1.727" transform="translate(39.884 15.728)" fill="#d3d6db"/>
        <path id="Path_27618-2" data-name="Path 27618" d="M5.68,0H26.512a5.68,5.68,0,0,1,5.68,5.68v8.249a5.68,5.68,0,0,1-5.68,5.68H5.68A5.68,5.68,0,0,1,0,13.929V5.68A5.68,5.68,0,0,1,5.68,0Z" transform="translate(0 0)" fill="#dedede"/>
        <path id="Path_27542-2" data-name="Path 27542" d="M98.821,59.4H96.983v.325a.325.325,0,0,1-.325.325H94.034a.325.325,0,0,1-.325-.325V59.4H91.871a.974.974,0,0,1-.932-.675l-1.18-3.53v7.155a.974.974,0,0,0,.983.974h9.206a.974.974,0,0,0,.983-.974V55.19l-1.18,3.53a.974.974,0,0,1-.932.675Z" transform="translate(-79.246 -48.608)" fill="#9e9d9e"/>
      </g>
      <path id="Path_27543-2" data-name="Path 27543" d="M96.754,53.22H94.13a.983.983,0,0,0-.983.974v.333H90.42l1.231,3.7a.325.325,0,0,0,.316.222H93.8v-.291a.325.325,0,0,1,.325-.325h2.624a.325.325,0,0,1,.325.325v.325h1.838a.325.325,0,0,0,.316-.222l1.231-3.7h-2.71v-.333a.983.983,0,0,0-1-1.009ZM93.8,54.528v-.333a.325.325,0,0,1,.325-.325h2.624a.325.325,0,0,1,.325.325v.333Z" transform="translate(-79.342 -48.322)" fill="#9e9d9e"/>
    </g>
    <g id="Group_19176" data-name="Group 19176" transform="translate(93.261 269.739)">
      <g id="Group_18501-3" data-name="Group 18501" transform="translate(0 0)">
        <rect id="Rectangle_12458-3" data-name="Rectangle 12458" width="79.172" height="1.65" transform="translate(39.884 8.428)" fill="#d3d6db"/>
        <rect id="Rectangle_12459-3" data-name="Rectangle 12459" width="31.046" height="1.727" transform="translate(39.884 12.172)" fill="#d3d6db"/>
        <rect id="Rectangle_12460-3" data-name="Rectangle 12460" width="23.173" height="1.727" transform="translate(39.884 15.728)" fill="#d3d6db"/>
        <path id="Path_27618-3" data-name="Path 27618" d="M5.68,0H26.512a5.68,5.68,0,0,1,5.68,5.68v8.249a5.68,5.68,0,0,1-5.68,5.68H5.68A5.68,5.68,0,0,1,0,13.929V5.68A5.68,5.68,0,0,1,5.68,0Z" transform="translate(0 0)" fill="#dedede"/>
        <path id="Path_27542-3" data-name="Path 27542" d="M98.821,59.4H96.983v.325a.325.325,0,0,1-.325.325H94.034a.325.325,0,0,1-.325-.325V59.4H91.871a.974.974,0,0,1-.932-.675l-1.18-3.53v7.155a.974.974,0,0,0,.983.974h9.206a.974.974,0,0,0,.983-.974V55.19l-1.18,3.53a.974.974,0,0,1-.932.675Z" transform="translate(-79.246 -48.608)" fill="#9e9d9e"/>
      </g>
      <path id="Path_27543-3" data-name="Path 27543" d="M96.754,53.22H94.13a.983.983,0,0,0-.983.974v.333H90.42l1.231,3.7a.325.325,0,0,0,.316.222H93.8v-.291a.325.325,0,0,1,.325-.325h2.624a.325.325,0,0,1,.325.325v.325h1.838a.325.325,0,0,0,.316-.222l1.231-3.7h-2.71v-.333a.983.983,0,0,0-1-1.009ZM93.8,54.528v-.333a.325.325,0,0,1,.325-.325h2.624a.325.325,0,0,1,.325.325v.333Z" transform="translate(-79.342 -48.322)" fill="#9e9d9e"/>
    </g>
    <g id="Group_19177" data-name="Group 19177" transform="translate(93.261 305.757)">
      <g id="Group_18501-4" data-name="Group 18501" transform="translate(0 0)">
        <rect id="Rectangle_12458-4" data-name="Rectangle 12458" width="79.172" height="1.65" transform="translate(39.884 8.428)" fill="#d3d6db"/>
        <rect id="Rectangle_12459-4" data-name="Rectangle 12459" width="31.046" height="1.727" transform="translate(39.884 12.172)" fill="#d3d6db"/>
        <rect id="Rectangle_12460-4" data-name="Rectangle 12460" width="23.173" height="1.727" transform="translate(39.884 15.728)" fill="#d3d6db"/>
        <path id="Path_27618-4" data-name="Path 27618" d="M5.68,0H26.512a5.68,5.68,0,0,1,5.68,5.68v8.249a5.68,5.68,0,0,1-5.68,5.68H5.68A5.68,5.68,0,0,1,0,13.929V5.68A5.68,5.68,0,0,1,5.68,0Z" transform="translate(0 0)" fill="#dedede"/>
        <path id="Path_27542-4" data-name="Path 27542" d="M98.821,59.4H96.983v.325a.325.325,0,0,1-.325.325H94.034a.325.325,0,0,1-.325-.325V59.4H91.871a.974.974,0,0,1-.932-.675l-1.18-3.53v7.155a.974.974,0,0,0,.983.974h9.206a.974.974,0,0,0,.983-.974V55.19l-1.18,3.53a.974.974,0,0,1-.932.675Z" transform="translate(-79.246 -48.608)" fill="#9e9d9e"/>
      </g>
      <path id="Path_27543-4" data-name="Path 27543" d="M96.754,53.22H94.13a.983.983,0,0,0-.983.974v.333H90.42l1.231,3.7a.325.325,0,0,0,.316.222H93.8v-.291a.325.325,0,0,1,.325-.325h2.624a.325.325,0,0,1,.325.325v.325h1.838a.325.325,0,0,0,.316-.222l1.231-3.7h-2.71v-.333a.983.983,0,0,0-1-1.009ZM93.8,54.528v-.333a.325.325,0,0,1,.325-.325h2.624a.325.325,0,0,1,.325.325v.333Z" transform="translate(-79.342 -48.322)" fill="#9e9d9e"/>
    </g>
    <g id="Group_19175" data-name="Group 19175" transform="translate(113.667 306.234)">
      <g id="Group_19174" data-name="Group 19174">
        <path id="Path_29844" data-name="Path 29844" d="M-48.642,644.322l0-.005q.085-.119.172-.251l0,0q.087-.133.175-.278a11.091,11.091,0,0,0,.691-1.355,13.81,13.81,0,0,0-1.057-12.757c-4.077-6.72-12.6-10.181-13.833-13.972a82.655,82.655,0,0,1-2.206-9.791.041.041,0,0,1,0-.017,15.519,15.519,0,0,0-.863-3.6,13.051,13.051,0,0,0-3.116-5,10.967,10.967,0,0,0-7.014-2.993,12.279,12.279,0,0,0-7.629,2.139,7.375,7.375,0,0,0-2.459,2.845,13.8,13.8,0,0,0-.8,4.769,90.565,90.565,0,0,0-.22,11.313q.019.376.041.752.026.425.057.85c0,.026,0,.052.006.078.067.886.154,1.768.263,2.635q.041.324.086.644.039.274.081.546a32.178,32.178,0,0,0,.768,3.644q.137.492.29.965c.3.915.607,1.865.933,2.835q.163.485.332.977c.731,2.129,1.545,4.337,2.479,6.487q.431.992.9,1.965.116.243.235.483.238.482.485.955.371.71.766,1.4c2.892,5.034,6.736,9.036,12.136,9.806q.736.105,1.441.168a21.688,21.688,0,0,0,9.655-1.191q.608-.228,1.164-.481a18.468,18.468,0,0,0,1.791-.932,16.057,16.057,0,0,0,3.912-3.191q.082-.095.167-.2l0-.005Q-48.728,644.441-48.642,644.322Z" transform="translate(121.751 -594.281)" fill="#2d3c46"/>
        <g id="Group_19172" data-name="Group 19172" transform="translate(8.424 20.685)">
          <path id="Path_29845" data-name="Path 29845" d="M-137.187,710.6A166.36,166.36,0,0,0-148.7,698.343c-3.146-2.743-10.268-2.581-13.011-3.066-.1-.018-.2-.13-.276-.081-1.516.953-2.26-.175-2.6-1.9a28.567,28.567,0,0,1-.1-6.777s-7.786,1.411-6.523,3.882a4.123,4.123,0,0,1,.036,2.958,6.272,6.272,0,0,1-1.938,2.985c-1.2.98-3.812.881-6.811,1.511-4.315.91-10.6,7.335-15.828,14.325-4.068,5.434-7.5,11.208-8.887,15-1.861,5.084,15.866,12.554,23.262,15.42l.081,3.2,18.963,6.214,14.608-8.311-.1-1.628c7.712-3.072,21.324-9.053,22.073-13.262C-125.192,725.59-131.148,717.618-137.187,710.6Zm-57.92,17.2c-1.722-2.4,2.595-6.452,6.705-9.535,3.207-2.4,6.288-4.223,6.288-4.223l.464,18.279.11,4.283C-186.325,734.224-193.169,730.5-195.107,727.8Zm61.01-.081c-.4,1.509-8.3,4.875-14.2,7.2l-.168-2.6-1.209-18.884s2.839,2.076,6.1,4.669C-139.053,721.708-133.722,726.312-134.1,727.718Z" transform="translate(204.785 -686.523)" fill="#efa985"/>
        </g>
        <g id="Group_19173" data-name="Group 19173" transform="translate(8.424 28.806)">
          <path id="Path_29846" data-name="Path 29846" d="M-59.11,723.368c-.1-.018-.2-.13-.276-.081a1.331,1.331,0,0,1-2.18-.554l-3.651,3.61.984,2.678,6.629-5.467C-58.186,723.5-58.7,723.44-59.11,723.368Zm-11.408,1.07a4.453,4.453,0,0,1-2,.763l6.317,3.821.984-2.678-4-3.453A5.849,5.849,0,0,1-70.518,724.437Z" transform="translate(102.179 -722.733)" fill="#6b5e9a"/>
          <path id="Path_29847" data-name="Path 29847" d="M-137.187,741.528A166.385,166.385,0,0,0-148.7,729.272c-2.673-2.33-8.214-2.563-11.5-2.879l-6.629,5.467-.984-2.677-.984,2.677-6.317-3.821c-1.307.251-2.987.366-4.81.749-4.315.91-10.6,7.335-15.828,14.325-4.068,5.434-7.5,11.208-8.887,15-1.861,5.084,15.866,12.554,23.262,15.42l.081,3.2,18.963,6.214,14.608-8.311-.1-1.628c7.712-3.072,21.324-9.053,22.073-13.262C-125.192,756.519-131.148,748.547-137.187,741.528Zm-57.92,17.2c-1.722-2.4,2.595-6.452,6.705-9.535,3.207-2.4,6.288-4.223,6.288-4.223l.464,18.279.11,4.283C-186.325,765.153-193.169,761.428-195.107,758.728Zm61.01-.081c-.4,1.509-8.3,4.875-14.2,7.2l-.168-2.6-1.209-18.884s2.839,2.077,6.1,4.669C-139.053,752.637-133.722,757.241-134.1,758.647Z" transform="translate(204.785 -725.572)" fill="#6b5e9a"/>
        </g>
        <path id="Path_29848" data-name="Path 29848" d="M-48.97,693.3a6.952,6.952,0,0,1-3.353.875,6.952,6.952,0,0,1-3.238-.812A4.123,4.123,0,0,0-55.6,690.4c-1.263-2.471,6.523-3.882,6.523-3.882A28.566,28.566,0,0,0-48.97,693.3Z" transform="translate(97.584 -665.838)" fill="#c17e61"/>
        <path id="Path_29849" data-name="Path 29849" d="M-119.941,1004.627l1.215,6.615,9.124-1.4-1.371-7.505Z" transform="translate(147.391 -910.833)" fill="#e39c7d"/>
        <rect id="Rectangle_12760" data-name="Rectangle 12760" width="43.659" height="25.037" rx="12.519" transform="translate(26.091 60.025)" fill="#65adeb"/>
        <path id="Path_29850" data-name="Path 29850" d="M-241.609,923.9c-1.856,4.519-.645,6.617,8.635,11.46s55.441,11.378,55.441,11.378l1.372-7.505s-20.336-9.523-37.768-15.333S-239.975,919.923-241.609,923.9Z" transform="translate(242.348 -847.112)" fill="#585f61"/>
        <path id="Path_29851" data-name="Path 29851" d="M46.677,1012.593l8.742,1.338.955-6.721-8.325-2.122Z" transform="translate(18.137 -912.964)" fill="#e39c7d"/>
        <path id="Path_29852" data-name="Path 29852" d="M-59.819,923.9c-17.431,5.81-37.768,15.333-37.768,15.333l1.372,7.505s46.16-6.537,55.441-11.378,10.491-6.94,8.635-11.46C-33.774,919.923-42.388,918.093-59.819,923.9Z" transform="translate(130.05 -847.112)" fill="#636b6e"/>
        <path id="Path_29853" data-name="Path 29853" d="M105.487,1013.849c-2.724-1.029-18.1,0-18.1,0l-.773-.2-.955,6.72,1.668.255s8.655,2.179,11.681,2.542,9.745.242,10.773-2.724S108.21,1014.878,105.487,1013.849Z" transform="translate(-12.105 -919.405)" fill="#273443"/>
        <path id="Path_29854" data-name="Path 29854" d="M-198.792,1011.106s-15.373-1.029-18.1,0-5.326,3.632-4.3,6.6,7.747,3.087,10.773,2.724,11.681-2.542,11.681-2.542l1.287-.2-1.215-6.615Z" transform="translate(226.11 -917.278)" fill="#273443"/>
        <path id="Path_29855" data-name="Path 29855" d="M-66.408,725.436l-.984,2.678-6.662-3.754,3.268-2.8Z" transform="translate(111.794 -693.02)" fill="#fff"/>
        <path id="Path_29856" data-name="Path 29856" d="M-32.345,721.413l-6.629,5.467-.984-2.678,3.651-3.61.626-.619Z" transform="translate(85.344 -691.786)" fill="#fff"/>
        <circle id="Ellipse_1650" data-name="Ellipse 1650" cx="1.597" cy="1.597" r="1.597" transform="translate(46.323 70.946)" fill="#fff"/>
        <ellipse id="Ellipse_1651" data-name="Ellipse 1651" cx="8.975" cy="12.129" rx="8.975" ry="12.129" transform="translate(36.286 2.922)" fill="#efa986"/>
        <path id="Path_29857" data-name="Path 29857" d="M-7.507,655.483a2.172,2.172,0,0,0-2.027,2.293,2.172,2.172,0,0,0,2.027,2.293,2.172,2.172,0,0,0,2.027-2.293A2.172,2.172,0,0,0-7.507,655.483Z" transform="translate(61.743 -641.758)" fill="#efa986"/>
        <circle id="Ellipse_1652" data-name="Ellipse 1652" cx="0.605" cy="0.605" r="0.605" transform="translate(44.781 35.451)" fill="#fff"/>
        <circle id="Ellipse_1653" data-name="Ellipse 1653" cx="0.605" cy="0.605" r="0.605" transform="translate(44.781 38.478)" fill="#fff"/>
        <circle id="Ellipse_1654" data-name="Ellipse 1654" cx="0.605" cy="0.605" r="0.605" transform="translate(44.781 41.506)" fill="#fff"/>
      </g>
      <path id="Path_29858" data-name="Path 29858" d="M-65.521,606.08s-.681,4.25-12.716,6.623C-78.237,612.7-76.229,598.508-65.521,606.08Z" transform="translate(115.039 -601.709)" fill="#2d3c46"/>
      <path id="Path_29859" data-name="Path 29859" d="M-37.261,605.745s5.01,10.564,8.356,9.3C-28.905,615.042-31.393,602.621-37.261,605.745Z" transform="translate(83.252 -602.783)" fill="#2d3c46"/>
      <path id="Path_29860" data-name="Path 29860" d="M-52.334,690.847s2.707,2.253,5.239,0C-47.095,690.847-49.764,695.21-52.334,690.847Z" transform="translate(94.945 -669.192)" fill="#3c3c3c"/>
    </g>
  </g>
</svg>
