<svg xmlns="http://www.w3.org/2000/svg" xmlns:xlink="http://www.w3.org/1999/xlink" width="670" height="570" viewBox="0 0 670 570">
  <defs>
    <clipPath id="clip-path">
      <path id="Path_27019" data-name="Path 27019" d="M252.31,210.546a20.4,20.4,0,0,0,3.662,7.031c2.252,2.307-.6-6.061-.6-6.061S253.94,209.8,252.31,210.546Z" transform="translate(-252.31 -210.356)" fill="none"/>
    </clipPath>
    <clipPath id="clip-Joined_web_cdt">
      <rect width="670" height="570"/>
    </clipPath>
  </defs>
  <g id="Joined_web_cdt" data-name="Joined web cdt" clip-path="url(#clip-Joined_web_cdt)">
    <rect width="670" height="570" fill="#fff"/>
    <g id="Group_19267" data-name="Group 19267" transform="translate(-5335 -3768)">
      <rect id="Rectangle_12770" data-name="Rectangle 12770" width="135.132" height="198.979" transform="translate(5498.644 3861.09) rotate(-24)" fill="#f5f5f5" stroke="#898989" stroke-miterlimit="10" stroke-width="0.25"/>
      <path id="Path_29883" data-name="Path 29883" d="M47.138,38.039,41.659,43.85,0,5.811,5.5,0Z" transform="matrix(0.914, -0.407, 0.407, 0.914, 5581.345, 3953.707)" fill="#e0e0e0"/>
      <path id="Path_29884" data-name="Path 29884" d="M38.254,0l5.968,5.459L5.968,45.924,0,40.465Z" transform="matrix(0.914, -0.407, 0.407, 0.914, 5582.263, 3952.163)" fill="#e0e0e0"/>
      <path id="Path_29885" data-name="Path 29885" d="M0,0H12.288V4.5H0Z" transform="matrix(0.914, -0.407, 0.407, 0.914, 5582.267, 3896.942)" fill="#e0e0e0"/>
      <path id="Path_29886" data-name="Path 29886" d="M56.81,28.842H45.285v2.25a2.172,2.172,0,0,1-2.055,2.25h-16.4a2.172,2.172,0,0,1-2.055-2.25v-2.25H13.253a6.242,6.242,0,0,1-5.87-4.618L.006,0V49.055A6.477,6.477,0,0,0,6.15,55.806h57.7A6.477,6.477,0,0,0,70,49.055V0L62.641,24.224a6.242,6.242,0,0,1-5.831,4.618Z" transform="matrix(0.914, -0.407, 0.407, 0.914, 5545.976, 3886.455)" fill="#e0e0e0"/>
      <path id="Path_29887" data-name="Path 29887" d="M39.741,0h-16.4a6.457,6.457,0,0,0-6.222,6.712v2.25H0L7.827,34.4a1.957,1.957,0,0,0,1.957,1.526H21.309v-2.25a2.152,2.152,0,0,1,2.055-2.231h16.4a2.152,2.152,0,0,1,2.055,2.231v2.25H53.34A1.957,1.957,0,0,0,55.3,34.4L63.026,8.962H45.885V6.712A6.457,6.457,0,0,0,39.741,0ZM21.289,8.981V6.712a2.152,2.152,0,0,1,2.055-2.231h16.4A2.152,2.152,0,0,1,41.8,6.712v2.25Z" transform="matrix(0.914, -0.407, 0.407, 0.914, 5544.444, 3874.436)" fill="#e0e0e0"/>
      <g id="Layer_14" data-name="Layer 14" transform="translate(5397 3916.163)">
        <rect id="Rectangle_12330" data-name="Rectangle 12330" width="126.447" height="186.192" transform="translate(24.432 125.891) rotate(-33.78)" fill="#f5f5f5" stroke="#898989" stroke-miterlimit="10" stroke-width="0.25"/>
        <path id="Path_26966" data-name="Path 26966" d="M120.986,283.075l-1.19,7.379L67.54,282.929l1.19-7.379Z" transform="translate(49.77 -80.039)" fill="#e0e0e0"/>
        <path id="Path_26967" data-name="Path 26967" d="M86.141,265.27l7.489,1.08L85.317,317.8l-7.507-1.08Z" transform="translate(58.304 -88.581)" fill="#e0e0e0"/>
        <path id="Path_26968" data-name="Path 26968" d="M77.551,229.561c0,.11-10.455,7.324-23.528,16.039s-23.711,15.728-23.8,15.618,10.455-7.324,23.51-16.039S77.423,229.451,77.551,229.561Z" transform="translate(18.758 -118.256)" fill="#e0e0e0"/>
        <path id="Path_26969" data-name="Path 26969" d="M112.812,224.26c0,.11-17.431,11.956-39.11,26.458s-39.329,26.165-39.4,26.055,17.449-11.956,39.128-26.458S112.739,224.15,112.812,224.26Z" transform="translate(22.149 -122.66)" fill="#e0e0e0"/>
        <path id="Path_26970" data-name="Path 26970" d="M117.042,230.59c0,.11-17.431,11.956-39.11,26.458S38.6,283.212,38.53,283.1s17.449-11.956,39.128-26.458S116.969,230.481,117.042,230.59Z" transform="translate(25.664 -117.399)" fill="#e0e0e0"/>
        <path id="Path_26971" data-name="Path 26971" d="M121.264,236.92c0,.11-17.431,11.956-39.11,26.458S42.843,289.543,42.77,289.433,60.2,277.476,81.88,262.975,121.191,236.81,121.264,236.92Z" transform="translate(29.187 -112.139)" fill="#e0e0e0"/>
        <path id="Path_26972" data-name="Path 26972" d="M125.512,243.24c0,.11-17.449,11.956-39.128,26.458S47,295.9,47,295.753,64.431,283.8,86.11,269.3,125.421,243.13,125.512,243.24Z" transform="translate(32.702 -106.888)" fill="#e0e0e0"/>
        <path id="Path_26975" data-name="Path 26975" d="M21.39,344.25a11.828,11.828,0,0,1,8.239,4.211A20.673,20.673,0,0,1,33.8,356.9c1.593,5.932.623,12.817-1.08,18.8-6.408-2.289-10.363-9.155-12.139-12.725-2.838-5.676-4.486-17.669.806-18.731" transform="translate(8.546 -22.951)" fill="#54be90"/>
        <path id="Path_26976" data-name="Path 26976" d="M31.777,373.058a10.034,10.034,0,0,1-.458-10.089,13.348,13.348,0,0,1,8.056-6.482,5.694,5.694,0,0,1,4.742.22,4.339,4.339,0,0,1,1.648,4.047,8.807,8.807,0,0,1-1.831,4.138c-3.131,4.23-6.921,7.745-12.158,8.166" transform="translate(18.722 -13.126)" fill="#54be90"/>
        <path id="Path_26977" data-name="Path 26977" d="M32.266,389.617a7.07,7.07,0,0,1-.293-1.245c-.165-.879-.385-2.014-.659-3.369a35.814,35.814,0,0,1-.7-11.334,21.514,21.514,0,0,1,4.211-10.51,13.88,13.88,0,0,1,2.435-2.454,6.033,6.033,0,0,1,.751-.549c.183-.128.275-.183.293-.165a22.888,22.888,0,0,0-3.186,3.351,22.3,22.3,0,0,0-4.01,10.382,38.084,38.084,0,0,0,.568,11.224c.238,1.428.421,2.6.531,3.406A7.031,7.031,0,0,1,32.266,389.617Z" transform="translate(18.947 -9.873)" fill="#263238"/>
        <path id="Path_26978" data-name="Path 26978" d="M21,349.17a2.125,2.125,0,0,1,.256.494q.275.549.659,1.428c.568,1.245,1.373,3.058,2.344,5.292,1.923,4.486,4.5,10.73,7.2,17.669s5,13.311,6.591,17.925c.806,2.307,1.428,4.175,1.831,5.493.2.622.348,1.117.476,1.5a3.315,3.315,0,0,1,.146.531,2.2,2.2,0,0,1-.22-.513l-.568-1.465c-.476-1.337-1.154-3.186-1.977-5.493-1.666-4.577-4.01-10.986-6.7-17.852s-5.237-13.2-7.086-17.706l-2.2-5.346-.586-1.465A2.25,2.25,0,0,1,21,349.17Z" transform="translate(11.097 -18.862)" fill="#263238"/>
        <path id="Path_26979" data-name="Path 26979" d="M38.007,374.166A23.528,23.528,0,0,0,19.7,362.814c-1.831-.146-4.193.183-5.035,1.831s.293,3.662,1.575,5.108a20.141,20.141,0,0,0,21.807,4.87" transform="translate(5.589 -7.551)" fill="#54be90"/>
        <path id="Path_26980" data-name="Path 26980" d="M18.87,365.6a5.337,5.337,0,0,1,1.19,0,4.521,4.521,0,0,1,1.392.165c.549.165,1.154.165,1.831.348a22,22,0,0,1,2.161.6,18.747,18.747,0,0,1,2.4.915,26.041,26.041,0,0,1,5.09,3,25.762,25.762,0,0,1,4.193,4.156,19.977,19.977,0,0,1,1.465,2.106,16.654,16.654,0,0,1,1.1,1.959,14.517,14.517,0,0,1,.769,1.685,10.452,10.452,0,0,1,.458,1.318,4.907,4.907,0,0,1,.311,1.135c-.092,0-.549-1.593-1.831-3.992a17.926,17.926,0,0,0-1.135-1.831,22.112,22.112,0,0,0-1.483-2.069,26.364,26.364,0,0,0-4.138-4.046,27.151,27.151,0,0,0-4.98-2.985,21.728,21.728,0,0,0-2.362-.934,20.882,20.882,0,0,0-2.106-.659C20.554,365.778,18.87,365.687,18.87,365.6Z" transform="translate(9.327 -5.241)" fill="#263238"/>
        <path id="Path_26981" data-name="Path 26981" d="M229.839,204.1a1.831,1.831,0,0,1-1.062-1.52l-.366-8.7a1.7,1.7,0,0,1,.623-1.428,1.831,1.831,0,0,1,1.52-.348,5.493,5.493,0,0,0,4.23-.842,4.852,4.852,0,0,0,2.179-3.2,5.017,5.017,0,0,0-1.044-3.753,5.493,5.493,0,0,0-3.662-2.234,6.537,6.537,0,0,0-6.646,4.724,1.831,1.831,0,0,1-3.369-.915,10.07,10.07,0,0,1,10.418-7.324,9.155,9.155,0,0,1,6.079,3.662,8.569,8.569,0,0,1,1.721,6.445,8.423,8.423,0,0,1-3.662,5.493,9.155,9.155,0,0,1-4.742,1.538l.293,6.7a1.821,1.821,0,0,1-2.508,1.7Z" transform="translate(178.322 -160.655)" fill="#e7515b"/>
        <path id="Path_26982" data-name="Path 26982" d="M229.088,195.04a1.433,1.433,0,1,1-1.52-1.318,1.41,1.41,0,0,1,1.52,1.318Z" transform="translate(181.636 -148.039)" fill="#e7515b"/>
        <path id="Path_26983" data-name="Path 26983" d="M210,199.663a2.858,2.858,0,0,0,.092-.568,16.111,16.111,0,0,1,.183-1.666,18.854,18.854,0,0,1,.439-2.692c.128-.531.2-1.117.385-1.7l.586-1.831a32.3,32.3,0,0,1,4.651-8.935,31.274,31.274,0,0,1,9.851-8.569,32.262,32.262,0,0,1,6.939-2.856,30.816,30.816,0,0,1,8-1.044,30.237,30.237,0,0,1,4.248.256,12.537,12.537,0,0,1,2.142.385,14.265,14.265,0,0,1,2.161.513,30.156,30.156,0,0,1,8.386,3.79,31.511,31.511,0,0,1,12.377,15.563,31.95,31.95,0,0,1-.128,21.679l-.421,1.08v.256c2.362,5.493,4.651,10.729,6.884,15.875l.4-.458L263.1,223.3h-.183l-.128.128a30.893,30.893,0,0,1-38.542,3.735,32.243,32.243,0,0,1-7.892-7.324A33.378,33.378,0,0,1,212.036,212a34.33,34.33,0,0,1-1.685-6.518c-.11-.915-.2-1.739-.293-2.435a12.169,12.169,0,0,1,0-1.831v-1.483a1.226,1.226,0,0,0,0,.385q0,.412,0,1.1v1.831c0,.714.146,1.538.238,2.454a31.126,31.126,0,0,0,5.9,14.648,32.445,32.445,0,0,0,7.965,7.525,30.905,30.905,0,0,0,38.945-3.845h-.311l14.025,5.493.714.275-.311-.714-6.793-15.893v.275l.439-1.1a30.872,30.872,0,0,0,2-11.242,31.511,31.511,0,0,0-1.831-10.986A31.914,31.914,0,0,0,258.378,174.1a30.449,30.449,0,0,0-8.551-3.845,15.29,15.29,0,0,0-2.2-.513c-.732-.128-1.446-.33-2.179-.384a28.765,28.765,0,0,0-4.321-.238,31.379,31.379,0,0,0-29.68,21.862q-.311,1.025-.549,1.923a17.129,17.129,0,0,0-.366,1.721,18.041,18.041,0,0,0-.385,2.71,15.544,15.544,0,0,1-.128,1.684,3.3,3.3,0,0,0-.018.641Z" transform="translate(168.147 -168.482)" fill="#898989"/>
        <path id="Path_26984" data-name="Path 26984" d="M274.093,225.379c.293-5.493,4.3-2.545-.641-8.368a5.493,5.493,0,0,0-3.479-1.831c-2.087-.256-5.255-.934-6.683-2.71a7.671,7.671,0,0,1-1.172-2.124,5.273,5.273,0,0,0-4.632-3.662c-2.142-.128-4.394-.915-4.742-3.662a5.255,5.255,0,0,1,1.5-4.266c3.515-3.662,13.879-12.451,27.062-5.731,0,0,18.4,9.155,16.039,29.3a5.493,5.493,0,0,0,.44,2.985,6.555,6.555,0,0,0,5.8,4.175A5.64,5.64,0,0,1,307,230.817c2.527,2.051,5.932,6.427,2.453,13.531a5.033,5.033,0,0,0-.439,1.245c-.4,1.739-.952,6.006,2.6,7.507a5.6,5.6,0,0,1,2.508,2.142,28.563,28.563,0,0,1,1.392,29.039c-.091.147-.165.293-.275.44s-15.49,13.952-23-8.111c0,0-1.172-5.365-.293-7.837,0,0,1.831-4.138-5.328-7.763a30.156,30.156,0,0,1-10.858-19.518,72.913,72.913,0,0,1-1.666-16.113Z" transform="translate(203.645 -150.657)" fill="#3c4d57"/>
        <path id="Path_26985" data-name="Path 26985" d="M281.829,219.6l.7-13.348-13.842-7.8-16.186,3.3s4.211,7.013-.6,12.4c0,0-3.076,1.684-.677,3.424,0,0,2.875.714,3.2,2.215" transform="translate(201.639 -144.107)" fill="#efa986"/>
        <path id="Path_26986" data-name="Path 26986" d="M275.437,192.513c-4.3-1.428-20.141-4.12-23.4,16.021a44.635,44.635,0,0,0-.568,5.2c-.787,17.193,9.448,27.959,18.676,24.334,10.107-3.973,16.167-17.962,16.589-28.563S280.875,194.326,275.437,192.513Z" transform="translate(202.575 -149.851)" fill="#efa986"/>
        <path id="Path_26987" data-name="Path 26987" d="M251.756,208.65s-1.062-17.175,16-18.072,21.972,13.091,20.69,23.363a25.049,25.049,0,0,1-8.184,15.8s.458-8.294-2.893-10.4-16.7-6.152-22.667-16.039a15.271,15.271,0,0,0-2.948,5.346Z" transform="translate(202.838 -150.682)" fill="#3c4d57"/>
        <path id="Path_26988" data-name="Path 26988" d="M267.287,271.23s2.069,15.142-10.986,23.986c0,0-2.325,13.146,7.324,19.1" transform="translate(206.422 -83.628)" fill="none" stroke="#fafdff" stroke-miterlimit="10" stroke-width="0.75"/>
        <path id="Path_26989" data-name="Path 26989" d="M242.568,282.78a9.5,9.5,0,0,0-2.032,2.765,15.564,15.564,0,0,1-2.435,3.277,38.448,38.448,0,0,0-3.424,5.6,28.954,28.954,0,0,1-.329,4.211c-.385.842-1.373,2.435-.623,2.746s2.032-.9,2.032-.9a1.117,1.117,0,0,0,.275,1.245,1.959,1.959,0,0,0,1.941.531s.22.989.787,1.263a2.564,2.564,0,0,0,2.032.2,2.27,2.27,0,0,0,1.337.824,2.106,2.106,0,0,0,1.941-.623s1.373.641,2,0a7.16,7.16,0,0,0,1.117-1.831,24.646,24.646,0,0,0,1.062-10.711,9.7,9.7,0,0,1,2.765-7.873Z" transform="translate(187.637 -74.031)" fill="#e39c7d"/>
        <path id="Path_26990" data-name="Path 26990" d="M267.815,222.56s3.662,0,5.328,11.206-1.428,15.8-1.831,20.452-5.8,34.605-5.951,35.924-.879,17.266-3,21.5-17.724,28.215-17.925,29.424S237,336.886,237,336.886s12.249-25.634,12.963-28.581,5.639-17.87,4.87-22.429,2.179-29.735,1.831-32.536S260.674,224.263,267.815,222.56Z" transform="translate(190.587 -124.072)" fill="#d9af98"/>
        <path id="Path_26991" data-name="Path 26991" d="M268.264,222.56s3.662,0,5.328,11.206a45.774,45.774,0,0,1-.806,19.994c-.916,4.559-4.01,32.481-4.156,33.8s-3.845,18.163-5.768,24.077c-1.465,4.5-15.38,28.069-15.582,29.3s-10.821-5.493-10.821-5.493,12.524-26.7,13.238-29.625a119.79,119.79,0,0,0,2.582-17.468c.092-5.493,3.662-32.957,3.424-35.667S257.864,226.387,268.264,222.56Z" transform="translate(190.138 -124.072)" fill="#6b5e9a"/>
        <path id="Path_26992" data-name="Path 26992" d="M277.958,364.665s-6.5,9.649-9.155,11.975c0,0-6.024,2.106-6.408,6.207-.238,2.673,0,6.976,6.866,7.159s11.3-2.2,12.56-6.372a12.633,12.633,0,0,1,3.662-6.024v8.715h1.538s.4-8.423.494-9.979,1.117-7.507-2.161-10.144a9.026,9.026,0,0,0-7.4-1.538Z" transform="translate(211.644 -6.179)" fill="#364454"/>
        <path id="Path_26993" data-name="Path 26993" d="M256.51,361.316a27.943,27.943,0,0,1-3.259,5.493c-1.556,2.032-6.39,10.363-8.514,10.986s-8.734,1.739-9.3,5.493-.879,6.3,5.6,6.591,10.766.677,13.86-3.882a34.148,34.148,0,0,1,8.038-7.837v11.81h2.527s1.172-12.377,1.831-13.238,2.417-10.382-3.662-15.325S256.51,361.316,256.51,361.316Z" transform="translate(189.057 -10.539)" fill="#364454"/>
        <path id="Path_26994" data-name="Path 26994" d="M284.726,264.481a60.7,60.7,0,0,1,10.418,23.308c2.234,12.652-1.3,55.094-1.208,61.338s5.914,21.807,4.742,33.58S287.8,452.119,287.8,452.119l-7.434-1.538s.732-59.745,0-64.67-2.179-22.96-2.472-24.993-18.456-55.478-18.456-64.6S264.951,249.614,284.726,264.481Z" transform="translate(209.234 -92.095)" fill="#e39c7d"/>
        <path id="Path_26995" data-name="Path 26995" d="M259.377,266.41S245.9,317.805,244.308,325s-3.918,13-3.918,16.021a106.032,106.032,0,0,0,2.6,18.31l9.155,81.387h7.214s4.559-47.605,5.273-57.108-5.237-24.425-3.772-28.49,23.4-51.029,23.4-51.029S300.9,251.487,259.377,266.41Z" transform="translate(193.404 -89.849)" fill="#e39c7d"/>
        <path id="Path_26996" data-name="Path 26996" d="M265.29,377.029a10.711,10.711,0,0,0,10.784-.934,21.057,21.057,0,0,0,6.866-10l-7.434-1.538Z" transform="translate(214.095 -6.074)" fill="#efa986"/>
        <path id="Path_26997" data-name="Path 26997" d="M240.39,377.326s5.8,1.446,8.038,0,9.8-14.263,12.3-15.032c0,0-2.417-4.925-8.569-1.355C252.163,360.939,242.038,375.2,240.39,377.326Z" transform="translate(193.404 -10.161)" fill="#efa986"/>
        <path id="Path_26998" data-name="Path 26998" d="M241.34,330.188s24.755,14.648,71.133,14.648c0,0,2.637-53.812-4.1-68.936s-51.524-5.731-51.524-5.731S242.933,319.055,241.34,330.188Z" transform="translate(194.193 -86.906)" fill="#585f61"/>
        <path id="Path_26999" data-name="Path 26999" d="M270.815,220.556a77.458,77.458,0,0,1-9.686,3.9c-2.508.494-12.194,13.091-13.9,17.687s0,11.48,3.5,19.573.2,10.784,1.831,18.877a187.831,187.831,0,0,1,2.71,29.735c-.311,4.486,40.41,5.328,49.693-2.856,0,0-9.338-13.989-10.528-15.984s-.2-12.817.9-15.691,8.367-26.622,8.367-26.622,5.987-18.31.586-22.466c-4.706-3.662-17.5-4.944-19.793-5.749A39.677,39.677,0,0,0,270.815,220.556Z" transform="translate(198.536 -126.078)" fill="#e1d8d6"/>
        <path id="Path_27000" data-name="Path 27000" d="M260.528,237.573l-4.358-5.127,3.79-13.476a88.2,88.2,0,0,1,.568,18.6Z" transform="translate(206.517 -127.055)" fill="#cdc6c6"/>
        <path id="Path_27001" data-name="Path 27001" d="M257.93,220.312a167.985,167.985,0,0,1,1.135,17.486s7.489,7.489,15.984-8.752a22.283,22.283,0,0,1-.879-15.8C276.862,204.126,257.93,220.312,257.93,220.312Z" transform="translate(207.979 -134.128)" fill="#efa986"/>
        <path id="Path_27002" data-name="Path 27002" d="M258.55,225.39v6.848l8.606-6.427Z" transform="translate(208.494 -121.72)" fill="#d9af98"/>
        <path id="Path_27003" data-name="Path 27003" d="M258.55,236.584l3.589-4.431,12.029-11.993,3.882,3.753Z" transform="translate(208.494 -126.066)" fill="#cdc6c6"/>
        <path id="Path_27004" data-name="Path 27004" d="M272.82,220.79s-10.107,15.325-10.583,22.063,3.753,57.2,7.141,73.4,27.9-1.831,27.9-1.831-16.479-26.641-10.144-47.99,8.606-29.863,8.606-29.863-2.179-11.883-9.869-13.549C279.1,221.559,272.82,220.79,272.82,220.79Z" transform="translate(211.527 -125.543)" fill="#6b5e9a"/>
        <path id="Path_27005" data-name="Path 27005" d="M246.666,242.893s-1.831,6.445,5.273,20.69c0,0-.11,18.31-.311,23.931s-1.556,27.227-1.556,27.227l7.013,4.1a2,2,0,0,0,2.985-1.941c-2-16.387-8.459-78.549,5.493-95.211l-5.621,1.648S250.017,231.412,246.666,242.893Z" transform="translate(198.443 -124.795)" fill="#6b5e9a"/>
        <path id="Path_27006" data-name="Path 27006" d="M258.671,232.446l-5.511,1.52,9.3-15Z" transform="translate(204.015 -127.055)" fill="#ece3df"/>
        <path id="Path_27007" data-name="Path 27007" d="M260.51,232.153l5.017,6.591,10.327-17.211-3.314-1.373Z" transform="translate(210.123 -126.066)" fill="#ece3df"/>
        <path id="Path_27008" data-name="Path 27008" d="M258.1,220.013l.238,2.655s5.951,1.1,13.714-8.368C272.052,214.3,266.541,221.075,258.1,220.013Z" transform="translate(208.12 -130.936)" fill="#c17e61"/>
        <path id="Path_27009" data-name="Path 27009" d="M273.107,232.25c-1.154-1.044-6.006,2.838-7.2,3.461s-.165-3.918-.348-5.841.385-12.3-.22-13.091-1.355-.842-1.447.33-.568,8.441-.732,11.169h-.2c-.458-3.369-1.831-14.08-2.215-14.794s-1.556-.531-1.666,0,.641,10.784.9,14.373h-.091a129.444,129.444,0,0,0-2.215-13.366.97.97,0,0,0-1.63.787c0,.861.714,9.649.952,12.927h-.146c-.549-2.673-1.831-8.99-2.49-9.155s-1.611-.238-1.025,2.344,1.355,8.862,1.355,8.862h0a.532.532,0,0,0,0,.183c-.421,4.083,1.831,8.734,1.593,9.43a29.307,29.307,0,0,0-.421,2.966l6.9,1.721s.421-4.138,2.655-4.925a13.236,13.236,0,0,0,4.486-3.662C270.709,235.18,274.261,233.294,273.107,232.25Z" transform="translate(204.007 -132.005)" fill="#e39c7d"/>
        <path id="Path_27010" data-name="Path 27010" d="M248.557,242.62s-.348,22.759,1.044,33.727l.622-30.156Z" transform="translate(200.159 -107.403)" fill="#443d75"/>
        <path id="Path_27011" data-name="Path 27011" d="M234.737,295.065s1.3-5.054,2.93-5.822,1.263,1.1,1.263,1.1.33-1.831,1.831-1.739.97,2.252.97,2.252a1.5,1.5,0,0,1,2.051-.678c1.446.641.586,2.325.586,2.325s1.941-1.392,2.4.513a8.02,8.02,0,0,1-1.593,6.189,1.831,1.831,0,0,1-2.087,0,2.124,2.124,0,0,1-3.314-.2s-2.582.7-2.838-1.447C236.953,297.518,233.968,297.976,234.737,295.065Z" transform="translate(188.602 -69.196)" fill="#efa986"/>
        <path id="Path_27012" data-name="Path 27012" d="M264.021,264.138,275.465,245.7s-9.741,11.5-10.766,12.817l-1.1,1.318S263.893,263.515,264.021,264.138Z" transform="translate(212.691 -104.843)" fill="#443d75"/>
        <path id="Path_27013" data-name="Path 27013" d="M266.751,283.491l6.463-5.328c5.658-7.525,25.835-29.607,25.835-29.607s13.073-20.141-3.442-26.146c0,0-2.746.458-6.939,4.962a56.966,56.966,0,0,0-8.77,13.2c-1.1,2.4-15.93,22.759-16.735,23.272l-.293-27.025-8.624-2.106L253,281.935S257.779,291.017,266.751,283.491Z" transform="translate(203.882 -124.196)" fill="#6b5e9a"/>
        <path id="Path_27014" data-name="Path 27014" d="M266.961,207.932a2.637,2.637,0,0,1,3.9-1.135c1.19.915,1.831,3.662,0,7.1S262.256,219.833,266.961,207.932Z" transform="translate(214.127 -137.549)" fill="#efa986"/>
        <path id="Path_27015" data-name="Path 27015" d="M264.953,339.184s20.47,3.039,31.566,2.417c0,0,2.069-52.97-2.948-65.7,0,0-15.948,10.839-21.5,2.032a13,13,0,0,1-1.959-6.848l-9.466.256Z" transform="translate(210.239 -83.745)" fill="#636b6e"/>
        <path id="Path_27016" data-name="Path 27016" d="M265.324,265.25s4.742,24.114,15.234,19.39C280.558,284.64,264.867,297.036,265.324,265.25Z" transform="translate(214.116 -88.598)" fill="#443d75"/>
        <path id="Path_27017" data-name="Path 27017" d="M250.394,266.16a172.935,172.935,0,0,1-13.934,32.957l3.259,2S252.1,283.554,250.394,266.16Z" transform="translate(190.138 -87.841)" fill="#443d75"/>
        <path id="Path_27018" data-name="Path 27018" d="M250.3,263.05l-1.868,17.321,3.424,2Z" transform="translate(200.085 -90.426)" fill="#443d75"/>
        <g id="Group_18420" data-name="Group 18420" transform="translate(455.619 76.144)" clip-path="url(#clip-path)">
          <ellipse id="Ellipse_1550" data-name="Ellipse 1550" cx="1.263" cy="3.332" rx="1.263" ry="3.332" transform="translate(-0.836 1.057) rotate(-24.38)" fill="#4c4c4d"/>
        </g>
        <rect id="Rectangle_12332" data-name="Rectangle 12332" width="126.447" height="186.192" transform="translate(180.673 39.548) rotate(33.84)" fill="#f5f5f5" stroke="#898989" stroke-width="0.25"/>
        <path id="Path_27020" data-name="Path 27020" d="M106.094,305.066l-7.269,1.7L85.88,255.593l7.287-1.7Z" transform="translate(65.01 -98.037)" fill="#e0e0e0"/>
        <path id="Path_27021" data-name="Path 27021" d="M127.776,263.07l1.868,7.342-50.736,11.9-1.868-7.342Z" transform="translate(57.665 -90.409)" fill="#e0e0e0"/>
        <path id="Path_27022" data-name="Path 27022" d="M118.557,227.59l9.613,6.335-2.325,3.57-9.594-6.335Z" transform="translate(90.247 -119.892)" fill="#e0e0e0"/>
        <path id="Path_27023" data-name="Path 27023" d="M153.53,260.852l-9.008-5.932-1.154,1.831a2.014,2.014,0,0,1-2.765.7l-12.817-8.441a2.032,2.032,0,0,1-.439-2.82l1.154-1.831-9.008-5.932a5.823,5.823,0,0,1-2.179-6.61l6.72-22.722L98.784,247.376a6.061,6.061,0,0,0,1.318,8.441l45.042,29.7a6.042,6.042,0,0,0,8.276-2.087l25.286-38.341-18.145,15.106A5.823,5.823,0,0,1,153.53,260.852Z" transform="translate(74.774 -135.265)" fill="#e0e0e0"/>
        <path id="Path_27024" data-name="Path 27024" d="M153.157,222.348l-12.817-8.459a6.061,6.061,0,0,0-8.276,2.106l-1.154,1.831L117.545,209,110.5,232.8a1.941,1.941,0,0,0,.714,2.2l9.008,5.951,1.172-1.831a2.014,2.014,0,0,1,2.746-.714l12.817,8.459a2.014,2.014,0,0,1,.439,2.8l-1.153,1.831,9.008,5.951a1.977,1.977,0,0,0,2.307-.2l19.134-15.893-13.366-8.807,1.154-1.831A6.042,6.042,0,0,0,153.157,222.348Zm-19.042-2.49,1.154-1.831a2.014,2.014,0,0,1,2.765-.7l12.817,8.441a2.032,2.032,0,0,1,.458,2.82l-1.172,1.831Z" transform="translate(85.382 -135.34)" fill="#e0e0e0"/>
        <g id="Group_19179" data-name="Group 19179" transform="translate(237.752 15.914)">
          <rect id="Rectangle_12333" data-name="Rectangle 12333" width="126.447" height="186.192" transform="translate(1.43 0) rotate(0.44)" fill="#f5f5f5" stroke="#898989" stroke-miterlimit="10" stroke-width="0.25"/>
          <path id="Path_27025" data-name="Path 27025" d="M200.108,259.844l-5.127,5.438L156,229.688l5.145-5.438Z" transform="translate(-114.474 -138.581)" fill="#e0e0e0"/>
          <path id="Path_27026" data-name="Path 27026" d="M192.546,223.72l5.584,5.108-35.8,37.865-5.584-5.108Z" transform="translate(-113.85 -139.022)" fill="#e0e0e0"/>
          <path id="Path_27027" data-name="Path 27027" d="M168.23,197.94h11.5v4.211h-11.5Z" transform="translate(-104.311 -160.444)" fill="#e0e0e0"/>
          <path id="Path_27028" data-name="Path 27028" d="M206.626,212.489H195.841v2.106a2.032,2.032,0,0,1-1.923,2.106H178.575a2.032,2.032,0,0,1-1.922-2.106v-2.106H165.868a5.841,5.841,0,0,1-5.493-4.321l-6.9-22.667v45.9a6.06,6.06,0,0,0,5.749,6.317h54a6.061,6.061,0,0,0,5.749-6.317V185.5l-6.884,22.667a5.841,5.841,0,0,1-5.456,4.321Z" transform="translate(-116.579 -170.782)" fill="#e0e0e0"/>
          <path id="Path_27029" data-name="Path 27029" d="M192.437,179.57H177.093a6.042,6.042,0,0,0-5.822,6.28v2.106H155.25l7.324,23.8a1.831,1.831,0,0,0,1.831,1.428h10.784v-2.106a2.014,2.014,0,0,1,1.923-2.087h15.344a2.014,2.014,0,0,1,1.923,2.087v2.106h10.784a1.831,1.831,0,0,0,1.831-1.428l7.232-23.8H198.186V185.85A6.042,6.042,0,0,0,192.437,179.57Zm-17.266,8.4V185.85a2.014,2.014,0,0,1,1.923-2.087h15.344a2.014,2.014,0,0,1,1.922,2.087v2.106Z" transform="translate(-115.097 -175.709)" fill="#e0e0e0"/>
        </g>
        <path id="Path_27030" data-name="Path 27030" d="M129.262,276.489,96.121,446.769,91.8,469.07l221.126-1.08c9.924,0,18.713-8.862,21.972-21.972l39.238-160.778c2.417-9.924-2.893-20.269-10.437-20.251l-223.928.22C134.864,265.228,130.617,269.842,129.262,276.489Z" transform="translate(69.93 -88.814)" fill="#f6cd88"/>
        <g id="Group_18421" data-name="Group 18421" transform="translate(161.73 176.176)" opacity="0.1">
          <path id="Path_27031" data-name="Path 27031" d="M129.262,276.489,96.121,446.769,91.8,469.07l221.126-1.08c9.924,0,18.713-8.862,21.972-21.972l39.238-160.778c2.417-9.924-2.893-20.269-10.437-20.251l-223.928.22C134.864,265.228,130.617,269.842,129.262,276.489Z" transform="translate(-91.8 -264.99)"/>
        </g>
        <g id="Group_18422" data-name="Group 18422" transform="translate(181.321 248.518)" opacity="0.5">
          <path id="Path_27032" data-name="Path 27032" d="M175.519,363.742l-8.386,9.008L102.5,314.617l8.386-9.027Z" transform="translate(-102.5 -303.594)" fill="#fff"/>
          <path id="Path_27033" data-name="Path 27033" d="M162.43,304.5l9.265,8.349L113.213,375.67l-9.283-8.349Z" transform="translate(-101.312 -304.5)" fill="#fff"/>
        </g>
        <rect id="Rectangle_12334" data-name="Rectangle 12334" width="125.165" height="184.287" transform="translate(390.816 374.812) rotate(-163.53)" fill="#f5f5f5" stroke="#898989" stroke-miterlimit="10" stroke-width="0.5"/>
        <path id="Path_27034" data-name="Path 27034" d="M194.78,287.243l6.372-3.754L228.507,328l-6.372,3.772Z" transform="translate(155.503 -73.441)" fill="#e0e0e0"/>
        <path id="Path_27035" data-name="Path 27035" d="M194.727,320.388,190.79,314l44.419-26.238,3.918,6.39Z" transform="translate(152.188 -69.892)" fill="#e0e0e0"/>
        <path id="Path_27036" data-name="Path 27036" d="M196.356,346.086l-10.986-3.131L186.524,339l10.986,3.149Z" transform="translate(147.684 -27.313)" fill="#e0e0e0"/>
        <path id="Path_27037" data-name="Path 27037" d="M187.079,348.58l10.217,2.948.568-2a2,2,0,0,1,2.4-1.483l14.648,4.193a2.014,2.014,0,0,1,1.263,2.527l-.586,2,10.272,2.948a5.749,5.749,0,0,1,4.01,5.584l.366,23.473,12.542-43.687a5.969,5.969,0,0,0-3.753-7.562l-51.267-14.758a5.987,5.987,0,0,0-7.2,4.431L168,370.936l12.817-19.7A5.786,5.786,0,0,1,187.079,348.58Z" transform="translate(133.25 -40.94)" fill="#e0e0e0"/>
        <path id="Path_27038" data-name="Path 27038" d="M187.731,374.456l14.648,4.193a5.987,5.987,0,0,0,7.2-4.431l.568-2,15.234,4.376-.385-24.627a1.941,1.941,0,0,0-1.337-1.831L213.4,347.193l-.586,2.014a2,2,0,0,1-2.4,1.465l-14.648-4.193a1.959,1.959,0,0,1-1.245-2.508l.568-2.014-10.253-2.93a1.923,1.923,0,0,0-2.124.879L169.33,360.559l15.215,4.376-.568,2A6.006,6.006,0,0,0,187.731,374.456Zm18.713-3.3-.568,2.014a2,2,0,0,1-2.4,1.465l-14.648-4.193a2,2,0,0,1-1.245-2.527l.586-2Z" transform="translate(134.355 -27.34)" fill="#e0e0e0"/>
        <path id="Path_27039" data-name="Path 27039" d="M328.438,449.706l-23.4-188.59a14.868,14.868,0,0,0-14.391-13.476l-51.267.165a13.97,13.97,0,0,0-10.144,4.5l-24.389,25.908-142.816.751c-8.715,0-15.417,8.313-14.263,17.577L69.5,470.927a14.849,14.849,0,0,0,14.373,13.458L332.7,483.89c27.721.586,30.376-7.6,30.376-7.6C331.24,483.195,328.438,449.706,328.438,449.706Z" transform="translate(33.233 -103.231)" fill="#f6cd88"/>
        <path id="Path_27040" data-name="Path 27040" d="M105.84,326.735l5.877-6.335L157.2,361.066l-5.877,6.353Z" transform="translate(81.597 -42.77)" fill="#e7515b"/>
        <path id="Path_27041" data-name="Path 27041" d="M113.428,369.61l-6.518-5.841,40.922-44.2,6.518,5.841Z" transform="translate(82.486 -43.459)" fill="#e7515b"/>
        <path id="Path_27042" data-name="Path 27042" d="M277.535,195.5c-.146,0,1.3-6.06,3.259-13.439s3.662-13.33,3.845-13.293-1.3,6.061-3.259,13.439S277.7,195.539,277.535,195.5Z" transform="translate(204.262 -168.77)" fill="#898989"/>
        <path id="Path_27043" data-name="Path 27043" d="M314.152,175.491c.092.128-7.122,5.273-16.113,11.5s-16.369,11.151-16.479,10.986,7.123-5.291,16.113-11.517S314.042,175.345,314.152,175.491Z" transform="translate(207.615 -163.187)" fill="#898989"/>
        <path id="Path_27044" data-name="Path 27044" d="M312.262,196.772c0,.165-6.006-.568-13.348-1.648s-13.293-2.069-13.275-2.234,6.006.586,13.348,1.648S312.281,196.607,312.262,196.772Z" transform="translate(211.005 -148.745)" fill="#898989"/>
      </g>
    </g>
  </g>
</svg>
