<svg xmlns="http://www.w3.org/2000/svg" width="19.358" height="16.969" viewBox="0 0 19.358 16.969">
    <defs>
        <style>
            .cls-1{fill:#017ab9;fill-rule:evenodd}
        </style>
    </defs>
    <path id="Icon-linkedin" d="M86 19.979V7.874h3.642v12.105zM87.824 3.01a1.813 1.813 0 1 1-1.812 1.813 1.8 1.8 0 0 1 1.812-1.813zm17.539 9.466v7.5h-3.631v-7.261a2.442 2.442 0 0 0-2.385-2.065c-1.1 0-2.456 1.011-2.456 2.065v7.264h-3.629V7.873h3.631l-.016 1.777a4.587 4.587 0 0 1 3.78-1.782 4.679 4.679 0 0 1 4.706 4.607z" class="cls-1" transform="translate(-86.005 -3.01)"/>
</svg>
