<svg xmlns="http://www.w3.org/2000/svg" xmlns:xlink="http://www.w3.org/1999/xlink" width="670" height="570" viewBox="0 0 670 570">
  <defs>
    <linearGradient id="linear-gradient" x1="0.5" y1="-0.002" x2="0.5" y2="0.999" gradientUnits="objectBoundingBox">
      <stop offset="0" stop-color="#a4ddf2"/>
      <stop offset="0.132" stop-color="#9ed9ef"/>
      <stop offset="0.292" stop-color="#90ceea"/>
      <stop offset="0.466" stop-color="#77bce0"/>
      <stop offset="0.65" stop-color="#55a2d2"/>
      <stop offset="0.841" stop-color="#2a82c0"/>
      <stop offset="1" stop-color="#0063b0"/>
    </linearGradient>
    <linearGradient id="linear-gradient-2" x1="0.5" y1="-0.082" x2="0.5" y2="1.195" gradientUnits="objectBoundingBox">
      <stop offset="0" stop-color="#e6f6fc"/>
      <stop offset="0.227" stop-color="#e0f4fb"/>
      <stop offset="0.501" stop-color="#d2eefa"/>
      <stop offset="0.798" stop-color="#b9e5f7"/>
      <stop offset="1" stop-color="#a5def6"/>
    </linearGradient>
    <linearGradient id="linear-gradient-3" x1="0.5" y1="0.001" x2="0.5" y2="1.014" gradientUnits="objectBoundingBox">
      <stop offset="0" stop-color="#eff9fc"/>
      <stop offset="0.194" stop-color="#e9f7fb"/>
      <stop offset="0.428" stop-color="#dbf1fa"/>
      <stop offset="0.683" stop-color="#c2e9f8"/>
      <stop offset="0.952" stop-color="#a0ddf5"/>
      <stop offset="1" stop-color="#9adbf5"/>
    </linearGradient>
    <filter id="Rectangle_12451" x="206.21" y="35.825" width="264.688" height="322.205" filterUnits="userSpaceOnUse">
      <feOffset dx="3" dy="7" input="SourceAlpha"/>
      <feGaussianBlur stdDeviation="3.5" result="blur"/>
      <feFlood flood-color="#1a1818" flood-opacity="0.549"/>
      <feComposite operator="in" in2="blur"/>
      <feComposite in="SourceGraphic"/>
    </filter>
    <filter id="Path_27617" x="189.659" y="65.616" width="291.988" height="71.995" filterUnits="userSpaceOnUse">
      <feOffset dy="5" input="SourceAlpha"/>
      <feGaussianBlur stdDeviation="3" result="blur-2"/>
      <feFlood flood-opacity="0.161"/>
      <feComposite operator="in" in2="blur-2"/>
      <feComposite in="SourceGraphic"/>
    </filter>
    <clipPath id="clip-path">
      <path id="Path_29840" data-name="Path 29840" d="M252.31,210.525a18.18,18.18,0,0,0,3.264,6.267c2.007,2.056-.539-5.4-.539-5.4S253.762,209.856,252.31,210.525Z" transform="translate(-252.31 -210.356)" fill="none"/>
    </clipPath>
    <clipPath id="clip-Offered_web_cdt">
      <rect width="670" height="570"/>
    </clipPath>
  </defs>
  <g id="Offered_web_cdt" data-name="Offered web cdt" clip-path="url(#clip-Offered_web_cdt)">
    <rect width="670" height="570" fill="#fff"/>
    <g id="Group_19266" data-name="Group 19266" transform="translate(-85 -83.675)">
      <g id="Group_19263" data-name="Group 19263" transform="translate(170 236.185)">
        <g id="Group_19199" data-name="Group 19199" transform="translate(282.465 43.998)">
          <path id="Path_29875" data-name="Path 29875" d="M384.464,173.6s2,6.189-3.132,9.705c0,0-2.916.781-1.261,2.727,0,0,2.262,1.185,2.222,2.5,0,0,8.052,10.407,6.966,13.912,0,0-1.661,3.628,3.934,9.986,0,0,11.135-7.031,11.376-11.911l.7-6.544,3.3-11.018-10-9.358Z" transform="translate(-379.562 -158.342)" fill="#eb9672"/>
          <g id="Group_19198" data-name="Group 19198" transform="translate(0.22)">
            <path id="Path_29876" data-name="Path 29876" d="M384.655,154.278s-6.844,4.31-4.212,10.364c0,0,.081,4.607,7.214,4.87s10.631,0,11.711,8.028c0,0-3.113,14.872-10.755,9.871,0,0-.944-.887-2.156-1.857-1.793-1.436-4.174-3.053-4.96-2.252a3.711,3.711,0,0,0-.132,3.112,15.641,15.641,0,0,1,.263,3.905s-1.17,4.209,1.159,5.256c0,0,6.228,1.869,11.247-.417s5.216-3.424,5.388-9.3c0,0,.106-7.131,5.37-5.88,0,0,1.922,1.311.647,4.761,0,0-1.4,5.53-.63,7.886l.656-3.428,4.273-13.907s4.344-15.514-10.369-16.172C399.368,159.115,387.419,160.233,384.655,154.278Z" transform="translate(-379.841 -154.278)" fill="#2d3c46"/>
            <path id="Path_29877" data-name="Path 29877" d="M381.938,194.972s3.757.075,4.51,2.443C386.448,197.415,382.859,199.5,381.938,194.972Z" transform="translate(-380.282 -162.835)" fill="#eb9672"/>
          </g>
        </g>
        <g id="Group_19209" data-name="Group 19209" transform="translate(0 0)">
          <g id="Group_19201" data-name="Group 19201">
            <path id="Path_29879" data-name="Path 29879" d="M486.8,368.25c0,7.413-6.444,13.423-14.4,13.423H87.448c-7.959,0-14.408-6.01-14.408-13.423V111.987c0-7.413,6.449-13.422,14.408-13.422H472.395c7.959,0,14.4,6.008,14.4,13.422Z" transform="translate(-32.647 -98.565)" fill="url(#linear-gradient)"/>
            <rect id="Rectangle_12769" data-name="Rectangle 12769" width="370.709" height="239.237" transform="translate(61.918 20.022)" fill="url(#linear-gradient-2)"/>
            <path id="Path_29880" data-name="Path 29880" d="M472.395,98.565h-52q-.034,25.034-.315,50.072c-.323,24.938-.9,49.881-2.076,74.8-.82,17.361-.569,34.761-1.529,52.108-.82,14.775-1.962,32.493-11.36,45.063-10.252,13.7-32.1,19.683-48.96,19.718-8.8.024-235.107.671-283.11.5V368.25c0,7.413,6.449,13.423,14.408,13.423H472.395c7.959,0,14.4-6.01,14.4-13.423V111.987C486.8,104.573,480.354,98.565,472.395,98.565Z" transform="translate(-32.647 -98.565)" fill="#e3e7ea" style="mix-blend-mode: multiply;isolation: isolate"/>
            <g id="Group_19200" data-name="Group 19200" transform="translate(0 275.04)">
              <path id="Path_29881" data-name="Path 29881" d="M516.436,466.649a10.1,10.1,0,0,1-10.276,9.9H32.174a10.1,10.1,0,0,1-10.282-9.9v-9.907a10.1,10.1,0,0,1,10.282-9.907H506.16a10.1,10.1,0,0,1,10.276,9.907Z" transform="translate(-21.892 -446.834)" fill="#c3c8cf"/>
              <path id="Path_29882" data-name="Path 29882" d="M21.892,466.455v4.319a10.1,10.1,0,0,0,10.282,9.9H506.16a10.1,10.1,0,0,0,10.276-9.9v-4.319Z" transform="translate(-21.892 -450.96)" fill="#dee2e4" style="mix-blend-mode: multiply;isolation: isolate"/>
            </g>
          </g>
        </g>
      </g>
      <g id="Group_19265" data-name="Group 19265" transform="translate(283.659 123)">
        <g id="Layer_14" data-name="Layer 14" transform="translate(0 0)">
          <path id="Path_27541" data-name="Path 27541" d="M95.15,59.34h2.309v.776H95.15Z" transform="translate(-51.3 -4.126)" fill="#9e9d9e"/>
          <g id="Group_18518" data-name="Group 18518" transform="translate(0 0)">
            <g transform="matrix(1, 0, 0, 1, -198.66, -39.32)" filter="url(#Rectangle_12451)">
              <rect id="Rectangle_12451-2" data-name="Rectangle 12451" width="243.688" height="301.204" transform="translate(213.71 39.32)" fill="url(#linear-gradient-3)"/>
            </g>
            <rect id="Rectangle_12452" data-name="Rectangle 12452" width="243.688" height="19.89" transform="translate(15.051)" fill="#085b93"/>
            <rect id="Rectangle_12453" data-name="Rectangle 12453" width="229.328" height="42.895" transform="translate(21.453 95.39)" fill="#fff"/>
            <rect id="Rectangle_12454" data-name="Rectangle 12454" width="229.328" height="42.895" transform="translate(21.453 145.875)" fill="#fff"/>
            <rect id="Rectangle_12455" data-name="Rectangle 12455" width="229.328" height="42.895" transform="translate(21.453 196.349)" fill="#fff"/>
            <rect id="Rectangle_12456" data-name="Rectangle 12456" width="229.328" height="42.895" transform="translate(21.453 246.736)" fill="#fff"/>
            <g transform="matrix(1, 0, 0, 1, -198.66, -39.32)" filter="url(#Path_27617)">
              <path id="Path_27617-2" data-name="Path 27617" d="M0,0H273.988V54H0Z" transform="translate(198.66 69.62)" fill="#fff"/>
            </g>
            <g id="Group_18502" data-name="Group 18502" transform="translate(21.605 40.806)">
              <g id="Group_18501" data-name="Group 18501" transform="translate(0 0)">
                <rect id="Rectangle_12458" data-name="Rectangle 12458" width="105.249" height="2.193" transform="translate(53.021 11.204)" fill="#d3d6db"/>
                <rect id="Rectangle_12459" data-name="Rectangle 12459" width="41.271" height="2.295" transform="translate(53.021 16.181)" fill="#d3d6db"/>
                <rect id="Rectangle_12460" data-name="Rectangle 12460" width="30.806" height="2.295" transform="translate(53.021 20.908)" fill="#d3d6db"/>
                <path id="Path_27618" data-name="Path 27618" d="M7.55,0H35.244a7.55,7.55,0,0,1,7.55,7.55V18.517a7.55,7.55,0,0,1-7.55,7.55H7.55A7.55,7.55,0,0,1,0,18.517V7.55A7.55,7.55,0,0,1,7.55,0Z" transform="translate(0 0)" fill="#dedede"/>
                <path id="Path_27542" data-name="Path 27542" d="M101.805,60.781H99.362v.432a.432.432,0,0,1-.432.432H95.442a.432.432,0,0,1-.432-.432v-.432H92.567a1.3,1.3,0,0,1-1.239-.9L89.76,55.19V64.7A1.3,1.3,0,0,0,91.067,66h12.238a1.3,1.3,0,0,0,1.307-1.3V55.19l-1.568,4.693a1.3,1.3,0,0,1-1.239.9Z" transform="translate(-75.783 -46.44)" fill="#9e9d9e"/>
              </g>
              <path id="Path_27543" data-name="Path 27543" d="M98.84,53.22H95.352a1.307,1.307,0,0,0-1.307,1.3v.443H90.42l1.636,4.92a.432.432,0,0,0,.42.3H94.92v-.386a.432.432,0,0,1,.432-.432H98.84a.432.432,0,0,1,.432.432v.432h2.443a.432.432,0,0,0,.42-.3L103.772,55h-3.6v-.443A1.307,1.307,0,0,0,98.84,53.22Zm-3.92,1.739v-.443a.432.432,0,0,1,.432-.432H98.84a.432.432,0,0,1,.432.432v.443Z" transform="translate(-75.693 -46.709)" fill="#9e9d9e"/>
            </g>
          </g>
        </g>
      </g>
      <g id="Group_19264" data-name="Group 19264" transform="translate(524.307 274.546)">
        <path id="Path_29802" data-name="Path 29802" d="M229.013,201.326a1.632,1.632,0,0,1-.947-1.355l-.326-7.752a1.517,1.517,0,0,1,.555-1.273,1.632,1.632,0,0,1,1.355-.31,4.9,4.9,0,0,0,3.77-.751,4.325,4.325,0,0,0,1.942-2.856,4.472,4.472,0,0,0-.93-3.346,4.9,4.9,0,0,0-3.264-1.991,5.826,5.826,0,0,0-5.924,4.211,1.632,1.632,0,0,1-3-.816,8.976,8.976,0,0,1,9.286-6.528,8.16,8.16,0,0,1,5.418,3.264,7.638,7.638,0,0,1,1.534,5.745,7.507,7.507,0,0,1-3.264,4.9,8.16,8.16,0,0,1-4.227,1.371l.261,5.973a1.623,1.623,0,0,1-2.236,1.518Z" transform="translate(-202.257 -162.598)" fill="#e7515b"/>
        <path id="Path_29803" data-name="Path 29803" d="M228.777,194.9a1.278,1.278,0,1,1-1.355-1.175,1.257,1.257,0,0,1,1.355,1.175Z" transform="translate(-199.736 -153.002)" fill="#e7515b"/>
        <path id="Path_29804" data-name="Path 29804" d="M210,196.344a2.557,2.557,0,0,0,.082-.506,14.377,14.377,0,0,1,.163-1.485,16.816,16.816,0,0,1,.392-2.4c.114-.473.18-1,.343-1.518l.522-1.632a28.789,28.789,0,0,1,4.145-7.964,27.876,27.876,0,0,1,8.78-7.638,28.754,28.754,0,0,1,6.185-2.546,27.464,27.464,0,0,1,7.132-.93,26.942,26.942,0,0,1,3.786.228,11.172,11.172,0,0,1,1.909.343,12.714,12.714,0,0,1,1.926.457,26.877,26.877,0,0,1,7.475,3.378A28.087,28.087,0,0,1,263.876,188a28.479,28.479,0,0,1-.114,19.323l-.375.963v.229c2.105,4.9,4.145,9.564,6.136,14.15l.359-.408-12.55-4.847h-.163l-.114.114a27.536,27.536,0,0,1-34.354,3.329,28.741,28.741,0,0,1-7.034-6.528,29.752,29.752,0,0,1-3.852-6.985,30.6,30.6,0,0,1-1.5-5.81c-.1-.816-.18-1.55-.261-2.171a10.844,10.844,0,0,1,0-1.632v-1.322a1.093,1.093,0,0,0,0,.343q0,.367,0,.979v1.632c0,.636.131,1.371.212,2.187a27.744,27.744,0,0,0,5.255,13.056,28.922,28.922,0,0,0,7.1,6.708,27.547,27.547,0,0,0,34.713-3.427h-.277l12.5,4.9.636.245-.277-.637-6.055-14.166v.245l.392-.979a27.516,27.516,0,0,0,1.779-10.021,28.086,28.086,0,0,0-1.632-9.792,28.446,28.446,0,0,0-11.277-14.117,27.142,27.142,0,0,0-7.622-3.427,13.63,13.63,0,0,0-1.958-.457c-.653-.114-1.289-.294-1.942-.343a25.638,25.638,0,0,0-3.852-.212,27.969,27.969,0,0,0-26.455,19.486q-.277.914-.49,1.714a15.276,15.276,0,0,0-.326,1.534,16.076,16.076,0,0,0-.343,2.415,13.87,13.87,0,0,1-.114,1.5,2.94,2.94,0,0,0-.016.571Z" transform="translate(-209.996 -168.551)" fill="#898989"/>
        <path id="Path_29805" data-name="Path 29805" d="M271.77,221.6c.261-4.9,3.835-2.269-.571-7.458a4.9,4.9,0,0,0-3.1-1.632c-1.86-.228-4.684-.832-5.957-2.415A6.845,6.845,0,0,1,261.1,208.2a4.7,4.7,0,0,0-4.129-3.264c-1.909-.114-3.917-.816-4.227-3.264a4.684,4.684,0,0,1,1.338-3.8c3.133-3.264,12.371-11.1,24.121-5.108,0,0,16.4,8.16,14.3,26.112a4.9,4.9,0,0,0,.392,2.66,5.843,5.843,0,0,0,5.173,3.721,5.027,5.027,0,0,1,3.036,1.191c2.252,1.828,5.288,5.728,2.187,12.061a4.493,4.493,0,0,0-.392,1.11c-.359,1.55-.849,5.353,2.317,6.691a4.994,4.994,0,0,1,2.236,1.91,25.459,25.459,0,0,1,1.24,25.884c-.082.131-.147.261-.245.392s-13.807,12.436-20.5-7.23c0,0-1.045-4.782-.261-6.985,0,0,1.632-3.688-4.749-6.92a26.879,26.879,0,0,1-9.678-17.4A64.987,64.987,0,0,1,271.77,221.6Z" transform="translate(-182.997 -154.994)" fill="#3c4d57"/>
        <path id="Path_29806" data-name="Path 29806" d="M278.4,217.3l.62-11.9-12.338-6.952-14.427,2.938s3.754,6.251-.539,11.049c0,0-2.742,1.5-.6,3.052,0,0,2.562.637,2.856,1.975" transform="translate(-184.522 -150.011)" fill="#efa986"/>
        <path id="Path_29807" data-name="Path 29807" d="M272.828,192.407c-3.835-1.273-17.952-3.672-20.857,14.28a39.8,39.8,0,0,0-.506,4.635c-.7,15.325,8.421,24.921,16.647,21.69,9.009-3.542,14.411-16.01,14.786-25.46S277.675,194.023,272.828,192.407Z" transform="translate(-183.81 -154.381)" fill="#efa986"/>
        <path id="Path_29808" data-name="Path 29808" d="M251.754,206.682s-.947-15.308,14.264-16.108S285.6,202.243,284.46,211.4a22.327,22.327,0,0,1-7.3,14.084s.408-7.393-2.579-9.27-14.884-5.484-20.2-14.3a13.611,13.611,0,0,0-2.628,4.765Z" transform="translate(-183.611 -155.012)" fill="#3c4d57"/>
        <path id="Path_29809" data-name="Path 29809" d="M266.067,271.23s1.844,13.5-9.792,21.38c0,0-2.073,11.718,6.528,17.022" transform="translate(-180.885 -104.013)" fill="none" stroke="#fafdff" stroke-miterlimit="10" stroke-width="0.75"/>
        <path id="Path_29810" data-name="Path 29810" d="M241.577,282.78a8.474,8.474,0,0,0-1.812,2.464,13.875,13.875,0,0,1-2.171,2.921,34.277,34.277,0,0,0-3.052,4.994,25.8,25.8,0,0,1-.294,3.754c-.343.751-1.224,2.171-.555,2.448s1.811-.8,1.811-.8a1,1,0,0,0,.245,1.11,1.746,1.746,0,0,0,1.73.473s.2.881.7,1.126a2.285,2.285,0,0,0,1.812.179,2.024,2.024,0,0,0,1.191.735,1.877,1.877,0,0,0,1.73-.555s1.224.571,1.779,0a6.384,6.384,0,0,0,1-1.632,21.967,21.967,0,0,0,.947-9.547,8.65,8.65,0,0,1,2.464-7.018Z" transform="translate(-195.172 -96.713)" fill="#e39c7d"/>
        <path id="Path_29811" data-name="Path 29811" d="M264.467,222.56s3.264,0,4.749,9.988-1.273,14.084-1.632,18.23-5.173,30.845-5.3,32.02-.783,15.39-2.676,19.16-15.8,25.149-15.977,26.227S237,324.463,237,324.463s10.918-22.848,11.555-25.476S253.581,283.059,252.9,279s1.942-26.5,1.632-29S258.1,224.078,264.467,222.56Z" transform="translate(-192.928 -134.773)" fill="#d9af98"/>
        <path id="Path_29812" data-name="Path 29812" d="M264.808,222.56s3.264,0,4.749,9.988a40.8,40.8,0,0,1-.718,17.822c-.816,4.064-3.574,28.952-3.7,30.127s-3.427,16.19-5.141,21.461c-1.306,4.015-13.709,25.019-13.888,26.112s-9.645-4.9-9.645-4.9,11.163-23.795,11.8-26.406a106.762,106.762,0,0,0,2.3-15.569c.082-4.9,3.264-29.376,3.052-31.792S255.538,225.971,264.808,222.56Z" transform="translate(-193.27 -134.773)" fill="#6b5e9a"/>
        <path id="Path_29813" data-name="Path 29813" d="M276.261,364.64s-5.794,8.6-8.16,10.673c0,0-5.369,1.877-5.712,5.533-.212,2.383,0,6.218,6.12,6.381s10.069-1.958,11.2-5.679a11.26,11.26,0,0,1,3.264-5.37v7.769h1.371s.359-7.507.441-8.895,1-6.691-1.926-9.041A8.046,8.046,0,0,0,276.261,364.64Z" transform="translate(-176.913 -45.106)" fill="#364454"/>
        <path id="Path_29814" data-name="Path 29814" d="M254.19,361.085a24.912,24.912,0,0,1-2.9,4.9c-1.387,1.812-5.7,9.237-7.589,9.792s-7.785,1.55-8.291,4.9-.783,5.614,4.994,5.875,9.6.6,12.354-3.46a30.432,30.432,0,0,1,7.165-6.985v10.526h2.252s1.045-11.033,1.632-11.8,2.154-9.254-3.264-13.66S254.19,361.085,254.19,361.085Z" transform="translate(-194.092 -48.422)" fill="#364454"/>
        <path id="Path_29815" data-name="Path 29815" d="M281.978,264.107a54.1,54.1,0,0,1,9.286,20.776c1.991,11.277-1.159,49.108-1.077,54.673s5.271,19.437,4.227,29.931-9.694,61.87-9.694,61.87l-6.626-1.371s.653-53.253,0-57.643-1.942-20.466-2.2-22.277-16.451-49.45-16.451-57.578S264.352,250.855,281.978,264.107Z" transform="translate(-178.746 -110.452)" fill="#e39c7d"/>
        <path id="Path_29816" data-name="Path 29816" d="M257.314,266.12s-12.012,45.811-13.432,52.225-3.492,11.587-3.492,14.28a94.5,94.5,0,0,0,2.317,16.32l8.16,72.543h6.43s4.064-42.433,4.7-50.9-4.668-21.771-3.362-25.394,20.857-45.484,20.857-45.484S294.328,252.819,257.314,266.12Z" transform="translate(-190.786 -108.744)" fill="#e39c7d"/>
        <path id="Path_29817" data-name="Path 29817" d="M265.29,375.674a9.548,9.548,0,0,0,9.613-.832,18.768,18.768,0,0,0,6.12-8.911L274.4,364.56Z" transform="translate(-175.049 -45.026)" fill="#efa986"/>
        <path id="Path_29818" data-name="Path 29818" d="M240.39,375.4s5.173,1.289,7.164,0,8.731-12.713,10.967-13.4c0,0-2.154-4.39-7.638-1.208C250.884,360.8,241.859,373.512,240.39,375.4Z" transform="translate(-190.786 -48.135)" fill="#efa986"/>
        <path id="Path_29819" data-name="Path 29819" d="M241.34,323.353s22.065,13.056,63.4,13.056c0,0,2.35-47.965-3.656-61.445s-45.925-5.108-45.925-5.108S242.76,313.43,241.34,323.353Z" transform="translate(-190.185 -106.506)" fill="#585f61"/>
        <path id="Path_29820" data-name="Path 29820" d="M268.18,220.511a69.055,69.055,0,0,1-8.634,3.476c-2.236.441-10.869,11.669-12.387,15.765s0,10.233,3.117,17.446.18,9.613,1.632,16.826a167.407,167.407,0,0,1,2.415,26.5c-.277,4,36.019,4.749,44.293-2.546,0,0-8.323-12.469-9.384-14.248s-.18-11.424.8-13.986,7.458-23.73,7.458-23.73,5.337-16.32.522-20.025c-4.194-3.264-15.6-4.406-17.642-5.125A35.368,35.368,0,0,0,268.18,220.511Z" transform="translate(-186.882 -136.299)" fill="#e1d8d6"/>
        <path id="Path_29821" data-name="Path 29821" d="M260.054,235.551l-3.884-4.57,3.378-12.012A78.629,78.629,0,0,1,260.054,235.551Z" transform="translate(-180.813 -137.042)" fill="#cdc6c6"/>
        <path id="Path_29822" data-name="Path 29822" d="M257.93,219.241a149.728,149.728,0,0,1,1.012,15.586s6.675,6.675,14.247-7.8a19.861,19.861,0,0,1-.783-14.084C274.805,204.814,257.93,219.241,257.93,219.241Z" transform="translate(-179.7 -142.422)" fill="#efa986"/>
        <path id="Path_29823" data-name="Path 29823" d="M258.55,225.39v6.1l7.671-5.728Z" transform="translate(-179.308 -132.985)" fill="#d9af98"/>
        <path id="Path_29824" data-name="Path 29824" d="M258.55,234.8l3.2-3.949,10.722-10.69,3.46,3.346Z" transform="translate(-179.308 -136.29)" fill="#cdc6c6"/>
        <path id="Path_29825" data-name="Path 29825" d="M271.666,220.79s-9.009,13.66-9.433,19.666,3.346,50.984,6.365,65.428,24.872-1.632,24.872-1.632-14.688-23.746-9.041-42.775,7.671-26.618,7.671-26.618-1.942-10.592-8.8-12.077C277.264,221.475,271.666,220.79,271.666,220.79Z" transform="translate(-177.002 -135.892)" fill="#6b5e9a"/>
        <path id="Path_29826" data-name="Path 29826" d="M246.643,240.589s-1.632,5.745,4.7,18.442c0,0-.1,16.32-.277,21.331s-1.387,24.268-1.387,24.268l6.251,3.656a1.779,1.779,0,0,0,2.66-1.73c-1.779-14.607-7.54-70.014,4.9-84.865l-5.01,1.469S249.63,230.356,246.643,240.589Z" transform="translate(-186.953 -135.323)" fill="#6b5e9a"/>
        <path id="Path_29827" data-name="Path 29827" d="M258.072,230.982l-4.912,1.355,8.291-13.366Z" transform="translate(-182.715 -137.042)" fill="#ece3df"/>
        <path id="Path_29828" data-name="Path 29828" d="M260.51,230.85l4.472,5.875,9.2-15.341-2.954-1.224Z" transform="translate(-178.07 -136.29)" fill="#ece3df"/>
        <path id="Path_29829" data-name="Path 29829" d="M258.1,219.392l.212,2.366s5.3.979,12.224-7.458C270.536,214.3,265.624,220.339,258.1,219.392Z" transform="translate(-179.593 -139.994)" fill="#c17e61"/>
        <path id="Path_29830" data-name="Path 29830" d="M270.939,230.16c-1.028-.93-5.353,2.53-6.414,3.085s-.147-3.492-.31-5.206.343-10.967-.2-11.669-1.208-.751-1.289.294-.506,7.524-.653,9.955H261.9c-.408-3-1.632-12.55-1.975-13.187s-1.387-.473-1.485,0,.571,9.613.8,12.811h-.082a115.345,115.345,0,0,0-1.975-11.914.865.865,0,0,0-1.453.7c0,.767.636,8.6.849,11.522h-.131c-.49-2.383-1.632-8.013-2.219-8.16s-1.436-.212-.914,2.089,1.208,7.9,1.208,7.9h0a.471.471,0,0,0,0,.163c-.375,3.639,1.632,7.785,1.42,8.4a26.129,26.129,0,0,0-.375,2.644l6.153,1.534s.375-3.688,2.366-4.39a11.8,11.8,0,0,0,4-3.264C268.8,232.771,271.967,231.091,270.939,230.16Z" transform="translate(-182.721 -140.807)" fill="#e39c7d"/>
        <path id="Path_29831" data-name="Path 29831" d="M248.553,242.62s-.31,20.286.93,30.062l.555-26.879Z" transform="translate(-185.648 -122.095)" fill="#443d75"/>
        <path id="Path_29832" data-name="Path 29832" d="M234.724,294.362s1.159-4.5,2.611-5.19,1.126.979,1.126.979.294-1.632,1.632-1.551.865,2.007.865,2.007a1.338,1.338,0,0,1,1.828-.6c1.289.571.522,2.073.522,2.073s1.73-1.24,2.138.457a7.148,7.148,0,0,1-1.42,5.516,1.632,1.632,0,0,1-1.86,0,1.893,1.893,0,0,1-2.954-.179s-2.3.62-2.53-1.289C236.7,296.549,234.038,296.957,234.724,294.362Z" transform="translate(-194.438 -93.036)" fill="#efa986"/>
        <path id="Path_29833" data-name="Path 29833" d="M263.975,262.134l10.2-16.434s-8.682,10.249-9.6,11.424L263.6,258.3S263.861,261.579,263.975,262.134Z" transform="translate(-176.117 -120.148)" fill="#443d75"/>
        <path id="Path_29834" data-name="Path 29834" d="M265.257,276.854l5.761-4.749c5.043-6.708,23.028-26.39,23.028-26.39s11.653-17.952-3.068-23.305c0,0-2.448.408-6.185,4.423a50.779,50.779,0,0,0-7.817,11.767c-.979,2.138-14.2,20.286-14.917,20.743l-.261-24.089-7.687-1.877L253,275.467S257.26,283.562,265.257,276.854Z" transform="translate(-182.816 -134.868)" fill="#6b5e9a"/>
        <path id="Path_29835" data-name="Path 29835" d="M266.784,207.759a2.35,2.35,0,0,1,3.476-1.012c1.061.816,1.632,3.264,0,6.332S262.59,218.367,266.784,207.759Z" transform="translate(-175.025 -145.024)" fill="#efa986"/>
        <path id="Path_29836" data-name="Path 29836" d="M264.485,331.785s18.246,2.709,28.136,2.154c0,0,1.844-47.214-2.628-58.557,0,0-14.215,9.662-19.16,1.812a11.588,11.588,0,0,1-1.746-6.1l-8.438.228Z" transform="translate(-177.981 -104.101)" fill="#636b6e"/>
        <path id="Path_29837" data-name="Path 29837" d="M265.323,265.25s4.227,21.494,13.578,17.283C278.9,282.533,264.915,293.582,265.323,265.25Z" transform="translate(-175.033 -107.792)" fill="#443d75"/>
        <path id="Path_29838" data-name="Path 29838" d="M248.88,266.16a154.149,154.149,0,0,1-12.42,29.376l2.9,1.779S250.4,281.664,248.88,266.16Z" transform="translate(-193.27 -107.217)" fill="#443d75"/>
        <path id="Path_29839" data-name="Path 29839" d="M250.095,263.05l-1.665,15.439,3.052,1.779Z" transform="translate(-185.704 -109.183)" fill="#443d75"/>
        <g id="Group_19168" data-name="Group 19168" transform="translate(69.058 67.87)" clip-path="url(#clip-path)">
          <ellipse id="Ellipse_1649" data-name="Ellipse 1649" cx="1.126" cy="2.97" rx="1.126" ry="2.97" transform="translate(-0.745 0.942) rotate(-24.38)" fill="#4c4c4d"/>
        </g>
        <path id="Path_29841" data-name="Path 29841" d="M277.534,192.6c-.13,0,1.159-5.4,2.9-11.979s3.264-11.881,3.427-11.848-1.159,5.4-2.905,11.979S277.68,192.63,277.534,192.6Z" transform="translate(-167.316 -168.77)" fill="#898989"/>
        <path id="Path_29842" data-name="Path 29842" d="M310.61,175.491c.082.114-6.349,4.7-14.362,10.249s-14.59,9.939-14.688,9.792,6.349-4.716,14.362-10.265S310.512,175.361,310.61,175.491Z" transform="translate(-164.766 -164.524)" fill="#898989"/>
        <path id="Path_29843" data-name="Path 29843" d="M309.37,196.348c0,.147-5.353-.506-11.9-1.469s-11.848-1.844-11.832-1.991,5.353.522,11.9,1.469S309.386,196.2,309.37,196.348Z" transform="translate(-162.187 -153.54)" fill="#898989"/>
      </g>
    </g>
  </g>
</svg>
