<svg xmlns="http://www.w3.org/2000/svg" xmlns:xlink="http://www.w3.org/1999/xlink" width="670" height="570" viewBox="0 0 670 570">
  <defs>
    <linearGradient id="linear-gradient" y1="0.501" x2="0.998" y2="0.501" gradientUnits="objectBoundingBox">
      <stop offset="0" stop-color="#f89e59"/>
      <stop offset="1" stop-color="#ffd356"/>
    </linearGradient>
    <linearGradient id="linear-gradient-2" x1="0.044" y1="1.107" x2="0.623" y2="0.332" gradientUnits="objectBoundingBox">
      <stop offset="0" stop-color="#f9a059"/>
      <stop offset="1" stop-color="#f9a059"/>
    </linearGradient>
    <linearGradient id="linear-gradient-3" x1="-0.409" y1="1.01" x2="0.816" y2="0.281" gradientUnits="objectBoundingBox">
      <stop offset="0.01" stop-color="#e6e6e5"/>
      <stop offset="1" stop-color="#fedbc2"/>
    </linearGradient>
    <linearGradient id="linear-gradient-4" x1="-0.41" y1="1.01" x2="0.818" y2="0.281" xlink:href="#linear-gradient-3"/>
    <linearGradient id="linear-gradient-5" x1="-0.413" y1="1.01" x2="0.819" y2="0.281" xlink:href="#linear-gradient-3"/>
    <filter id="Path_29892" x="223.464" y="36" width="227.223" height="94.751" filterUnits="userSpaceOnUse">
      <feOffset dy="5" input="SourceAlpha"/>
      <feGaussianBlur stdDeviation="3" result="blur"/>
      <feFlood flood-opacity="0.161"/>
      <feComposite operator="in" in2="blur"/>
      <feComposite in="SourceGraphic"/>
    </filter>
    <filter id="Path_29892-2" x="76" y="168.34" width="184.37" height="79.031" filterUnits="userSpaceOnUse">
      <feOffset dy="5" input="SourceAlpha"/>
      <feGaussianBlur stdDeviation="3" result="blur-2"/>
      <feFlood flood-opacity="0.161"/>
      <feComposite operator="in" in2="blur-2"/>
      <feComposite in="SourceGraphic"/>
    </filter>
    <filter id="Path_29892-3" x="410.63" y="168.34" width="184.37" height="79.031" filterUnits="userSpaceOnUse">
      <feOffset dy="5" input="SourceAlpha"/>
      <feGaussianBlur stdDeviation="3" result="blur-3"/>
      <feFlood flood-opacity="0.161"/>
      <feComposite operator="in" in2="blur-3"/>
      <feComposite in="SourceGraphic"/>
    </filter>
    <clipPath id="clip-Shortlisted_Interview_web_cdt_">
      <rect width="670" height="570"/>
    </clipPath>
  </defs>
  <g id="Shortlisted_Interview_web_cdt_" data-name="Shortlisted/ Interview web  cdt " clip-path="url(#clip-Shortlisted_Interview_web_cdt_)">
    <rect width="670" height="570" fill="#fff"/>
    <g id="Group_19307" data-name="Group 19307" transform="translate(38 -111)">
      <g id="Group_19192" data-name="Group 19192" transform="translate(116.252 334.052)">
        <g id="CANDIDATE_ALL_IN_ONE-34" data-name="CANDIDATE ALL IN ONE-34">
          <g id="Layer_22" data-name="Layer 22" transform="translate(0)">
            <path id="Path_29636" data-name="Path 29636" d="M455.444,311.943c-1.539-1.02-3.652-.779-5.116-.417l.538-3.846H430.41l3.272,23.467h13.9l.306-2.2.287-2.113a8.183,8.183,0,0,0,5.561-2.169,12.048,12.048,0,0,0,3.485-8.953A4.226,4.226,0,0,0,455.444,311.943ZM452.2,323.065a6,6,0,0,1-3.707,1.576l1.492-10.677c1.084-.371,3.16-.862,4.208-.158.185.12.751.5.751,1.956a9.825,9.825,0,0,1-2.743,7.294Z" transform="translate(-158.228 -203.866)" fill="url(#linear-gradient)"/>
            <g id="Group_19157" data-name="Group 19157" transform="translate(272.238 103.777)">
              <path id="Path_29637" data-name="Path 29637" d="M447.644,331.144h-13.9l-3.272-23.5H438S435.234,328.892,447.644,331.144Z" transform="translate(-430.47 -307.64)" fill="url(#linear-gradient-2)"/>
            </g>
            <path id="Path_29638" data-name="Path 29638" d="M440.318,290.23s-4.3,1.437-2.706,5.255,4.338,6.228,1.752,10.918c0,0,4.782-2.873,2.549-7.656S438.326,292.621,440.318,290.23Z" transform="translate(-158.729 -202.589)" fill="url(#linear-gradient-3)"/>
            <path id="Path_29639" data-name="Path 29639" d="M447.042,294.88s-3.16,1.047-1.993,3.856,3.179,4.569,1.288,8.008c0,0,3.5-2.1,1.854-5.607S445.578,296.632,447.042,294.88Z" transform="translate(-159.28 -202.929)" fill="url(#linear-gradient-4)"/>
            <path id="Path_29640" data-name="Path 29640" d="M434.663,294.88s-3.151,1.047-1.983,3.856,3.179,4.569,1.279,8.008c0,0,3.513-2.1,1.854-5.607S433.2,296.632,434.663,294.88Z" transform="translate(-158.375 -202.929)" fill="url(#linear-gradient-5)"/>
            <path id="Path_29641" data-name="Path 29641" d="M313.389,348.359,308.236,396.9l-2,21.447-1.464,48.649s-6.136,2.234-3.985-14.208l2.558-62.357,2.836-21.8,5.274-19.352,1.937-.927" transform="translate(-148.71 -206.842)" fill="#dae3f3"/>
            <path id="Path_29642" data-name="Path 29642" d="M321.4,381.76l-1.26,2.354L340.2,394.8l9.75,24.246,2.475-.992L342.31,392.91Z" transform="translate(-150.159 -209.286)" fill="#181616"/>
            <rect id="Rectangle_12734" data-name="Rectangle 12734" width="13.773" height="50.336" transform="translate(156.736 118.282)" fill="#6f767b"/>
            <rect id="Rectangle_12735" data-name="Rectangle 12735" width="13.773" height="28.38" transform="translate(156.736 140.239)" fill="#1a1a29"/>
            <rect id="Rectangle_12736" data-name="Rectangle 12736" width="6.886" height="50.336" transform="translate(163.623 118.282)" fill="#b1b8c2"/>
            <rect id="Rectangle_12737" data-name="Rectangle 12737" width="19.908" height="25.173" rx="4.22" transform="translate(153.668 143.446)" fill="#fff" opacity="0.3"/>
            <path id="Path_29643" data-name="Path 29643" d="M319.162,350.44H317.8v25.173h5.746v-20.77a4.4,4.4,0,0,0-4.384-4.4Z" transform="translate(-149.988 -206.995)" fill="#6f767b"/>
            <rect id="Rectangle_12738" data-name="Rectangle 12738" width="10.14" height="53.358" transform="translate(160.369 165.949)" fill="#6f767b"/>
            <rect id="Rectangle_12739" data-name="Rectangle 12739" width="4.745" height="53.358" transform="translate(160.369 165.949)" fill="#fff" opacity="0.3"/>
            <rect id="Rectangle_12740" data-name="Rectangle 12740" width="10.14" height="15.209" transform="translate(160.369 165.949)" fill="#6f767b"/>
            <path id="Path_29644" data-name="Path 29644" d="M363.054,223.679C361.589,207.821,347.9,195.67,331.5,195.67H289.3c-16.433,0-30.131,12.188-31.568,28.074l-7.007,77.891c-1.335,14.737,10.64,27.406,25.877,27.406h67.77c15.265,0,27.24-12.707,25.877-27.462Z" transform="translate(-145.073 -195.67)" fill="#ffd37b"/>
            <path id="Path_29645" data-name="Path 29645" d="M363.115,223.861a30.863,30.863,0,0,0-19.463-25.7,29.927,29.927,0,0,1,1.715,7.6l7.192,77.937c1.362,14.755-10.612,27.462-25.877,27.462H258.875a26.822,26.822,0,0,1-7.415-1.047,25.849,25.849,0,0,0,25.219,19.139h67.77c15.265,0,27.24-12.707,25.877-27.462Z" transform="translate(-145.134 -195.852)" fill="#fdba29"/>
            <rect id="Rectangle_12741" data-name="Rectangle 12741" width="8.24" height="48.918" transform="matrix(0.972, -0.237, 0.237, 0.972, 100.336, 116.943)" fill="#f6cd87"/>
            <rect id="Rectangle_12742" data-name="Rectangle 12742" width="3.791" height="48.918" transform="matrix(0.972, -0.237, 0.237, 0.972, 100.337, 116.932)" fill="#2d2b40"/>
            <rect id="Rectangle_12743" data-name="Rectangle 12743" width="48.918" height="8.24" transform="matrix(0.237, -0.972, 0.972, 0.237, 210.957, 162.488)" fill="#f6cd87"/>
            <rect id="Rectangle_12744" data-name="Rectangle 12744" width="48.918" height="4.115" transform="matrix(0.237, -0.972, 0.972, 0.237, 210.957, 162.498)" fill="#2d2b40"/>
            <path id="Path_29646" data-name="Path 29646" d="M358.047,363.5H263.028a12.3,12.3,0,0,0-12.308,12.308h0a8.5,8.5,0,0,0,8.5,8.5H361.856a8.5,8.5,0,0,0,8.5-8.5h0A12.3,12.3,0,0,0,358.047,363.5Z" transform="translate(-145.08 -207.95)" fill="#ffd37b"/>
            <path id="Path_29647" data-name="Path 29647" d="M361.853,373.306H259.179a8.49,8.49,0,0,1-6.757-3.346,12.187,12.187,0,0,0-1.742,6.321,8.5,8.5,0,0,0,8.5,8.5H361.853a8.5,8.5,0,0,0,8.5-8.5,12.188,12.188,0,0,0-1.742-6.321A8.49,8.49,0,0,1,361.853,373.306Z" transform="translate(-145.077 -208.423)" fill="#fdba29"/>
            <rect id="Rectangle_12745" data-name="Rectangle 12745" width="36.823" height="16.247" rx="8.06" transform="translate(87.762 107.568)" fill="#fdba29"/>
            <rect id="Rectangle_12746" data-name="Rectangle 12746" width="36.823" height="16.247" rx="8.06" transform="translate(206.303 107.568)" fill="#fdba29"/>
            <path id="Path_29648" data-name="Path 29648" d="M260.807,311.73h-1.5a7.349,7.349,0,0,1,.26,1.937v1.307a7.489,7.489,0,0,1-7.415,7.47H231.76a7.48,7.48,0,0,0,7.2,5.561h21.845a7.48,7.48,0,0,0,7.415-7.461v-1.316A7.48,7.48,0,0,0,260.807,311.73Z" transform="translate(-143.693 -204.162)" fill="#f6c772"/>
            <path id="Path_29649" data-name="Path 29649" d="M388.7,311.73h-1.5a7.351,7.351,0,0,1,.26,1.937v1.307a7.489,7.489,0,0,1-7.461,7.47H359.61a7.48,7.48,0,0,0,7.2,5.561H388.7a7.48,7.48,0,0,0,7.461-7.461v-1.316A7.48,7.48,0,0,0,388.7,311.73Z" transform="translate(-153.047 -204.162)" fill="#f6c772"/>
            <path id="Path_29650" data-name="Path 29650" d="M319.871,410.67H309.324a2.864,2.864,0,0,0-2.864,2.864v47.685h16.257V413.534A2.864,2.864,0,0,0,319.871,410.67Z" transform="translate(-149.158 -211.401)" fill="#fff" opacity="0.3"/>
            <path id="Path_29651" data-name="Path 29651" d="M320.464,410.67H316.33v50.549h7.109V413.664a2.994,2.994,0,0,0-2.975-2.994Z" transform="translate(-149.881 -211.401)" fill="#6f767b"/>
            <rect id="Rectangle_12747" data-name="Rectangle 12747" width="16.359" height="2.354" transform="translate(157.218 218.065)" fill="#141525"/>
            <path id="Path_29652" data-name="Path 29652" d="M310.463,414.06a1.613,1.613,0,0,0-1.6,1.6V426.34a1.6,1.6,0,0,0,3.2,0V415.663A1.6,1.6,0,0,0,310.463,414.06Z" transform="translate(-149.334 -211.649)" fill="#606076"/>
            <rect id="Rectangle_12748" data-name="Rectangle 12748" width="21.929" height="20.214" transform="translate(154.419 238.52)" fill="#1c1c2d"/>
            <path id="Path_29653" data-name="Path 29653" d="M302.4,457.065l-58.344,10.807a3.967,3.967,0,0,0-3.235,3.893v1.8a3.958,3.958,0,0,0,3.958,3.958h55.61a3.948,3.948,0,0,0,3.865-3.123l2.716-12.614a3.958,3.958,0,0,0-4.569-4.718Z" transform="translate(-144.355 -214.792)" fill="#6f767b"/>
            <path id="Path_29654" data-name="Path 29654" d="M302.4,457.065l-12.345,2.289c-1.131,1.77-2.187,3.318-3.114,4.634-2.558,3.624-3.9,5.116-5.867,6.4a21.369,21.369,0,0,1-5.468,2.4,51.353,51.353,0,0,1-8.8,1.854c-7.971,1.177-17.146,1.742-19.741,1.2a10.381,10.381,0,0,1-6.238-3.587v1.288a3.958,3.958,0,0,0,3.958,3.957h55.61a3.948,3.948,0,0,0,3.865-3.123l2.716-12.614a3.957,3.957,0,0,0-4.569-4.708Z" transform="translate(-144.356 -214.792)" fill="#b1b8c2"/>
            <path id="Path_29655" data-name="Path 29655" d="M244.29,468.7a1.223,1.223,0,0,0,1.409,1.251l54.915-10.306,1.854-3.068-57.2,10.872a1.261,1.261,0,0,0-.973,1.251Z" transform="translate(-144.609 -214.761)" fill="#606076"/>
            <path id="Path_29656" data-name="Path 29656" d="M309.987,461.954a5.617,5.617,0,0,0-9.027-3.976l-40.475,31.141a6.784,6.784,0,0,0-2.725,4.727c-.046,5.793,5.487,10.77,9.222,8.341l41.179-26.823a5.626,5.626,0,0,0,2.53-5.19Z" transform="translate(-145.595 -214.777)" fill="#6f767b"/>
            <path id="Path_29657" data-name="Path 29657" d="M307.24,453.808a.343.343,0,0,0-.491-.074L260.954,488.6a1.464,1.464,0,0,0-.408,1.854,1.418,1.418,0,0,0,2.122.482l45.739-35a.371.371,0,0,0,.065-.51Z" transform="translate(-145.786 -214.547)" fill="#606076"/>
            <circle id="Ellipse_1642" data-name="Ellipse 1642" cx="6.256" cy="6.256" r="6.256" transform="matrix(0.389, -0.921, 0.921, 0.389, 88.267, 269.877)" fill="#181616"/>
            <path id="Path_29658" data-name="Path 29658" d="M307.438,470.97c-7.118,7.961-31.253,24.1-37.527,27.045a7.331,7.331,0,0,1-3.92.7,7.136,7.136,0,0,1-5.329-3.559,6.914,6.914,0,0,1-.584-4.922,6.571,6.571,0,0,0-2.317,4.384c-.046,5.793,5.487,10.77,9.222,8.342l44-28.658-.593-6.886a38.063,38.063,0,0,1-2.947,3.55Z" transform="translate(-145.595 -215.554)" fill="#b1b8c2"/>
            <circle id="Ellipse_1643" data-name="Ellipse 1643" cx="3.207" cy="3.207" r="3.207" transform="translate(92.63 264.311) rotate(-13.2)" fill="#696666"/>
            <path id="Path_29659" data-name="Path 29659" d="M241.969,480.3a3.209,3.209,0,0,1-4.069,4.634,3.216,3.216,0,1,0,4.069-4.634Z" transform="translate(-144.142 -216.496)" fill="#383635"/>
            <circle id="Ellipse_1644" data-name="Ellipse 1644" cx="6.256" cy="6.256" r="6.256" transform="translate(111.006 285.343)" fill="#181616"/>
            <path id="Path_29660" data-name="Path 29660" d="M263.007,506.83a3.207,3.207,0,1,0,3.207,3.207,3.207,3.207,0,0,0-3.207-3.207Z" transform="translate(-145.744 -218.437)" fill="#696666"/>
            <path id="Path_29661" data-name="Path 29661" d="M264.4,507.15a3.216,3.216,0,0,1-2.706,4.94,3.149,3.149,0,0,1-1.353-.306,3.207,3.207,0,1,0,4.06-4.634Z" transform="translate(-145.784 -218.461)" fill="#383635"/>
            <path id="Path_29662" data-name="Path 29662" d="M380.725,467.871l-58.344-10.807a3.948,3.948,0,0,0-4.588,4.718L320.5,474.4a3.948,3.948,0,0,0,3.865,3.123h55.61a3.957,3.957,0,0,0,3.957-3.958v-1.8a3.967,3.967,0,0,0-3.206-3.893Z" transform="translate(-149.981 -214.791)" fill="#6f767b"/>
            <path id="Path_29663" data-name="Path 29663" d="M377.722,475.862c-2.6.537-11.771,0-19.741-1.2a51.365,51.365,0,0,1-8.8-1.854,21.375,21.375,0,0,1-5.468-2.4c-1.956-1.288-3.309-2.78-5.867-6.4-.927-1.316-1.974-2.864-3.114-4.634l-12.345-2.289a3.948,3.948,0,0,0-4.588,4.718l2.706,12.614a3.948,3.948,0,0,0,3.865,3.123h55.61a3.958,3.958,0,0,0,3.958-3.958v-1.288A10.381,10.381,0,0,1,377.722,475.862Z" transform="translate(-149.981 -214.792)" fill="#b1b8c2"/>
            <path id="Path_29664" data-name="Path 29664" d="M380.144,467.452l-57.2-10.872,1.854,3.068,54.924,10.3a1.223,1.223,0,0,0,1.409-1.251,1.261,1.261,0,0,0-.982-1.242Z" transform="translate(-150.364 -214.761)" fill="#606076"/>
            <path id="Path_29665" data-name="Path 29665" d="M365.345,489.119,324.87,457.978a5.617,5.617,0,0,0-9.027,3.976l-.7,8.212a5.617,5.617,0,0,0,2.54,5.19l41.17,26.823c3.707,2.438,9.268-2.539,9.222-8.341a6.784,6.784,0,0,0-2.725-4.718Z" transform="translate(-149.792 -214.777)" fill="#6f767b"/>
            <path id="Path_29666" data-name="Path 29666" d="M365.293,488.6l-45.822-34.867a.352.352,0,0,0-.5.074l-1.2,1.613a.371.371,0,0,0,.074.51l45.73,35a1.427,1.427,0,0,0,2.132-.482A1.473,1.473,0,0,0,365.293,488.6Z" transform="translate(-149.981 -214.547)" fill="#606076"/>
            <circle id="Ellipse_1645" data-name="Ellipse 1645" cx="6.256" cy="6.256" r="6.256" transform="translate(225.235 265.194) rotate(-35.78)" fill="#181616"/>
            <path id="Path_29667" data-name="Path 29667" d="M365.732,490.2a6.96,6.96,0,0,1-.575,4.921,7.164,7.164,0,0,1-5.339,3.559,7.264,7.264,0,0,1-3.911-.7c-6.284-2.929-30.419-19.083-37.537-27.045a38.046,38.046,0,0,1-2.947-3.559l-.593,6.886,44,28.658c3.707,2.438,9.268-2.539,9.222-8.341A6.571,6.571,0,0,0,365.732,490.2Z" transform="translate(-149.771 -215.55)" fill="#b1b8c2"/>
            <circle id="Ellipse_1646" data-name="Ellipse 1646" cx="3.207" cy="3.207" r="3.207" transform="translate(230.479 269.263) rotate(-83.28)" fill="#696666"/>
            <path id="Path_29668" data-name="Path 29668" d="M390.518,480.12a3.207,3.207,0,0,1-4.208,4.5,3.207,3.207,0,1,0,4.208-4.5Z" transform="translate(-155.001 -216.483)" fill="#383635"/>
            <circle id="Ellipse_1647" data-name="Ellipse 1647" cx="6.256" cy="6.256" r="6.256" transform="translate(205.419 287.389) rotate(-16.85)" fill="#181616"/>
            <path id="Path_29669" data-name="Path 29669" d="M366.507,506.83a3.207,3.207,0,1,0,3.207,3.207,3.207,3.207,0,0,0-3.207-3.207Z" transform="translate(-153.317 -218.437)" fill="#696666"/>
            <path id="Path_29670" data-name="Path 29670" d="M367.9,507.15a3.216,3.216,0,0,1-2.706,4.94,3.148,3.148,0,0,1-1.353-.306,3.207,3.207,0,1,0,4.06-4.634Z" transform="translate(-153.357 -218.461)" fill="#383635"/>
            <path id="Path_29671" data-name="Path 29671" d="M322.49,433.5h-16.34a2.78,2.78,0,0,0-2.781,2.781v20.01h21.9V436.3a2.78,2.78,0,0,0-2.78-2.8Z" transform="translate(-148.932 -213.072)" fill="#6f767b"/>
            <path id="Path_29672" data-name="Path 29672" d="M323.634,433.5H319v22.809h7.415V436.281A2.78,2.78,0,0,0,323.634,433.5Z" transform="translate(-150.076 -213.072)" fill="#fff" opacity="0.3"/>
            <path id="Path_29673" data-name="Path 29673" d="M307.528,436.33a1.149,1.149,0,0,0-1.159,1.149v15.3a1.159,1.159,0,1,0,2.308,0v-15.3a1.14,1.14,0,0,0-1.149-1.149Z" transform="translate(-149.151 -213.279)" fill="#606076"/>
            <rect id="Rectangle_12749" data-name="Rectangle 12749" width="6.395" height="16.562" rx="2.88" transform="matrix(0.927, -0.374, 0.374, 0.927, 192.917, 197.674)" fill="#0d0e0e"/>
            <path id="Path_29674" data-name="Path 29674" d="M349.049,411.407a.871.871,0,0,0-1.131-.482.927.927,0,0,0-.482,1.14l3.466,8.582a.871.871,0,1,0,1.613-.649Z" transform="translate(-152.153 -211.416)" fill="#292625"/>
            <path id="Path_29675" data-name="Path 29675" d="M291.526,202.526a34.775,34.775,0,0,0-13.291,4.875,29.964,29.964,0,0,0-11.076,11.965c-1.149,2.326-1.668,4.532-2.66,8.86-1.372,5.969-4.041,24.542-2.651,24.941.565.167,5.719-23.467,18.147-36.285s32.346-15.08,31.642-15.228C307.94,200.876,296.522,201.627,291.526,202.526Z" transform="translate(-145.866 -196.084)" fill="#ffdea4"/>
            <path id="Path_29676" data-name="Path 29676" d="M247.429,313h-8a2.781,2.781,0,0,0,0,5.561h8a2.781,2.781,0,1,0,0-5.561Z" transform="translate(-144.05 -204.255)" fill="#ffdea4"/>
            <path id="Path_29677" data-name="Path 29677" d="M374.09,313H366.1a2.781,2.781,0,1,0,0,5.561h7.989a2.781,2.781,0,1,0,0-5.561Z" transform="translate(-153.319 -204.255)" fill="#ffdea4"/>
            <path id="Path_29678" data-name="Path 29678" d="M296.5,366.05H262.211a2.252,2.252,0,1,0,0,4.5H296.5a2.252,2.252,0,1,0,0-4.5Z" transform="translate(-145.745 -208.136)" fill="#ffdea4"/>
            <rect id="Rectangle_12750" data-name="Rectangle 12750" width="10.288" height="160.388" transform="translate(23.514 142.435)" fill="#b1b8c2"/>
            <rect id="Rectangle_12751" data-name="Rectangle 12751" width="2.762" height="160.388" transform="translate(24.904 142.435)" fill="#fff" opacity="0.3"/>
            <rect id="Rectangle_12752" data-name="Rectangle 12752" width="10.288" height="4.801" transform="translate(23.514 298.022)" fill="#007a92"/>
            <rect id="Rectangle_12753" data-name="Rectangle 12753" width="10.288" height="5.876" transform="translate(23.514 142.435)" fill="#231f20" opacity="0.2"/>
            <rect id="Rectangle_12754" data-name="Rectangle 12754" width="10.288" height="160.258" transform="translate(298.866 142.435)" fill="#b1b8c2"/>
            <rect id="Rectangle_12755" data-name="Rectangle 12755" width="2.762" height="160.258" transform="translate(300.256 142.435)" fill="#fff" opacity="0.3"/>
            <rect id="Rectangle_12756" data-name="Rectangle 12756" width="10.288" height="4.792" transform="translate(298.866 297.902)" fill="#007a92"/>
            <rect id="Rectangle_12757" data-name="Rectangle 12757" width="10.288" height="5.876" transform="translate(298.866 142.435)" fill="#231f20" opacity="0.2"/>
            <g id="_11" data-name="11" transform="translate(40.984 107.436)">
              <path id="Path_29679" data-name="Path 29679" d="M254.151,488.669s-1.131,8.7-3.652,11.261-10.779,3.754-10.779,9.389,4.375,5.635,4.375,5.635h25.6v-23.56C269.694,488.326,254.151,488.669,254.151,488.669Z" transform="translate(-185.259 -324.544)" fill="#3e4655"/>
              <path id="Path_29680" data-name="Path 29680" d="M352.172,488.58s-4.208,8.694-1.678,11.252,10.77,3.754,10.77,9.389-4.375,5.626-4.375,5.626h-25.6s2.021-23.171,2.021-26.285S352.172,488.58,352.172,488.58Z" transform="translate(-191.96 -324.436)" fill="#3e4655"/>
              <path id="Path_29681" data-name="Path 29681" d="M279.1,346s-66.472,11.363-59.4,39.2,29.436,102.554,29.436,102.554h20.854S263.8,399.4,253.824,389.876a180.441,180.441,0,0,1,32.328-24.1Z" transform="translate(-183.756 -314.106)" fill="#455a9a"/>
              <path id="Path_29682" data-name="Path 29682" d="M338.619,342.53s56.537,27.119,49.428,48.538c-9.018,27.314-35.609,96.39-35.609,96.39H327.6s17.026-83.971,26.989-93.517c-15.283-14.6-33.468-28.463-33.468-28.463Z" transform="translate(-191.215 -313.852)" fill="#455a9a"/>
              <path id="Path_29683" data-name="Path 29683" d="M256.336,389.878s8.341-6.228,27.879-6.228,56.629-1.362,65.462,10.575c-2.484-13.152-23.273-18.194-17-30.159,7.943-15.172,18.277-11.743,30.928-3.207a112.975,112.975,0,0,0-21.9-14.829H281.648s-20.066,3.893-27.638,7.415c44.488,6.645,17.23,25.024,6.4,29.835C253.936,386.106,256.336,389.878,256.336,389.878Z" transform="translate(-186.305 -314.108)" fill="#455a9a"/>
              <path id="Path_29684" data-name="Path 29684" d="M516.79,520.179a67.416,67.416,0,0,0,.853-11.039s1.956-17.128-.056-21.076-6.794-19.769-6.794-19.769l-9.426-2.085-6.488,3.151,3.207,50.818Z" transform="translate(-203.929 -322.902)" fill="#ffd37b"/>
              <path id="Path_29685" data-name="Path 29685" d="M502.5,518.008c1.566-10.2-5.9-47.917-5.932-55.9,0-9.139-2.271-25.024-10.779-24.978,0,0-10.7-1.9-14.19,1.066s-1.3,75.694,1.548,79.81Z" transform="translate(-202.095 -320.73)" fill="#fdba29"/>
              <path id="Path_29686" data-name="Path 29686" d="M522.083,522.438c2.465-5.617-1.687-25.358-1.687-25.358H508.542c-2.855,11.354,2.067,20.984,4.912,25.321Z" transform="translate(-204.866 -325.16)" fill="#fdba29"/>
              <path id="Path_29687" data-name="Path 29687" d="M474.745,497.2l22.188-.056s5.339,23.3-9.315,23.338S474.745,497.2,474.745,497.2Z" transform="translate(-202.451 -325.165)" fill="#ffdea4"/>
              <path id="Path_29688" data-name="Path 29688" d="M475.725,498.226l20.446-.046s4.921,20.39-8.582,20.39S475.725,498.226,475.725,498.226Z" transform="translate(-202.523 -325.241)" fill="#ffd37b"/>
              <path id="Path_29689" data-name="Path 29689" d="M478.137,436.022a1.853,1.853,0,0,1-2.021,1.715h-.806a1.854,1.854,0,0,1-2.03-1.706V425.373a1.909,1.909,0,0,1,2.03-1.724h.806a1.854,1.854,0,0,1,2.03,1.705Z" transform="translate(-202.349 -319.787)" fill="#fdba29"/>
              <path id="Path_29690" data-name="Path 29690" d="M523.633,522.438c2.474-5.617-1.687-25.358-1.687-25.358H510.092c-2.845,11.363,2.076,20.993,4.912,25.33Z" transform="translate(-204.98 -325.16)" fill="#ffd37b"/>
              <path id="Path_29691" data-name="Path 29691" d="M510.16,496.919a18.011,18.011,0,0,1,3.884,1.2c3.893,3.29,2.391,7.961,5.19,7.952s8.879-1.854,10.093-2.845-2.438-3.948-2.447-6.339-3.2-2.382-6.163-2.382S510.16,496.919,510.16,496.919Z" transform="translate(-205.047 -324.971)" fill="#fdba29"/>
              <path id="Path_29692" data-name="Path 29692" d="M524.12,503.242s.473,5.756,3.809,5.746,4.634-1.122,4.634-1.122-4.236-1.14-4.245-3.568a4.319,4.319,0,0,0-2.364-3.568Z" transform="translate(-206.069 -325.427)" fill="#fdba29"/>
              <path id="Path_29693" data-name="Path 29693" d="M478.024,438.587c5.172,0,10.7,6.859,10.724,13.541s6.7,19.056,14,20.066,13.986-4.634,13.986-4.634a89.9,89.9,0,0,1-4.217-10.779c-1.233-4.384-7.137-18.972-12.6-20.39S483.492,435,480.758,435h-7.6l-1.418,3.086Z" transform="translate(-202.236 -320.618)" fill="#ffd37b"/>
              <path id="Path_29694" data-name="Path 29694" d="M508.46,471.975s-.306,5.885,3.707,9.222,8.063,5.783,9.732,4.365,4.634-3.133,1.659-4.393-8.462-1.047-9.657-2.048.853-7.415,0-8.165S508.46,471.975,508.46,471.975Z" transform="translate(-204.923 -323.235)" fill="#fdba29"/>
              <path id="Path_29695" data-name="Path 29695" d="M288.847,323.043s-8.341-1.715-10.686-4.06-11.02-6.84-14.829-3.04-6.821,11.122-6.821,11.122l1.26,3.707h28.852Z" transform="translate(-186.488 -311.799)" fill="#b27a63"/>
              <path id="Path_29696" data-name="Path 29696" d="M223.33,330.632h37.1v-2.984L224.9,327.62Z" transform="translate(-184.06 -312.761)" fill="#eaeaf1"/>
              <path id="Path_29697" data-name="Path 29697" d="M261.579,331.027a1.186,1.186,0,0,1-1.186,1.177H223.977a1.177,1.177,0,0,1-1.177-1.177h0a1.177,1.177,0,0,1,1.177-1.177h36.415a1.186,1.186,0,0,1,1.186,1.177Z" transform="translate(-184.021 -312.924)" fill="#437aaa"/>
              <path id="Path_29698" data-name="Path 29698" d="M218.714,330.451H182.66v-5.3l31.522.593Z" transform="translate(-181.084 -312.58)" fill="#eaeaf1"/>
              <path id="Path_29699" data-name="Path 29699" d="M219.739,331.027a1.186,1.186,0,0,1-1.186,1.177H182.146a1.177,1.177,0,0,1-1.186-1.177h0a1.177,1.177,0,0,1,1.186-1.177h36.406a1.186,1.186,0,0,1,1.186,1.177Z" transform="translate(-180.96 -312.924)" fill="#437aaa"/>
              <path id="Path_29700" data-name="Path 29700" d="M215.136,326.818l-32.476-.028v-.76l32.244.519Z" transform="translate(-181.084 -312.645)" fill="#d5d5e8"/>
              <path id="Path_29701" data-name="Path 29701" d="M217.166,329.179H182.66v-.139h34.163Z" transform="translate(-181.084 -312.865)" fill="#d5d5e8"/>
              <path id="Path_29702" data-name="Path 29702" d="M198.481,327.885H182.66v-.195h15.663Z" transform="translate(-181.084 -312.766)" fill="#d5d5e8"/>
              <path id="Path_29703" data-name="Path 29703" d="M221.04,331.259s-14.533-11.567-38.38-12.9C188.536,316.318,209.779,313.853,221.04,331.259Z" transform="translate(-181.084 -311.979)" fill="#eaeaf1"/>
              <path id="Path_29704" data-name="Path 29704" d="M220.314,330.883a28.731,28.731,0,0,0-10.075-8.925c-6.163-3.42-16.739-5.051-25.59-4.106C191.407,315.228,213.169,316.3,220.314,330.883Z" transform="translate(-181.23 -311.964)" fill="#d5d5e8"/>
              <path id="Path_29705" data-name="Path 29705" d="M220.525,330.7S214.186,317.6,185,311.97C189.857,310.116,216.976,314.8,220.525,330.7Z" transform="translate(-181.256 -311.588)" fill="#eaeaf1"/>
              <path id="Path_29706" data-name="Path 29706" d="M222.88,330.337s6.682-7.266,34.654-9.574C252.752,319.54,225.633,321.375,222.88,330.337Z" transform="translate(-184.027 -312.234)" fill="#eaeaf1"/>
              <path id="Path_29707" data-name="Path 29707" d="M222.09,330.092s10.566-7.229,38.25-6.182C256.3,321.964,228.411,320.657,222.09,330.092Z" transform="translate(-183.969 -312.388)" fill="#eaeaf1"/>
              <path id="Path_29708" data-name="Path 29708" d="M226.193,332.155H218.88c0-1.038,1.724-2.975,3.633-2.975S226.193,331.117,226.193,332.155Z" transform="translate(-183.735 -312.875)" fill="#eaeaf1"/>
              <path id="Path_29709" data-name="Path 29709" d="M225.724,332.192H219.44a3.4,3.4,0,0,1,3.114-2.512C224.195,329.68,225.724,331.32,225.724,332.192Z" transform="translate(-183.776 -312.912)" fill="#52495c"/>
            </g>
            <path id="Path_29710" data-name="Path 29710" d="M271.53,324.164l4.532,20.2s34.237,28.889,66.926-1.4l2.085-37.527-30.771-1.1-41.522,1.3Z" transform="translate(-146.603 -203.621)" fill="#ea4748"/>
            <path id="Path_29711" data-name="Path 29711" d="M293.376,318.2l7.415,1.418s29.418-5.82,39.956-7.248c3.123.222,6.034-.927,9.111-.853a17.267,17.267,0,0,1,8.972,2.623c.742.51,1.455,1.019,2.169,1.52,0,3.4-.556,6.414-2.067,8.341-9.63,12.243-57.019,6.33-57.019,6.33a20.844,20.844,0,0,1-6.4.463,58.575,58.575,0,0,1-12.243-1.742c-4.7-1.2-8.073-5.941-7.795-7.415S290.428,317.637,293.376,318.2Z" transform="translate(-146.89 -204.146)" fill="#efa986"/>
            <path id="Path_29712" data-name="Path 29712" d="M279.213,290.749s-9.1-1.742-16.145,0-28.305,12.66-24.858,22.244c4.5,12.531,21.521,4.384,21.521,4.384l32.319-18Z" transform="translate(-144.137 -202.57)" fill="#ea4748"/>
            <path id="Path_29713" data-name="Path 29713" d="M328,268.988s16.59-5.014,20.677-4.829-1.946,39.223-1.946,39.223H284.96l5.088-6.052Z" transform="translate(-147.585 -200.681)" fill="#ea4748"/>
            <path id="Path_29714" data-name="Path 29714" d="M315.5,279.429s-.093-4.532,1.557-6.191a3.856,3.856,0,0,1,3.856-.843l2.78,5.478-2.827,3.55-3.707,1.993Z" transform="translate(-149.82 -201.269)" fill="#ea4748"/>
            <path id="Path_29715" data-name="Path 29715" d="M315.84,278a6.729,6.729,0,0,0,4.124,5.858,18.833,18.833,0,0,0,5.959,1.084s1.511,17.841-2.15,16.8a37.688,37.688,0,0,1-6.293-2.438l-4.8-13.967Z" transform="translate(-149.613 -201.694)" fill="#efa986"/>
            <path id="Path_29716" data-name="Path 29716" d="M318.63,282.919s2.113-5.329,4.421-5.329,3.068,4.106,3.309,7.294l-.714,3.355-6.831-2.345Z" transform="translate(-150.049 -201.664)" fill="#efa986"/>
            <path id="Path_29717" data-name="Path 29717" d="M351.567,264.292c7.683-1.548,22.04,4.68,20.3,27.453S368.158,322,361.049,325.491c-5.023,2.465-15.914,4.106-19.111,3.235-.843-.232-4.338-3.707-4.338-9.611,0-6.84,3.049-10.019,3.049-10.019l8.49-1.854s-5.292-26.016-3.948-33.792C346.5,265.942,351.567,264.292,351.567,264.292Z" transform="translate(-151.437 -200.675)" fill="#ea4748"/>
            <path id="Path_29718" data-name="Path 29718" d="M298.049,262.3c1.557,1.854,4.866,5.561,7.415,8.9,5.774,7.739,16.423,21.373,5.765,32.031-11.539,11.539-40.187-12.3-41.652-14.829,0,0-6.163-8.184,5.1-20.641S293.684,257.1,298.049,262.3Z" transform="translate(-146.336 -200.255)" fill="#efa986"/>
            <path id="Path_29719" data-name="Path 29719" d="M311.87,306.589a18.268,18.268,0,0,0,5.292-16.5c-1.5-8.768-2.261-9.658-2.261-9.658.584-.38.788-1.594.788-1.594l.565.056a5.459,5.459,0,0,0,3.42,4.718c2.178.862,2.938,3.077,3.531,5.255s1.14,8.657-.788,10.89l1.02,1.974-5.478-1.993S315.234,305.412,311.87,306.589Z" transform="translate(-149.554 -201.755)" fill="#c17e61"/>
            <path id="Path_29720" data-name="Path 29720" d="M322.977,300.11s-.454.862-.232,1.251,2.085,2.651,2.085,2.651L327,302.158l.167-1.27Z" transform="translate(-150.345 -203.312)" fill="#ea4748"/>
            <path id="Path_29721" data-name="Path 29721" d="M307.18,272.084c-.13,4.273,2.16,9.268,4.467,9.852,3.485.871,3.791-4.7,3.791-4.7s.565-7.211-3.846-8.944S307.18,272.084,307.18,272.084Z" transform="translate(-149.211 -200.959)" fill="#e69d7c"/>
            <path id="Path_29722" data-name="Path 29722" d="M317.68,304.133l1.353-2.493a44.479,44.479,0,0,1,4.829,1.761,9.864,9.864,0,0,0-2.66-.556c-.927.148-2.577,1.965-2.78,1.919C317.652,304.606,317.68,304.133,317.68,304.133Z" transform="translate(-149.979 -203.424)" fill="#ea4748"/>
            <path id="Path_29723" data-name="Path 29723" d="M277.558,326.165l1.455,1.112a1.307,1.307,0,0,0,.992.26,92.269,92.269,0,0,1,11.622-.982c5.357,0,9,1.983,11.122,1.983s10.334-3.448,15.395-4.18,10.6-2.586,10.288-5.033-43.431,2.261-47.583,2.706a1.279,1.279,0,0,0-.593.213l-2.641,1.742a1.335,1.335,0,0,0-.056,2.178Z" transform="translate(-147.004 -204.666)" fill="#c17e61"/>
            <path id="Path_29724" data-name="Path 29724" d="M309.386,272.129c.195-.083.26-.352.426-.482a1.649,1.649,0,0,1,.714-.278,2,2,0,0,1,.779,0c.3.056.445.176.714,0a.6.6,0,0,0,.13-.556c-.25-.871-1.288-.871-1.965-.463-.482.3-1.168,1.131-.927,1.742a.12.12,0,0,0,.139.083Z" transform="translate(-149.359 -201.115)" fill="#d67967"/>
            <path id="Path_29725" data-name="Path 29725" d="M313.528,273.453a8.165,8.165,0,0,1,.5,1.3c.111.426.1.871.25,1.279a.343.343,0,0,0,.667,0,3.336,3.336,0,0,0-1.084-3.1c-.3-.26-.426.352-.334.547Z" transform="translate(-149.673 -201.318)" fill="#d67967"/>
            <path id="Path_29726" data-name="Path 29726" d="M173.8,321.05c-.4,0-.751,8.3-.519,8.527s14.06,6.933,15.385,6.933,32.439-5.885,32.773-6.812-1.159-1.279-1.159-1.279l-44.747-2.957S175.054,321.05,173.8,321.05Z" transform="translate(-139.409 -204.844)" fill="#437aaa"/>
            <path id="Path_29727" data-name="Path 29727" d="M189.05,326.059S174.8,321.944,174.4,322s-.649,6.747-.51,7.118,14.931,6.682,14.931,6.682Z" transform="translate(-139.455 -204.913)" fill="#fff7f0"/>
            <path id="Path_29728" data-name="Path 29728" d="M189.981,326.051s-.528,9.37,0,9.7,31.2-5.756,31.994-6.256-.25-8.119-1.084-8.119S189.981,326.051,189.981,326.051Z" transform="translate(-140.618 -204.868)" fill="#f1eae4"/>
            <path id="Path_29729" data-name="Path 29729" d="M173.847,320.893c-.222.491.547.88.547.88s13.708,4.681,14.783,4.681,31.067-4.43,31.067-5.06-11.52-2.484-11.52-2.484Z" transform="translate(-139.452 -204.687)" fill="#7aa7d6"/>
            <path id="Path_29730" data-name="Path 29730" d="M175.953,313.539c-.825.287-.76,8.341,0,8.629,2.428,1.066,40.262.677,40.734.2s.241-.723.241-.723l-1.353-.7.6-6.33s.853-.185.751-.862C216.863,313.363,177.538,313.02,175.953,313.539Z" transform="translate(-139.566 -204.275)" fill="#8a2a2d"/>
            <path id="Path_29731" data-name="Path 29731" d="M176.564,313.9c-.491.464-.417,7.489.158,8.036s38.927.5,39.474,0,.482-7.22,0-7.683S176.564,313.9,176.564,313.9Z" transform="translate(-139.63 -204.32)" fill="#f1eae4"/>
            <path id="Path_29732" data-name="Path 29732" d="M217.436,307.058c.816.287.751,8.342,0,8.629-2.428,1.066-40.271.677-40.781.2s-.232-.723-.232-.723l1.344-.7-.593-6.321s-.853-.195-.751-.871C176.517,306.882,215.879,306.511,217.436,307.058Z" transform="translate(-139.638 -203.8)" fill="#38996d"/>
            <path id="Path_29733" data-name="Path 29733" d="M216.922,307.419c.491.463.426,7.5-.158,8.036s-38.927.5-39.464,0-.491-7.22,0-7.683S216.922,307.419,216.922,307.419Z" transform="translate(-139.679 -203.846)" fill="#fff7f0"/>
            <path id="Path_29734" data-name="Path 29734" d="M176.47,306.975s4.412-4.115,6.84-4.115,27.666-.565,28.926,0a46.777,46.777,0,0,1,5.209,3.893Z" transform="translate(-139.647 -203.495)" fill="#54be90"/>
            <path id="Path_29735" data-name="Path 29735" d="M309.495,309.531l-7.368,1.446s-29.445-5.691-39.983-7.072c-3.123.241-15.58-2.456-20.2,4.634-1.2,2.178.547,6.673,2.067,8.6,9.648,12.188,56.991,4.514,56.991,4.514s2.113,2.428,4.986,1.854,6.923-2.224,12.976-2.539,8.564-4.3,8.267-5.783S312.405,308.985,309.495,309.531Z" transform="translate(-144.408 -203.567)" fill="#efa986"/>
            <rect id="Rectangle_12758" data-name="Rectangle 12758" width="335.995" height="15.302" rx="7.651" transform="translate(0 127.068)" fill="#aea5d1"/>
            <path id="Path_29736" data-name="Path 29736" d="M303.206,270.419a44.391,44.391,0,0,1-5.227-7.73c-3.114-5.468-.26-.287-.26-.287s-2.78-2.669-2.678,3.531c0,0,.13,2.021-2.781-2.512,0,0-6.97-11.622-14.394,4.792,0,0-16.544,10.779-8.462,18.481,0,0,2.78,4.569,6.015,6.914l-12-7.739s-19.816-7.952-5.144-28.491c0,0,5.654-13.124,35.155-12.132,0,0,14.829,5.153,18.018,19.324,0,0,2.781,8.731,2.336,11.252a2.9,2.9,0,0,1-2.873.556s2.28-6.858-4-9.963C306.941,266.415,303.437,265.321,303.206,270.419Z" transform="translate(-145.237 -199.294)" fill="#454f59"/>
          </g>
        </g>
      </g>
      <g id="Group_19302" data-name="Group 19302" transform="translate(194.464 151)">
        <g transform="matrix(1, 0, 0, 1, -232.46, -40)" filter="url(#Path_29892)">
          <path id="Path_29892-4" data-name="Path 29892" d="M0,0H209.223V76.751H0Z" transform="translate(232.46 40)" fill="#fff"/>
        </g>
        <g id="Group_19301" data-name="Group 19301" transform="translate(24.577 18.906)">
          <g id="Group_18501" data-name="Group 18501">
            <rect id="Rectangle_12458" data-name="Rectangle 12458" width="85.075" height="3.117" transform="translate(75.366 15.926)" fill="#d3d6db"/>
            <rect id="Rectangle_12459" data-name="Rectangle 12459" width="58.665" height="3.263" transform="translate(75.366 23.001)" fill="#d3d6db"/>
            <rect id="Rectangle_12460" data-name="Rectangle 12460" width="43.789" height="3.263" transform="translate(75.366 29.72)" fill="#d3d6db"/>
            <path id="Path_27618" data-name="Path 27618" d="M10.732,0H50.1A10.732,10.732,0,0,1,60.829,10.732V26.321A10.732,10.732,0,0,1,50.1,37.053H10.732A10.732,10.732,0,0,1,0,26.321V10.732A10.732,10.732,0,0,1,10.732,0Z" fill="#dedede"/>
            <path id="Path_27542" data-name="Path 27542" d="M106.881,63.137h-3.473v.614a.614.614,0,0,1-.614.614H97.836a.614.614,0,0,1-.614-.614v-.614H93.75a1.841,1.841,0,0,1-1.761-1.276L89.76,55.19V68.709a1.841,1.841,0,0,0,1.857,1.841h17.4a1.841,1.841,0,0,0,1.857-1.841V55.19l-2.229,6.671a1.841,1.841,0,0,1-1.761,1.276Z" transform="translate(-69.893 -42.753)" fill="#9e9d9e"/>
          </g>
          <path id="Path_27543" data-name="Path 27543" d="M102.389,53.22H97.43a1.857,1.857,0,0,0-1.857,1.841v.63H90.42l2.326,6.994a.614.614,0,0,0,.6.42h3.473v-.549a.614.614,0,0,1,.614-.614h4.959a.614.614,0,0,1,.614.614v.614h3.473a.614.614,0,0,0,.6-.42l2.326-6.994h-5.12v-.63a1.857,1.857,0,0,0-1.89-1.906Zm-5.572,2.471v-.63a.614.614,0,0,1,.614-.614h4.959a.614.614,0,0,1,.614.614v.63Z" transform="translate(-69.487 -43.965)" fill="#9e9d9e"/>
        </g>
      </g>
      <g id="Group_19303" data-name="Group 19303" transform="translate(47 283.34)">
        <g transform="matrix(1, 0, 0, 1, -85, -172.34)" filter="url(#Path_29892-2)">
          <path id="Path_29892-5" data-name="Path 29892" d="M0,0H166.37V61.031H0Z" transform="translate(85 172.34)" fill="#fff"/>
        </g>
        <g id="Group_19301-2" data-name="Group 19301" transform="translate(19.544 15.033)">
          <g id="Group_18501-2" data-name="Group 18501">
            <rect id="Rectangle_12458-2" data-name="Rectangle 12458" width="67.65" height="2.479" transform="translate(59.93 12.664)" fill="#d3d6db"/>
            <rect id="Rectangle_12459-2" data-name="Rectangle 12459" width="46.649" height="2.594" transform="translate(59.93 18.29)" fill="#d3d6db"/>
            <rect id="Rectangle_12460-2" data-name="Rectangle 12460" width="34.82" height="2.594" transform="translate(59.93 23.633)" fill="#d3d6db"/>
            <path id="Path_27618-2" data-name="Path 27618" d="M8.534,0h31.3A8.534,8.534,0,0,1,48.37,8.534v12.4a8.534,8.534,0,0,1-8.534,8.534H8.534A8.534,8.534,0,0,1,0,20.93V8.534A8.534,8.534,0,0,1,8.534,0Z" fill="#dedede"/>
            <path id="Path_27542-2" data-name="Path 27542" d="M103.375,61.509h-2.761V62a.488.488,0,0,1-.488.488H96.182A.488.488,0,0,1,95.694,62v-.488H92.932a1.464,1.464,0,0,1-1.4-1.015l-1.772-5.3V65.94A1.464,1.464,0,0,0,91.237,67.4H105.07a1.464,1.464,0,0,0,1.477-1.464V55.19l-1.772,5.3a1.464,1.464,0,0,1-1.4,1.015Z" transform="translate(-73.962 -45.3)" fill="#9e9d9e"/>
          </g>
          <path id="Path_27543-2" data-name="Path 27543" d="M99.937,53.22H95.994a1.477,1.477,0,0,0-1.477,1.464v.5h-4.1l1.85,5.561a.488.488,0,0,0,.475.334h2.761v-.437a.488.488,0,0,1,.488-.488h3.943a.488.488,0,0,1,.488.488v.488h2.761a.488.488,0,0,0,.475-.334l1.85-5.561H101.44v-.5a1.477,1.477,0,0,0-1.5-1.516Zm-4.431,1.965v-.5a.488.488,0,0,1,.488-.488h3.943a.488.488,0,0,1,.488.488v.5Z" transform="translate(-73.774 -45.86)" fill="#9e9d9e"/>
        </g>
      </g>
      <g id="Group_19304" data-name="Group 19304" transform="translate(381.63 283.34)">
        <g transform="matrix(1, 0, 0, 1, -419.63, -172.34)" filter="url(#Path_29892-3)">
          <path id="Path_29892-6" data-name="Path 29892" d="M0,0H166.37V61.031H0Z" transform="translate(419.63 172.34)" fill="#fff"/>
        </g>
        <g id="Group_19301-3" data-name="Group 19301" transform="translate(19.544 15.033)">
          <g id="Group_18501-3" data-name="Group 18501">
            <rect id="Rectangle_12458-3" data-name="Rectangle 12458" width="67.65" height="2.479" transform="translate(59.93 12.664)" fill="#d3d6db"/>
            <rect id="Rectangle_12459-3" data-name="Rectangle 12459" width="46.649" height="2.594" transform="translate(59.93 18.29)" fill="#d3d6db"/>
            <rect id="Rectangle_12460-3" data-name="Rectangle 12460" width="34.82" height="2.594" transform="translate(59.93 23.633)" fill="#d3d6db"/>
            <path id="Path_27618-3" data-name="Path 27618" d="M8.534,0h31.3A8.534,8.534,0,0,1,48.37,8.534v12.4a8.534,8.534,0,0,1-8.534,8.534H8.534A8.534,8.534,0,0,1,0,20.93V8.534A8.534,8.534,0,0,1,8.534,0Z" fill="#dedede"/>
            <path id="Path_27542-3" data-name="Path 27542" d="M103.375,61.509h-2.761V62a.488.488,0,0,1-.488.488H96.182A.488.488,0,0,1,95.694,62v-.488H92.932a1.464,1.464,0,0,1-1.4-1.015l-1.772-5.3V65.94A1.464,1.464,0,0,0,91.237,67.4H105.07a1.464,1.464,0,0,0,1.477-1.464V55.19l-1.772,5.3a1.464,1.464,0,0,1-1.4,1.015Z" transform="translate(-73.962 -45.3)" fill="#9e9d9e"/>
          </g>
          <path id="Path_27543-3" data-name="Path 27543" d="M99.937,53.22H95.994a1.477,1.477,0,0,0-1.477,1.464v.5h-4.1l1.85,5.561a.488.488,0,0,0,.475.334h2.761v-.437a.488.488,0,0,1,.488-.488h3.943a.488.488,0,0,1,.488.488v.488h2.761a.488.488,0,0,0,.475-.334l1.85-5.561H101.44v-.5a1.477,1.477,0,0,0-1.5-1.516Zm-4.431,1.965v-.5a.488.488,0,0,1,.488-.488h3.943a.488.488,0,0,1,.488.488v.5Z" transform="translate(-73.774 -45.86)" fill="#9e9d9e"/>
        </g>
      </g>
    </g>
  </g>
</svg>
