<svg xmlns="http://www.w3.org/2000/svg" id="Group_4694" width="21.552" height="17.511" data-name="Group 4694" viewBox="0 0 21.552 17.511">
    <defs>
        <style>
            .cls-1{fill:#00baff}
        </style>
    </defs>
    <g id="twitter">
        <g id="Group_67" data-name="Group 67">
            <path id="Path_59" d="M21.552 80.542a9.212 9.212 0 0 1-2.546.7A4.394 4.394 0 0 0 20.95 78.8a8.83 8.83 0 0 1-2.8 1.07 4.418 4.418 0 0 0-7.643 3.021 4.55 4.55 0 0 0 .1 1.008A12.506 12.506 0 0 1 1.5 79.274a4.42 4.42 0 0 0 1.358 5.906 4.363 4.363 0 0 1-2-.544v.049a4.439 4.439 0 0 0 3.542 4.34 4.41 4.41 0 0 1-1.158.145 3.905 3.905 0 0 1-.836-.075 4.46 4.46 0 0 0 4.129 3.078 8.878 8.878 0 0 1-5.478 1.884A8.273 8.273 0 0 1 0 94a12.439 12.439 0 0 0 6.778 1.98 12.489 12.489 0 0 0 12.576-12.573c0-.2-.007-.384-.016-.571a8.815 8.815 0 0 0 2.214-2.294z" class="cls-1" data-name="Path 59" transform="translate(0 -78.469)"/>
        </g>
    </g>
</svg>
