<svg xmlns="http://www.w3.org/2000/svg" xmlns:xlink="http://www.w3.org/1999/xlink" width="670" height="570" viewBox="0 0 670 570">
  <defs>
    <linearGradient id="linear-gradient" y1="0.5" x2="1" y2="0.5" gradientUnits="objectBoundingBox">
      <stop offset="0" stop-color="#cbbcfb"/>
      <stop offset="0" stop-color="#e38ddd"/>
      <stop offset="0.004" stop-color="#bab2f3"/>
      <stop offset="1" stop-color="#1a67db"/>
    </linearGradient>
    <linearGradient id="linear-gradient-5" x1="1.567" y1="0.745" x2="1.665" y2="-1.816" gradientUnits="objectBoundingBox">
      <stop offset="0" stop-color="#444b8c"/>
      <stop offset="0.996" stop-color="#26264f"/>
    </linearGradient>
    <linearGradient id="linear-gradient-6" x1="65.394" y1="-117.981" x2="66.4" y2="-117.981" gradientUnits="objectBoundingBox">
      <stop offset="0" stop-color="#ff9085"/>
      <stop offset="1" stop-color="#fb6fbb"/>
    </linearGradient>
    <linearGradient id="linear-gradient-7" x1="15.38" y1="0.336" x2="15.395" y2="1.826" xlink:href="#linear-gradient-5"/>
    <linearGradient id="linear-gradient-8" x1="20.886" y1="0.684" x2="20.903" y2="2.391" xlink:href="#linear-gradient-5"/>
    <linearGradient id="linear-gradient-9" x1="31.108" y1="1.283" x2="31.131" y2="3.343" xlink:href="#linear-gradient-5"/>
    <linearGradient id="linear-gradient-10" y1="0.5" x2="1" y2="0.5" gradientUnits="objectBoundingBox">
      <stop offset="0" stop-color="#e38ddd"/>
      <stop offset="0.004" stop-color="#e7e4fe"/>
      <stop offset="1" stop-color="#9571f6"/>
    </linearGradient>
    <clipPath id="clip-path">
      <path id="Path_29061" data-name="Path 29061" d="M233.76,1558.4l12.049,28.032h64.97l9.478-27.319s-27.425,10.934-42.447,9.578h0s-15.139,1.29-44.05-10.288" transform="translate(-233.76 -1558.4)" fill="none"/>
    </clipPath>
    <clipPath id="clip-Yet_to_screen_web_cdt">
      <rect width="670" height="570"/>
    </clipPath>
  </defs>
  <g id="Yet_to_screen_web_cdt" data-name="Yet to screen web cdt" clip-path="url(#clip-Yet_to_screen_web_cdt)">
    <rect width="670" height="570" fill="#fff"/>
    <g id="Group_19196" data-name="Group 19196" transform="translate(4.494)">
      <g id="Group_19163" data-name="Group 19163" transform="translate(143.507 37.574)">
        <g id="Group_19159" data-name="Group 19159" transform="translate(25.286 2.575)">
          <rect id="Rectangle_12354" data-name="Rectangle 12354" width="67.752" height="97.401" fill="#fff"/>
          <g id="Group_18435" data-name="Group 18435" transform="translate(3.394 9.827)">
            <g id="Group_18434" data-name="Group 18434" transform="translate(0.164)">
              <path id="Path_26984" data-name="Path 26984" d="M296.894,56.9a.915.915,0,0,1-.52-.166l-2.825-2.265a.831.831,0,0,1-.124-1.164.81.81,0,0,1,1.143-.125l2.223,1.787,4.01-4.509a.817.817,0,1,1,1.225,1.08l-4.529,5.09A.811.811,0,0,1,296.894,56.9Z" transform="translate(-293.242 -48.22)" fill="#bfbebe"/>
              <rect id="Rectangle_12355" data-name="Rectangle 12355" width="21.296" height="1.828" transform="translate(15.182)" fill="#bfbebe"/>
              <rect id="Rectangle_12356" data-name="Rectangle 12356" width="44.96" height="1.974" transform="translate(15.182 6.15)" fill="#bfbebe"/>
            </g>
            <g id="Group_18433" data-name="Group 18433" transform="translate(0.165 21.608)">
              <path id="Path_26985" data-name="Path 26985" d="M296.893,67.291a.831.831,0,0,1-.52-.187l-2.826-2.265a.813.813,0,1,1,1.018-1.267l2.223,1.766,4.01-4.508a.852.852,0,0,1,1.163,0,.789.789,0,0,1,0,1.143l-4.529,5.09a.768.768,0,0,1-.54.229Z" transform="translate(-293.243 -58.606)" fill="#bfbebe"/>
              <rect id="Rectangle_12357" data-name="Rectangle 12357" width="21.296" height="1.828" transform="translate(15.16)" fill="#bfbebe"/>
              <rect id="Rectangle_12358" data-name="Rectangle 12358" width="44.96" height="1.974" transform="translate(15.16 6.129)" fill="#bfbebe"/>
            </g>
            <g id="Group_18432" data-name="Group 18432" transform="translate(0 43.153)">
              <path id="Path_26986" data-name="Path 26986" d="M296.792,77.7a.79.79,0,0,1-.5-.187L293.468,75.2a.813.813,0,0,1,1.018-1.267l2.223,1.766,4.01-4.508a.81.81,0,0,1,1.143,0,.789.789,0,0,1,0,1.143l-4.529,5.09A.851.851,0,0,1,296.792,77.7Z" transform="translate(-293.164 -68.99)" fill="#bfbebe"/>
              <rect id="Rectangle_12359" data-name="Rectangle 12359" width="21.296" height="1.828" transform="translate(15.201)" fill="#bfbebe"/>
              <rect id="Rectangle_12360" data-name="Rectangle 12360" width="44.96" height="1.974" transform="translate(15.201 6.15)" fill="#bfbebe"/>
            </g>
            <g id="Group_18431" data-name="Group 18431" transform="translate(0.061 64.698)">
              <path id="Path_26987" data-name="Path 26987" d="M296.823,88.028a.79.79,0,0,1-.5-.187L293.5,85.576a.813.813,0,1,1,1.018-1.267l2.223,1.787,4.01-4.508a.789.789,0,0,1,1.143,0,.831.831,0,0,1,0,1.163l-4.529,5.09A.892.892,0,0,1,296.823,88.028Z" transform="translate(-293.193 -79.343)" fill="#bfbebe"/>
              <rect id="Rectangle_12361" data-name="Rectangle 12361" width="21.296" height="1.828" transform="translate(15.202)" fill="#bfbebe"/>
              <rect id="Rectangle_12362" data-name="Rectangle 12362" width="44.96" height="1.974" transform="translate(15.202 6.15)" fill="#bfbebe"/>
            </g>
          </g>
        </g>
        <g id="Group_3274" data-name="Group 3274" transform="translate(21.914 0)">
          <path id="Line_161" data-name="Line 161" d="M0,0" fill="none" stroke="#00a2dd" stroke-linecap="round" stroke-width="1"/>
          <rect id="Rectangle_11394" data-name="Rectangle 11394" width="73.497" height="47.699" transform="translate(0.508 1.259)" opacity="0.29" fill="url(#linear-gradient)"/>
        </g>
        <path id="Path_29758" data-name="Path 29758" d="M234.77,29.83v2.489h15.075V46.007h2.56V29.83ZM132.43,46.007h2.56V32.319h15.057V29.83H132.43Zm117.415,70.645v13.706H234.77v2.471H252.4V116.651Zm-114.855,0h-2.56v16.177h17.617v-2.471H134.99Z" transform="translate(-132.43 -28.719)" fill="#437aaa"/>
      </g>
      <g id="Group_19166" data-name="Group 19166" transform="translate(82.507 337.605)">
        <g id="Group_19159-2" data-name="Group 19159" transform="translate(16.786 1.709)">
          <rect id="Rectangle_12354-2" data-name="Rectangle 12354" width="44.977" height="64.659" fill="#fff"/>
          <g id="Group_18435-2" data-name="Group 18435" transform="translate(2.253 6.524)">
            <g id="Group_18434-2" data-name="Group 18434" transform="translate(0.109)">
              <path id="Path_26984-2" data-name="Path 26984" d="M295.666,54.646a.608.608,0,0,1-.345-.11l-1.876-1.5a.552.552,0,0,1-.083-.772.538.538,0,0,1,.758-.083l1.476,1.186,2.662-2.993a.542.542,0,0,1,.814.717l-3.007,3.379A.539.539,0,0,1,295.666,54.646Z" transform="translate(-293.242 -48.881)" fill="#bfbebe"/>
              <rect id="Rectangle_12355-2" data-name="Rectangle 12355" width="14.137" height="1.214" transform="translate(10.079)" fill="#bfbebe"/>
              <rect id="Rectangle_12356-2" data-name="Rectangle 12356" width="29.847" height="1.31" transform="translate(10.079 4.083)" fill="#bfbebe"/>
            </g>
            <g id="Group_18433-2" data-name="Group 18433" transform="translate(0.11 14.344)">
              <path id="Path_26985-2" data-name="Path 26985" d="M295.666,65.041a.552.552,0,0,1-.345-.124l-1.876-1.5a.54.54,0,1,1,.676-.841l1.476,1.172,2.662-2.993a.565.565,0,0,1,.772,0,.524.524,0,0,1,0,.759l-3.007,3.379a.51.51,0,0,1-.359.152Z" transform="translate(-293.243 -59.276)" fill="#bfbebe"/>
              <rect id="Rectangle_12357-2" data-name="Rectangle 12357" width="14.137" height="1.214" transform="translate(10.064)" fill="#bfbebe"/>
              <rect id="Rectangle_12358-2" data-name="Rectangle 12358" width="29.847" height="1.31" transform="translate(10.064 4.069)" fill="#bfbebe"/>
            </g>
            <g id="Group_18432-2" data-name="Group 18432" transform="translate(0 28.647)">
              <path id="Path_26986-2" data-name="Path 26986" d="M295.572,75.43a.524.524,0,0,1-.331-.124l-1.876-1.531a.54.54,0,0,1,.676-.841l1.476,1.172,2.662-2.993a.538.538,0,0,1,.759,0,.524.524,0,0,1,0,.759l-3.007,3.379A.565.565,0,0,1,295.572,75.43Z" transform="translate(-293.164 -69.651)" fill="#bfbebe"/>
              <rect id="Rectangle_12359-2" data-name="Rectangle 12359" width="14.137" height="1.214" transform="translate(10.091)" fill="#bfbebe"/>
              <rect id="Rectangle_12360-2" data-name="Rectangle 12360" width="29.847" height="1.31" transform="translate(10.091 4.083)" fill="#bfbebe"/>
            </g>
            <g id="Group_18431-2" data-name="Group 18431" transform="translate(0.041 42.949)">
              <path id="Path_26987-2" data-name="Path 26987" d="M295.6,85.78a.525.525,0,0,1-.331-.124l-1.876-1.5a.54.54,0,1,1,.676-.841l1.476,1.186,2.662-2.993a.524.524,0,0,1,.759,0,.552.552,0,0,1,0,.772l-3.007,3.379A.592.592,0,0,1,295.6,85.78Z" transform="translate(-293.193 -80.015)" fill="#bfbebe"/>
              <rect id="Rectangle_12361-2" data-name="Rectangle 12361" width="14.137" height="1.214" transform="translate(10.091)" fill="#bfbebe"/>
              <rect id="Rectangle_12362-2" data-name="Rectangle 12362" width="29.847" height="1.31" transform="translate(10.091 4.083)" fill="#bfbebe"/>
            </g>
          </g>
        </g>
        <g id="Group_3274-2" data-name="Group 3274" transform="translate(14.548 0)">
          <path id="Line_161-2" data-name="Line 161" d="M0,0" fill="none" stroke="#00a2dd" stroke-linecap="round" stroke-width="1"/>
          <rect id="Rectangle_11394-2" data-name="Rectangle 11394" width="48.791" height="31.665" transform="translate(0.338 0.836)" stroke="rgba(0,0,0,0)" stroke-width="1" opacity="0.29" fill="url(#linear-gradient)"/>
        </g>
        <path id="Path_29758-2" data-name="Path 29758" d="M200.368,29.83v1.652h10.007v9.087h1.7V29.83ZM132.43,40.569h1.7V31.482h10V29.83H132.43Zm77.945,46.9v9.1H200.368V98.2h11.706V87.466Zm-76.246,0h-1.7V98.2h11.695v-1.64h-10Z" transform="translate(-132.43 -29.092)" fill="#437aaa"/>
      </g>
      <g id="Group_19165" data-name="Group 19165" transform="translate(400.671 102.439)">
        <g id="Group_19159-3" data-name="Group 19159" transform="translate(18.181 1.851)">
          <rect id="Rectangle_12354-3" data-name="Rectangle 12354" width="48.715" height="70.032" fill="#fff"/>
          <g id="Group_18435-3" data-name="Group 18435" transform="translate(2.441 7.066)">
            <g id="Group_18434-3" data-name="Group 18434" transform="translate(0.118)">
              <path id="Path_26984-3" data-name="Path 26984" d="M295.868,55.017a.658.658,0,0,1-.374-.12l-2.032-1.628a.6.6,0,0,1-.089-.837.583.583,0,0,1,.822-.09l1.6,1.285,2.883-3.242a.587.587,0,1,1,.881.777l-3.256,3.66A.583.583,0,0,1,295.868,55.017Z" transform="translate(-293.242 -48.772)" fill="#bfbebe"/>
              <rect id="Rectangle_12355-3" data-name="Rectangle 12355" width="15.312" height="1.315" transform="translate(10.916)" fill="#bfbebe"/>
              <rect id="Rectangle_12356-3" data-name="Rectangle 12356" width="32.327" height="1.419" transform="translate(10.916 4.422)" fill="#bfbebe"/>
            </g>
            <g id="Group_18433-3" data-name="Group 18433" transform="translate(0.119 15.536)">
              <path id="Path_26985-3" data-name="Path 26985" d="M295.868,65.41a.6.6,0,0,1-.374-.134l-2.032-1.628a.584.584,0,1,1,.732-.911l1.6,1.27,2.883-3.242a.612.612,0,0,1,.836,0,.567.567,0,0,1,0,.822l-3.257,3.66a.552.552,0,0,1-.388.164Z" transform="translate(-293.243 -59.166)" fill="#bfbebe"/>
              <rect id="Rectangle_12357-3" data-name="Rectangle 12357" width="15.312" height="1.315" transform="translate(10.9)" fill="#bfbebe"/>
              <rect id="Rectangle_12358-3" data-name="Rectangle 12358" width="32.327" height="1.419" transform="translate(10.9 4.407)" fill="#bfbebe"/>
            </g>
            <g id="Group_18432-3" data-name="Group 18432" transform="translate(0 31.027)">
              <path id="Path_26986-3" data-name="Path 26986" d="M295.772,75.8a.568.568,0,0,1-.359-.134l-2.032-1.658a.584.584,0,0,1,.732-.911l1.6,1.27,2.883-3.242a.583.583,0,0,1,.822,0,.568.568,0,0,1,0,.822l-3.257,3.66A.612.612,0,0,1,295.772,75.8Z" transform="translate(-293.164 -69.543)" fill="#bfbebe"/>
              <rect id="Rectangle_12359-3" data-name="Rectangle 12359" width="15.312" height="1.315" transform="translate(10.929)" fill="#bfbebe"/>
              <rect id="Rectangle_12360-3" data-name="Rectangle 12360" width="32.327" height="1.419" transform="translate(10.929 4.422)" fill="#bfbebe"/>
            </g>
            <g id="Group_18431-3" data-name="Group 18431" transform="translate(0.044 46.519)">
              <path id="Path_26987-3" data-name="Path 26987" d="M295.8,86.149a.568.568,0,0,1-.359-.134l-2.032-1.628a.584.584,0,1,1,.732-.911l1.6,1.285,2.883-3.242a.568.568,0,0,1,.822,0,.6.6,0,0,1,0,.837l-3.257,3.66A.642.642,0,0,1,295.8,86.149Z" transform="translate(-293.193 -79.905)" fill="#bfbebe"/>
              <rect id="Rectangle_12361-3" data-name="Rectangle 12361" width="15.312" height="1.315" transform="translate(10.93)" fill="#bfbebe"/>
              <rect id="Rectangle_12362-3" data-name="Rectangle 12362" width="32.327" height="1.419" transform="translate(10.93 4.422)" fill="#bfbebe"/>
            </g>
          </g>
        </g>
        <g id="Group_3274-3" data-name="Group 3274" transform="translate(15.757 0)">
          <path id="Line_161-3" data-name="Line 161" d="M0,0" fill="none" stroke="#00a2dd" stroke-linecap="round" stroke-width="1"/>
          <rect id="Rectangle_11394-3" data-name="Rectangle 11394" width="52.845" height="34.296" transform="translate(0.366 0.905)" stroke="rgba(0,0,0,0)" stroke-width="1" opacity="0.29" fill="url(#linear-gradient)"/>
        </g>
        <path id="Path_29758-3" data-name="Path 29758" d="M206.014,29.83v1.789h10.839v9.842h1.841V29.83ZM132.43,41.461h1.841V31.619H145.1V29.83H132.43Zm84.423,50.794v9.855H206.014v1.777h12.679V92.255Zm-82.582,0H132.43v11.631H145.1V102.11H134.271Z" transform="translate(-132.43 -29.031)" fill="#437aaa"/>
      </g>
      <g id="Group_19164" data-name="Group 19164" transform="translate(481.385 321.81)">
        <g id="Group_19159-4" data-name="Group 19159" transform="translate(20.605 2.098)">
          <rect id="Rectangle_12354-4" data-name="Rectangle 12354" width="55.209" height="79.368" fill="#fff"/>
          <g id="Group_18435-4" data-name="Group 18435" transform="translate(2.766 8.008)">
            <g id="Group_18434-4" data-name="Group 18434" transform="translate(0.133)">
              <path id="Path_26984-4" data-name="Path 26984" d="M296.218,55.661a.746.746,0,0,1-.423-.135l-2.3-1.845a.677.677,0,0,1-.1-.948.66.66,0,0,1,.931-.1l1.812,1.456,3.268-3.674a.666.666,0,0,1,1,.88l-3.691,4.148A.661.661,0,0,1,296.218,55.661Z" transform="translate(-293.242 -48.584)" fill="#bfbebe"/>
              <rect id="Rectangle_12355-4" data-name="Rectangle 12355" width="17.353" height="1.49" transform="translate(12.372)" fill="#bfbebe"/>
              <rect id="Rectangle_12356-4" data-name="Rectangle 12356" width="36.637" height="1.608" transform="translate(12.372 5.011)" fill="#bfbebe"/>
            </g>
            <g id="Group_18433-4" data-name="Group 18433" transform="translate(0.135 17.607)">
              <path id="Path_26985-4" data-name="Path 26985" d="M296.218,66.052a.678.678,0,0,1-.423-.152l-2.3-1.845a.662.662,0,1,1,.829-1.033l1.812,1.439,3.268-3.674a.694.694,0,0,1,.948,0,.643.643,0,0,1,0,.931l-3.691,4.148a.626.626,0,0,1-.44.186Z" transform="translate(-293.243 -58.975)" fill="#bfbebe"/>
              <rect id="Rectangle_12357-4" data-name="Rectangle 12357" width="17.353" height="1.49" transform="translate(12.353)" fill="#bfbebe"/>
              <rect id="Rectangle_12358-4" data-name="Rectangle 12358" width="36.637" height="1.608" transform="translate(12.353 4.994)" fill="#bfbebe"/>
            </g>
            <g id="Group_18432-4" data-name="Group 18432" transform="translate(0 35.164)">
              <path id="Path_26986-4" data-name="Path 26986" d="M296.12,76.448a.644.644,0,0,1-.407-.152l-2.3-1.879a.662.662,0,0,1,.83-1.033l1.811,1.439,3.268-3.674a.66.66,0,0,1,.931,0,.643.643,0,0,1,0,.931l-3.691,4.148A.694.694,0,0,1,296.12,76.448Z" transform="translate(-293.164 -69.354)" fill="#bfbebe"/>
              <rect id="Rectangle_12359-4" data-name="Rectangle 12359" width="17.353" height="1.49" transform="translate(12.387)" fill="#bfbebe"/>
              <rect id="Rectangle_12360-4" data-name="Rectangle 12360" width="36.637" height="1.608" transform="translate(12.387 5.011)" fill="#bfbebe"/>
            </g>
            <g id="Group_18431-4" data-name="Group 18431" transform="translate(0.05 52.72)">
              <path id="Path_26987-4" data-name="Path 26987" d="M296.151,86.79a.644.644,0,0,1-.406-.152l-2.3-1.845a.662.662,0,1,1,.83-1.033l1.812,1.456,3.267-3.674a.643.643,0,0,1,.931,0,.677.677,0,0,1,0,.948l-3.691,4.148A.728.728,0,0,1,296.151,86.79Z" transform="translate(-293.193 -79.713)" fill="#bfbebe"/>
              <rect id="Rectangle_12361-4" data-name="Rectangle 12361" width="17.353" height="1.49" transform="translate(12.387)" fill="#bfbebe"/>
              <rect id="Rectangle_12362-4" data-name="Rectangle 12362" width="36.637" height="1.608" transform="translate(12.387 5.011)" fill="#bfbebe"/>
            </g>
          </g>
        </g>
        <g id="Group_3274-4" data-name="Group 3274" transform="translate(17.857 0)">
          <path id="Line_161-4" data-name="Line 161" d="M0,0" fill="none" stroke="#00a2dd" stroke-linecap="round" stroke-width="1"/>
          <rect id="Rectangle_11394-4" data-name="Rectangle 11394" width="59.89" height="38.868" transform="translate(0.414 1.026)" stroke="rgba(0,0,0,0)" stroke-width="1" opacity="0.29" fill="url(#linear-gradient)"/>
        </g>
        <path id="Path_29758-4" data-name="Path 29758" d="M215.824,29.83v2.028h12.284V43.012h2.086V29.83ZM132.43,43.012h2.086V31.858h12.269V29.83H132.43Zm95.677,57.566v11.168H215.824v2.013h14.37V100.578Zm-93.591,0H132.43V113.76h14.355v-2.013H134.516Z" transform="translate(-132.43 -28.924)" fill="#437aaa"/>
      </g>
      <g id="Group_19162" data-name="Group 19162" transform="translate(163 193.775)">
        <g id="Group_19160" data-name="Group 19160" transform="translate(0 290.785)">
          <path id="Path_29177" data-name="Path 29177" d="M1697.318,885.039,1476.691,869.8a4.446,4.446,0,0,0-.8,0L1344.5,875.753c-3.143.286-3,8.516.568,8.965l206.451,27.645a10.161,10.161,0,0,0,2.544-.008l142.849-20.072C1698.818,891.95,1699.515,885.2,1697.318,885.039Z" transform="translate(-1342.26 -863.998)" fill="#0a337a"/>
          <path id="Path_29178" data-name="Path 29178" d="M1697.8,879.7l-220.193-20.779a4.381,4.381,0,0,0-.8,0L1346.057,870.4a2.009,2.009,0,0,0-.07,3.994l206.451,25.477a10.151,10.151,0,0,0,2.544-.007L1697.831,881.4A.855.855,0,0,0,1697.8,879.7Z" transform="translate(-1343.179 -858.906)" fill="url(#linear-gradient-5)"/>
          <path id="Path_29179" data-name="Path 29179" d="M1561.41,899.645a7.15,7.15,0,0,0,.917-.059L1690.36,883.04a.4.4,0,0,0-.013-.784l-196.61-18.515c-.044,0-.089-.006-.131-.006s-.081,0-.121.006L1368.5,874.713a.485.485,0,0,0-.017.965l192.053,23.914A7.209,7.209,0,0,0,1561.41,899.645Z" transform="translate(-1354.335 -861.166)" fill="#fe97aa"/>
          <path id="Path_29180" data-name="Path 29180" d="M1868.5,915.335c.046.382,1.25.549,2.69.374s2.568-.626,2.522-1.008-1.251-.549-2.69-.374S1868.458,914.953,1868.5,915.335Z" transform="translate(-1588.591 -884.816)" fill="url(#linear-gradient-6)"/>
          <g id="Group_19048" data-name="Group 19048" transform="translate(125.388 33.043)">
            <path id="Path_29181" data-name="Path 29181" d="M1670.82,935.321l19.818,2.6c1.448.19,2.633-.518,2.633-1.583h0c0-1.065-1.185-2.067-2.633-2.236l-19.818-2.315c-1.224-.143-2.208.526-2.208,1.491h0A2.372,2.372,0,0,0,1670.82,935.321Z" transform="translate(-1620.411 -926.056)" fill="url(#linear-gradient-7)"/>
            <path id="Path_29182" data-name="Path 29182" d="M1630.452,930.256l16.321,2.144c1.183.155,2.15-.5,2.15-1.46h0a2.289,2.289,0,0,0-2.15-1.994l-16.321-1.906a1.505,1.505,0,0,0-1.833,1.38h0A2.029,2.029,0,0,0,1630.452,930.256Z" transform="translate(-1601.691 -923.835)" fill="url(#linear-gradient-8)"/>
            <path id="Path_29183" data-name="Path 29183" d="M1579.4,923.854l12.416,1.632a1.348,1.348,0,0,0,1.619-1.3h0a1.814,1.814,0,0,0-1.619-1.7l-12.416-1.45a1.222,1.222,0,0,0-1.409,1.234h0A1.648,1.648,0,0,0,1579.4,923.854Z" transform="translate(-1577.993 -921.027)" fill="url(#linear-gradient-9)"/>
          </g>
          <path id="Path_29184" data-name="Path 29184" d="M1476.451,881.425c19.187,3.416,31.93,10.372,59.464,10.929,23.851.482,24.028-5.014,51.749-6.75,36.317-2.275,45.783,6.546,82.928,5.785a232.624,232.624,0,0,0,37.364-3.826l19.3,1.821a.855.855,0,0,1,.029,1.7l-142.849,18.462a10.171,10.171,0,0,1-2.544.007L1407.148,887.99C1437.132,877.992,1460.091,878.513,1476.451,881.425Z" transform="translate(-1372.634 -868.587)" fill="#fff" opacity="0.6" style="mix-blend-mode: soft-light;isolation: isolate"/>
        </g>
        <g id="Group_19161" data-name="Group 19161" transform="translate(19.028 31.686)">
          <ellipse id="Ellipse_1616" data-name="Ellipse 1616" cx="24.465" cy="5.673" rx="24.465" ry="5.673" transform="translate(114.531 266.227)" fill="none" stroke="#fff" stroke-miterlimit="10" stroke-width="3"/>
          <ellipse id="Ellipse_1617" data-name="Ellipse 1617" cx="11.12" cy="2.579" rx="11.12" ry="2.579" transform="translate(127.876 269.321)" fill="#fff" opacity="0.6" style="mix-blend-mode: soft-light;isolation: isolate"/>
          <path id="Path_29185" data-name="Path 29185" d="M1657.62,422.652,1526.042,637.787l-1.2,1.963-1.6,2.612-2.8,4.574-2.032,3.319c0,2.213-7.479,4.011-16.878,4.122-.3.005-.606.005-.915.005-9.83,0-17.792-1.846-17.792-4.128l-1.861-3.378-3.729-6.761-1.271-2.308-1.6-2.893-7.83-14.207-13.489-24.463-15.2-27.568-1.516-2.755-16.793-30.468-10.675-19.362-47.25-85.711a255.352,255.352,0,0,1,73.659-38.994c5.526-1.857,11.308-3.586,17.345-5.139q2.091-.543,4.229-1.053c1.069-.255,2.143-.505,3.223-.744.851-.2,1.713-.384,2.575-.57h.011a248.58,248.58,0,0,1,41.563-5.292q2.672-.119,5.393-.176a249.776,249.776,0,0,1,74.9,9.84c.723.2,1.442.415,2.149.628.208.063.415.122.617.186q3.422,1.029,6.713,2.128c5.994,1.99,11.649,4.112,16.946,6.293A251.156,251.156,0,0,1,1657.62,422.652Z" transform="translate(-1361.624 -378.357)" opacity="0.29" fill="url(#linear-gradient-10)"/>
        </g>
        <g id="AI_Vasi" data-name="AI Vasi" transform="translate(81.022 0)">
          <g id="machine_part" data-name="machine part" transform="translate(33.987 234.273)">
            <path id="Path_29032" data-name="Path 29032" d="M234.76,1559.4l12.049,28.032h64.97l9.478-27.319s-27.425,10.934-42.447,9.577h0s-15.139,1.29-44.05-10.288" transform="translate(-234.178 -1558.835)" fill="#191919"/>
            <path id="Path_29033" data-name="Path 29033" d="M308.822,1584.662H243.427L231,1555.75l.7.279c14.889,5.962,26.036,8.436,32.765,9.461,1.682.257,3.181.439,4.491.565l.033-.362,6.677.6c14.778,1.335,42.031-9.447,42.3-9.557l.629-.25Zm-64.987-.62H308.38l9.187-26.483c-1.891.729-7.844,2.965-14.99,5.063-7.1,2.084-16.7,4.407-24.233,4.407-.94,0-1.846-.035-2.713-.113a54.081,54.081,0,0,1-11.228-.807c-6.66-1.013-17.628-3.436-32.241-9.227Z" transform="translate(-231 -1555.75)"/>
            <path id="Path_29034" data-name="Path 29034" d="M320.73,1594.45l4.81,2.428v18.982h-4.81Z" transform="translate(-306.833 -1588.456)" fill="#929293"/>
            <path id="Path_29035" data-name="Path 29035" d="M324.5,1614.021H319.23V1592l5.275,2.664Zm-4.81-.464h4.346v-18.606l-4.346-2.195Z" transform="translate(-305.566 -1586.386)"/>
            <path id="Path_29036" data-name="Path 29036" d="M268.49,1601.51h7.215v18.8Z" transform="translate(-262.684 -1594.423)" fill="#606060"/>
            <path id="Path_29037" data-name="Path 29037" d="M274.1,1620.288,266.31,1600H274.1Zm-7.109-19.823,6.644,17.318v-17.318Z" transform="translate(-260.841 -1593.147)"/>
            <path id="Path_29038" data-name="Path 29038" d="M251.55,1563.03h3.444l5.848,3.663h-7.925Z" transform="translate(-248.367 -1561.903)" fill="#929293"/>
            <path id="Path_29039" data-name="Path 29039" d="M259.825,1565.657h-8.9l-1.539-4.127h3.845Zm-8.572-.465h6.955l-5.111-3.2h-3.039Z" transform="translate(-246.542 -1560.635)"/>
            <path id="Path_29040" data-name="Path 29040" d="M357.08,1609.97v8.856h6.176v-5.9Z" transform="translate(-337.554 -1601.573)" fill="#606060"/>
            <path id="Path_29041" data-name="Path 29041" d="M362.221,1617.055H355.58V1607.6l6.641,3.173Zm-6.176-.464h5.712v-5.521l-5.712-2.73Z" transform="translate(-336.286 -1599.57)"/>
            <path id="Path_29042" data-name="Path 29042" d="M407.2,1633.53v4.988h2.9v-4.592Z" transform="translate(-379.911 -1621.484)" fill="#929293"/>
            <path id="Path_29043" data-name="Path 29043" d="M409.061,1637.3H405.7v-5.487l3.361.465Zm-2.9-.464H408.6v-4.157l-2.432-.333Z" transform="translate(-378.644 -1620.031)"/>
            <path id="Path_29044" data-name="Path 29044" d="M431.9,1617.678l17.493-7.708,1.8,2.734-11.7,6.34h-7.6Z" transform="translate(-400.786 -1601.573)" fill="#929293"/>
            <path id="Path_29045" data-name="Path 29045" d="M438.289,1617.687H430.4v-1.75l17.81-7.847,2.052,3.109Zm-7.425-.464h7.307l11.423-6.195-1.556-2.357-17.174,7.57Z" transform="translate(-399.518 -1599.984)"/>
            <path id="Path_29046" data-name="Path 29046" d="M435.08,1616.6s4.154-3.663,4.21-4.154l6.669,1.047-10.66,5.129Z" transform="translate(-403.474 -1603.669)" fill="#606060"/>
            <path id="Path_29047" data-name="Path 29047" d="M433.776,1617.516l-.266-2.469.09-.081a36.077,36.077,0,0,0,4.134-4.017l.025-.229,7.645,1.2Zm.221-2.279.17,1.577,9.69-4.656-5.772-.907A37.065,37.065,0,0,1,434,1615.236Z" transform="translate(-402.147 -1602.207)"/>
            <rect id="Rectangle_12597" data-name="Rectangle 12597" width="3.17" height="8.236" transform="translate(39.314 19.165)" fill="#606060"/>
            <path id="Path_29048" data-name="Path 29048" d="M486.985,1686.7H483.35V1678h3.635Zm-3.17-.465h2.706v-7.773h-2.706Z" transform="translate(-444.268 -1659.067)"/>
            <rect id="Rectangle_12598" data-name="Rectangle 12598" width="9.839" height="3.389" transform="translate(46.967 18.456)" fill="#606060"/>
            <path id="Path_29049" data-name="Path 29049" d="M543.064,1677.273h-10.3v-3.853h10.3Zm-9.839-.465H542.6v-2.924h-9.375Z" transform="translate(-486.026 -1655.196)"/>
            <rect id="Rectangle_12599" data-name="Rectangle 12599" width="13.556" height="1.694" transform="translate(42.921 21.908)" fill="#606060"/>
            <path id="Path_29050" data-name="Path 29050" d="M520.661,1697.869H506.64v-2.159h14.021ZM507.1,1697.4H520.2v-1.23H507.1Z" transform="translate(-463.951 -1674.034)"/>
            <rect id="Rectangle_12600" data-name="Rectangle 12600" width="13.556" height="3.158" transform="translate(42.921 24.244)" fill="#606060"/>
            <path id="Path_29051" data-name="Path 29051" d="M520.661,1714.414H506.64v-3.624h14.021Zm-13.556-.465H520.2v-2.694H507.1Z" transform="translate(-463.951 -1686.778)"/>
            <path id="Path_29052" data-name="Path 29052" d="M494.257,1633.53v5.425H491.3v3.554H488.02v-1.859h-3.17v-1.914Z" transform="translate(-445.536 -1621.484)" fill="#929293"/>
            <path id="Path_29053" data-name="Path 29053" d="M490.265,1640.6H486.52v-1.859h-3.17v-2.281l9.872-5.462v6.051h-2.957Zm-3.279-.464H489.8v-3.553h2.958v-4.8l-8.942,4.956v1.549h3.17Z" transform="translate(-444.268 -1619.346)"/>
            <rect id="Rectangle_12601" data-name="Rectangle 12601" width="19.786" height="9.93" transform="translate(19.526 17.471)" fill="#929293"/>
            <path id="Path_29054" data-name="Path 29054" d="M375.832,1677.457H355.58v-10.4h20.253Zm-19.788-.465h19.323v-9.467H356.045Z" transform="translate(-336.286 -1649.821)"/>
            <path id="Path_29055" data-name="Path 29055" d="M742.79,1581.688l5.218-2.338-3.578,10.928Z" transform="translate(-663.528 -1575.695)" fill="#929293"/>
            <path id="Path_29056" data-name="Path 29056" d="M742.934,1588.849l-1.844-9.656,5.865-2.633Zm-1.318-9.382,1.436,7.525,3.134-9.574Z" transform="translate(-662.091 -1573.337)"/>
            <path id="Path_29057" data-name="Path 29057" d="M557.137,1622.636a23.184,23.184,0,0,0,13.558-2v8.406h-14.2v-6.41Z" transform="translate(-506.081 -1610.59)" fill="#606060"/>
            <path id="Path_29058" data-name="Path 29058" d="M569.668,1627.217H555v-6.88h.929a23.2,23.2,0,0,0,13.41-1.982l.328-.156Zm-14.205-.464H569.2v-7.809a23.668,23.668,0,0,1-13.348,1.871h-.39Z" transform="translate(-504.821 -1608.528)"/>
            <g id="Group_19018" data-name="Group 19018" transform="translate(0.427 0.41)" clip-path="url(#clip-path)">
              <path id="Path_29059" data-name="Path 29059" d="M654.579,1639.5l-.847-3.395a.828.828,0,0,0-.912-.62l-3.328.443a9.917,9.917,0,0,0-1.183-1.591l1.394-3.06a.827.827,0,0,0-.33-1.052l-3.008-1.8a.827.827,0,0,0-1.084.207l-2.041,2.667a10.15,10.15,0,0,0-1.961-.291l-1.183-3.142a.826.826,0,0,0-.977-.511l-3.407.853a.827.827,0,0,0-.619.913l.441,3.328a10.143,10.143,0,0,0-1.594,1.178l-3.059-1.394a.83.83,0,0,0-1.053.328l-1.8,3.014a.829.829,0,0,0,.207,1.084l2.667,2.041a10.1,10.1,0,0,0-.29,1.961l-3.144,1.183a.828.828,0,0,0-.511.977l.853,3.406a.827.827,0,0,0,.912.62l3.33-.443A10.1,10.1,0,0,0,633.23,1648l-1.386,3.059a.828.828,0,0,0,.328,1.053l3.008,1.8a.83.83,0,0,0,1.084-.208l2.041-2.668a9.962,9.962,0,0,0,1.961.291l1.182,3.142a.829.829,0,0,0,.977.512l3.407-.853a.831.831,0,0,0,.619-.913l-.443-3.329a10.083,10.083,0,0,0,1.591-1.182l3.06,1.394a.827.827,0,0,0,1.052-.328l1.8-3.009a.827.827,0,0,0-.208-1.084l-2.67-2.057a10.074,10.074,0,0,0,.291-1.96l3.142-1.182A.826.826,0,0,0,654.579,1639.5Zm-12.344,7.5a6.026,6.026,0,1,1,4.372-7.312A6.026,6.026,0,0,1,642.236,1647.009Z" transform="translate(-566.037 -1616.658)" fill="#929293"/>
              <path id="Path_29060" data-name="Path 29060" d="M640.55,1653.566a1.14,1.14,0,0,1-1.064-.738l-1.112-2.955a10.259,10.259,0,0,1-1.617-.24l-1.919,2.507a1.138,1.138,0,0,1-1.488.285l-3.009-1.8a1.139,1.139,0,0,1-.452-1.445l1.3-2.877a10.6,10.6,0,0,1-.976-1.313l-3.129.415a1.137,1.137,0,0,1-1.254-.851l-.853-3.407a1.135,1.135,0,0,1,.7-1.341l2.955-1.112a10.385,10.385,0,0,1,.24-1.619l-2.507-1.918a1.137,1.137,0,0,1-.285-1.489l1.8-3.008a1.135,1.135,0,0,1,1.445-.452l2.876,1.3a10.506,10.506,0,0,1,1.313-.976l-.415-3.13a1.137,1.137,0,0,1,.85-1.253l3.407-.853a1.135,1.135,0,0,1,1.341.7l1.112,2.955a10.4,10.4,0,0,1,1.618.24l1.919-2.508a1.136,1.136,0,0,1,1.488-.285l3.008,1.8a1.138,1.138,0,0,1,.452,1.446l-1.3,2.876a10.437,10.437,0,0,1,.976,1.312l3.13-.415a1.134,1.134,0,0,1,1.253.852l.854,3.407a1.138,1.138,0,0,1-.7,1.343l-2.953,1.11a10.338,10.338,0,0,1-.24,1.619l2.507,1.919a1.138,1.138,0,0,1,.285,1.488l-1.8,3.009a1.137,1.137,0,0,1-1.447.451l-2.876-1.3a10.417,10.417,0,0,1-1.313.976l.417,3.128a1.139,1.139,0,0,1-.852,1.255l-3.407.853A1.142,1.142,0,0,1,640.55,1653.566Zm-4.039-4.631.2.051a9.743,9.743,0,0,0,1.9.28l.2.011,1.254,3.333a.518.518,0,0,0,.61.322l3.407-.854a.518.518,0,0,0,.387-.572l-.465-3.531.175-.1a9.92,9.92,0,0,0,1.549-1.146l.155-.137,3.252,1.47a.52.52,0,0,0,.66-.206l1.8-3.007a.518.518,0,0,0-.128-.679l-2.83-2.168.049-.2a9.719,9.719,0,0,0,.282-1.9l.009-.2,3.334-1.255a.516.516,0,0,0,.319-.61l-.853-3.407a.519.519,0,0,0-.572-.388l-3.53.465-.105-.174a9.736,9.736,0,0,0-1.146-1.548l-.136-.155,1.471-3.252a.52.52,0,0,0-.206-.659l-3.009-1.8a.517.517,0,0,0-.677.13l-2.168,2.83-.2-.049a9.73,9.73,0,0,0-1.9-.282l-.2-.009-1.255-3.335a.516.516,0,0,0-.62-.319l-3.407.853a.517.517,0,0,0-.387.57l.464,3.531-.175.106a9.7,9.7,0,0,0-1.549,1.145l-.155.138-3.252-1.471a.517.517,0,0,0-.658.206l-1.8,3.008a.518.518,0,0,0,.13.678l2.828,2.168-.05.2a9.848,9.848,0,0,0-.28,1.9l-.011.2-3.333,1.254a.52.52,0,0,0-.32.612l.853,3.407a.519.519,0,0,0,.572.388l3.531-.465.1.174a9.9,9.9,0,0,0,1.146,1.549l.136.154-1.47,3.252a.517.517,0,0,0,.206.658l3.008,1.8a.52.52,0,0,0,.678-.13Zm2.575-3.178a6.341,6.341,0,1,1,1.549-.192h0a6.426,6.426,0,0,1-1.549.189Zm.012-12.057a5.718,5.718,0,1,0,1.386,11.264h0A5.719,5.719,0,0,0,639.1,1633.7Z" transform="translate(-564.362 -1614.91)"/>
            </g>
            <path id="Path_29062" data-name="Path 29062" d="M689.465,1681.839s-3.927-4.927-9.038-.376c0,0-3.051,4.044-.291,7.347h6.912Z" transform="translate(-609.6 -1660.363)" fill="#606060"/>
            <rect id="Rectangle_12602" data-name="Rectangle 12602" width="0.619" height="10.119" transform="matrix(0.765, -0.644, 0.644, 0.765, 70.852, 21.053)"/>
          </g>
          <g id="DRESS" transform="translate(20.97 95.795)">
            <path id="Path_29063" data-name="Path 29063" d="M263.262,681.242,228.547,663.11s.892,8.218-10.113,13.319c0,0-8.416,2.672-12.422,1.834l-.04-.008c-.057.017-.077-.014-.138,0-.06-.014-.082.017-.139,0l-.037.008c-4.007.838-12.424-1.834-12.424-1.834-11.005-5.1-10.112-13.319-10.112-13.319L148.41,681.242l9.622,36.911,4.906,48.136-3.5,34.546c24.281,11.571,44.335,11.422,46.394,11.374,2.058.048,22.114.2,46.393-11.374l-3.5-34.546,4.906-48.136Z" transform="translate(-148.184 -662.877)" fill="#05426f"/>
            <path id="Path_29064" data-name="Path 29064" d="M205.345,811.179c-.339,0-.592,0-.751-.008-2.191.049-22.216.17-46.488-11.4a.232.232,0,0,1-.132-.232l3.5-34.522-4.9-48.094-9.61-36.894a.232.232,0,0,1,.116-.265l34.705-18.133a.232.232,0,0,1,.339.231,10.273,10.273,0,0,0,.929,4.655c1.038,2.41,3.449,5.825,9.041,8.422.387.121,8.465,2.622,12.292,1.823l.045-.008a.243.243,0,0,1,.076,0,.365.365,0,0,1,.1,0,.344.344,0,0,1,.1,0,.29.29,0,0,1,.073,0l.039.008c3.836.8,11.914-1.7,12.3-1.821,5.61-2.6,8.019-6.031,9.054-8.447a10.244,10.244,0,0,0,.912-4.631.231.231,0,0,1,.338-.231l34.705,18.131a.232.232,0,0,1,.118.265l-9.618,36.894-4.9,48.094,3.5,34.522a.232.232,0,0,1-.132.232C228.575,810.5,209.714,811.179,205.345,811.179Zm-.751-.472c2.2.053,22.041.17,46.152-11.281l-3.481-34.382a.224.224,0,0,1,0-.047l4.908-48.136a.144.144,0,0,1,0-.036l9.58-36.728-34.188-17.865a11.291,11.291,0,0,1-.966,4.445c-1.067,2.493-3.548,6.024-9.292,8.691l-.028.011c-.3.095-6.384,2.014-10.64,2.014a9.525,9.525,0,0,1-1.894-.166.406.406,0,0,1-.105,0,.232.232,0,0,1-.065,0,.441.441,0,0,1-.105,0,9.5,9.5,0,0,1-1.9.167c-4.251,0-10.339-1.914-10.637-2.013l-.028-.011c-5.752-2.667-8.231-6.195-9.292-8.691a11.26,11.26,0,0,1-.966-4.445l-34.2,17.863,9.577,36.726a.3.3,0,0,1,0,.036L161.931,765a.237.237,0,0,1,0,.047l-3.482,34.382c24.115,11.453,43.953,11.335,46.146,11.283ZM204.654,677.206Zm.02-.449Z" transform="translate(-146.95 -661.607)"/>
            <path id="Path_29065" data-name="Path 29065" d="M395.184,693.746l.685.092a15.128,15.128,0,0,0,1.832.11,51.313,51.313,0,0,0,10.308-2.1,20.481,20.481,0,0,0,8.566-7.223,12.534,12.534,0,0,0,1.2-3.39l-5.73,31.575-16.819,98.434c0,.434-.11.866-.11,1.3h0c0-.434-.11-.866-.11-1.3L378.19,712.805l-5.73-31.575a12.577,12.577,0,0,0,1.2,3.39,20.48,20.48,0,0,0,8.566,7.223,51.231,51.231,0,0,0,10.3,2.1Z" transform="translate(-337.535 -678.191)" fill="#0769b2"/>
          </g>
          <g id="right_hand" data-name="right hand" transform="translate(125.883 114.003)">
            <path id="Path_29066" data-name="Path 29066" d="M914.594,1441.655a8.7,8.7,0,0,0-11.445-1.527l-5.7,7.163-2.3,19.186s.155,3.28,2.943-1.148c0,0,1.968-5.083,1.149-8.855,0,0,1.476-5.411,5.247,0,0,0,.655,3.444-1.476,5.74l-1.8,6.56-7.052,2.787s2.624,2.871,8.691,1.354l3.607-2.013,5.74-7.871,2.388-21.372" transform="translate(-883.351 -1336.499)" fill="#facc9b"/>
            <path id="Path_29067" data-name="Path 29067" d="M898.025,1472.664c-3.672,0-5.331-1.758-5.421-1.859l-.155-.166,7.188-2.842,1.793-6.522.026-.028c1.945-2.1,1.5-5.226,1.442-5.575-1.173-1.674-2.221-2.446-3.113-2.291-1.172.2-1.745,1.966-1.828,2.237.8,3.769-1.084,8.7-1.163,8.905l-.014.026c-1.1,1.754-1.937,2.527-2.546,2.369s-.686-1.18-.691-1.3v-.026l2.3-19.229.028-.034,5.718-7.186.025-.013a8.8,8.8,0,0,1,8.447-.775,9.26,9.26,0,0,1,3.2,2.345l.042.051-.008.064-2.391,21.419-.025.034-5.76,7.9-3.667,2.048A14.15,14.15,0,0,1,898.025,1472.664Zm-5.016-1.9c.666.57,3.307,2.41,8.347,1.156l3.562-1.984,5.695-7.81,2.374-21.27a9.257,9.257,0,0,0-3.053-2.215,8.489,8.489,0,0,0-8.126.756l-5.656,7.107-2.289,19.128c.016.246.129.912.465,1,.255.067.881-.133,2.2-2.221.11-.295,1.916-5.165,1.135-8.752v-.037l.009-.037c.025-.092.629-2.244,2.085-2.5,1.027-.178,2.184.646,3.44,2.447l.018.028v.032c.028.142.641,3.521-1.488,5.845l-1.823,6.6Z" transform="translate(-881.906 -1335.648)"/>
            <path id="Path_29068" data-name="Path 29068" d="M914.2,1463.591l-5.658,7.762-3.69,2.109c-6.04,1.279-8.208-1.191-8.208-1.191l6.794-2.695,1.831-6.613c2.132-2.3,1.576-5.885,1.576-5.885-3.982-5.76-5.7.05-5.7.05.819,3.771-1.07,8.784-1.07,8.784-2.788,4.428-2.681,1.213-2.681,1.213l.85-6.732s.3-5.411,4.1-8.16c0,0,5.411-.493,8.035-7.871l-.511-4.3-.106-.6s3.417-.452,6.791,2.876l-1.23,10.841Z" transform="translate(-885.447 -1337.18)" fill="#eca867"/>
            <path id="Path_29069" data-name="Path 29069" d="M914.2,1463.85l-5.658,7.763-3.69,2.109c-6.066,1.518-8.208-1.191-8.208-1.191l2.2-.872a6.666,6.666,0,0,0,8.029-1.784l4.657-5.247a12.467,12.467,0,0,0,1.149-5.575s-.657-9.51,1.639-14.1c0,0,1.019-3.252-3.791-3.537l-5.153-.256c5.776-3.872,11.114,1.437,11.114,1.437L914.2,1463.85" transform="translate(-885.447 -1337.438)" fill="#d29053"/>
            <path id="Path_29070" data-name="Path 29070" d="M864.09,1076.052a19.8,19.8,0,0,0,2.041,3.314s.438.291.383,3.9c0,0-.819,16.881,1.312,20.388,0,0,1.312,6.34,8.363,16.125l2.187,9.894s6.195-2.46,10.805,2.022c0,0-.638-6.395-1.95-8.363,0,0-.6-10.385,1.093-16.015,0,0,3.139-13.7-4.045-22.738a11.619,11.619,0,0,1-1.53-8.91l.72-3.8S876.353,1077.69,864.09,1076.052Z" transform="translate(-857.938 -1026.539)" fill="#facc9b"/>
            <path id="Path_29071" data-name="Path 29071" d="M887.905,1129.98l-.31-.3c-4.482-4.358-10.579-2.013-10.64-1.991l-.169.067-2.219-10.038c-6.743-9.365-8.259-15.67-8.363-16.131-2.116-3.547-1.353-19.765-1.321-20.454.048-3.153-.282-3.717-.327-3.773l-.02-.02a20.2,20.2,0,0,1-2.061-3.347l-.126-.259.285.039c12.049,1.609,19.19-4.09,19.261-4.147l.33-.27-.8,4.215a11.559,11.559,0,0,0,1.5,8.789c3.736,4.7,4.646,10.669,4.747,14.849a36.032,36.032,0,0,1-.675,8.016c-1.615,5.371-1.13,15.21-1.084,15.932,1.3,2.013,1.925,8.136,1.952,8.4Zm-7.031-3.252a9.737,9.737,0,0,1,6.636,2.441c-.167-1.444-.794-6.252-1.88-7.879l-.023-.035v-.042c0-.1-.584-10.477,1.1-16.069a35.813,35.813,0,0,0,.664-7.937c-.1-4.131-1-10.025-4.683-14.66a11.9,11.9,0,0,1-1.56-9.04l.646-3.407c-1.519,1.075-8.306,5.332-18.884,4.011a18.548,18.548,0,0,0,1.885,3.017c.141.141.474.812.424,4.008,0,.173-.793,16.881,1.29,20.305l.014.023v.027c.014.063,1.394,6.427,8.337,16.066l.019.024.008.031,2.148,9.723a12.523,12.523,0,0,1,3.866-.6ZM864.557,1077.358Z" transform="translate(-856.467 -1024.417)"/>
            <path id="Path_29072" data-name="Path 29072" d="M866,1078.7c12.3,1.385,18.8-3.935,18.8-3.935l-.67,3.033a12.046,12.046,0,0,0,1.363,8.919c7.725,9.657,4.118,23.341,4.118,23.341-1.385,5.484-.948,15.8-.948,15.8,1.166,1.438,1.931,7.87,1.931,7.87a10,10,0,0,0-6.833-2.478s1.588-27.934-6.283-41.381c0,0-7.555-2.733-9.28-7.886a10.452,10.452,0,0,1-1.053-1.239A10.316,10.316,0,0,1,866,1078.7Z" transform="translate(-859.552 -1028.981)" fill="#eca867"/>
            <path id="Path_29073" data-name="Path 29073" d="M868.8,1082.391c-.265-.054-.835-.907-.835-.907a18.584,18.584,0,0,1-2-3.282c12.12,1.313,18.843-4,18.843-4l-.709,3.872a11.322,11.322,0,0,0,1.89,8.846c.35.438.609.911.911,1.37,0,0,1.646,7.081-2.126,9.7,0,0-2.281,1.021-1.072-10.332,0,0,2-6.723-4.631-6.286C879.075,1081.37,876.015,1083.886,868.8,1082.391Z" transform="translate(-859.527 -1028.508)" fill="#c07f3f"/>
            <path id="Path_29074" data-name="Path 29074" d="M835.367,780.139s-10.932,35.093-9.949,43.728l2.787,4.1a18.91,18.91,0,0,0,6.6,2.167c9.37,1.2,16.463-5.318,17.756-6.55,0,0,3.06-5.029-4.3-16.763a15.809,15.809,0,0,1-.146-8.381,18.271,18.271,0,0,0-.574-6.094,19.735,19.735,0,0,0-7.734-10.741A7.056,7.056,0,0,0,835.367,780.139Z" transform="translate(-825.203 -779.981)" fill="#05426f"/>
            <path id="Path_29075" data-name="Path 29075" d="M836.26,829.617a18.127,18.127,0,0,1-2.308-.155,19.013,19.013,0,0,1-6.659-2.168l-.034-.018-2.83-4.162v-.039c-.977-8.569,9.845-43.44,9.954-43.792l.033-.1h.107a7.186,7.186,0,0,1,4.553,1.491,19.893,19.893,0,0,1,7.785,10.821,18.409,18.409,0,0,1,.579,6.147v.026a15.668,15.668,0,0,0,.138,8.28c3.812,6.08,4.781,10.336,4.923,12.838a7.459,7.459,0,0,1-.634,4.07l-.025.031C850.075,824.555,844.1,829.617,836.26,829.617Zm-8.786-2.578a18.729,18.729,0,0,0,6.518,2.13c8.8,1.13,15.686-4.662,17.612-6.494a7.568,7.568,0,0,0,.578-3.912c-.155-2.463-1.115-6.66-4.885-12.672l-.019-.039a15.954,15.954,0,0,1-.155-8.45,18.1,18.1,0,0,0-.57-6.029,19.592,19.592,0,0,0-7.674-10.654,7.086,7.086,0,0,0-4.24-1.436c-.654,2.113-10.822,35.187-9.912,43.519Z" transform="translate(-824.367 -779.171)"/>
            <path id="Path_29076" data-name="Path 29076" d="M857.877,831.78s4.956-23.759,9.182-22.3c0,0,6.413,4.3,3.572,19.971,0,0-2.26,5.028-3.5,6.413,0,0-.743,2.678,2.989-1.969,0,0,2.04-3.929,3.133,2.737,0,0,5.213,9.655-1.969,16.392a18.7,18.7,0,0,1-5.3,1.6,19.039,19.039,0,0,1-9.128-.948S854.887,844.681,857.877,831.78Z" transform="translate(-851.286 -804.73)" fill="#0769b2"/>
            <path id="Path_29077" data-name="Path 29077" d="M887.982,1128.957c-4.459-1-9.481-7.866-9.532-7.935l.126-.092c.051.07,5.039,6.889,9.447,7.875Z" transform="translate(-870.074 -1068.001)"/>
            <path id="Path_29078" data-name="Path 29078" d="M977.961,1144.675a49.656,49.656,0,0,1,.577-13.265l.155.03a49.382,49.382,0,0,0-.577,13.217Z" transform="translate(-953.98 -1076.858)"/>
          </g>
          <g id="collar_neck" data-name="collar neck" transform="translate(55.893 92.648)">
            <path id="Path_29079" data-name="Path 29079" d="M377.8,642.29s-6.314-.11-3.717,7.078a12.313,12.313,0,0,0,2.8,4.693Z" transform="translate(-373.297 -642.134)" fill="#05426f"/>
            <path id="Path_29080" data-name="Path 29080" d="M376.033,653.368a.156.156,0,0,1-.1-.042,12.33,12.33,0,0,1-2.85-4.759c-.867-2.4-.846-4.273.07-5.551a4.9,4.9,0,0,1,3.8-1.728.152.152,0,0,1,.152.166l-.911,11.77a.155.155,0,0,1-.1.133A.183.183,0,0,1,376.033,653.368Zm.743-11.771a4.544,4.544,0,0,0-3.378,1.6c-.85,1.191-.858,2.964-.025,5.266a12.672,12.672,0,0,0,2.531,4.4Z" transform="translate(-372.446 -641.287)"/>
            <path id="Path_29081" data-name="Path 29081" d="M637,642.29s6.314-.11,3.717,7.078a12.3,12.3,0,0,1-2.806,4.693Z" transform="translate(-596.028 -642.134)" fill="#05426f"/>
            <path id="Path_29082" data-name="Path 29082" d="M637.063,653.37a.174.174,0,0,1-.055-.011.155.155,0,0,1-.1-.133L636,641.456a.154.154,0,0,1,.152-.166,4.915,4.915,0,0,1,3.8,1.728c.915,1.278.929,3.148.067,5.557a12.3,12.3,0,0,1-2.847,4.753A.154.154,0,0,1,637.063,653.37Zm-.743-11.77.874,11.272a12.667,12.667,0,0,0,2.529-4.4c.835-2.314.825-4.087-.025-5.278a4.545,4.545,0,0,0-3.378-1.592Z" transform="translate(-595.18 -641.29)"/>
          </g>
          <g id="neck" transform="translate(59.48 87.993)">
            <path id="Path_29083" data-name="Path 29083" d="M396.229,612.323s18.512,5.9,35.785-1.093l2.551,15.888a19.971,19.971,0,0,1-10.677,6.3s-6.128,1.6-9.2.8a18,18,0,0,1-8.616-.8l-3.68-.948a19.878,19.878,0,0,1-6.779-4.663Z" transform="translate(-395.61 -611.23)" fill="#c07f3f"/>
            <path id="Path_29084" data-name="Path 29084" d="M398.226,618.976s1.769,5.73,18.806,4.857c0,0,12.08-1.931,12.376,1.694,0,0-.142,6.76-11.842,11.716,0,0-8.317,4.117-14.855,1.385,0,0-4.208-1.892-6.3-4.353l-.09-.09.174-1.586.184-2.391.232-3.224.31-3.943-.393-4.278v-.122Z" transform="translate(-396.21 -617.492)" fill="#facc9b"/>
          </g>
          <g id="bottom" transform="translate(47.334 265.691)">
            <path id="Path_29085" data-name="Path 29085" d="M349.768,1759.61H318.32c.5,2.942,2.52,7.024,5.43,10.932,8.608,11.565,24.347,10.82,26.018,10.715,1.67.1,17.409.85,26.019-10.715,2.91-3.908,4.923-7.99,5.43-10.932Z" transform="translate(-318.143 -1759.455)" fill="#05426f"/>
            <path id="Path_29086" data-name="Path 29086" d="M350.492,1780.615c-.774,0-1.351-.028-1.687-.049a37.334,37.334,0,0,1-10.435-.988c-6.788-1.62-12.069-4.915-15.7-9.792-2.905-3.9-4.947-8.014-5.459-11l-.031-.181h63.256l-.031.181c-.513,2.985-2.552,7.1-5.458,11-3.63,4.877-8.913,8.172-15.7,9.792A38.419,38.419,0,0,1,350.492,1780.615Zm-1.687-.36h.009a36.971,36.971,0,0,0,10.362-.977c6.714-1.6,11.936-4.856,15.523-9.675,2.819-3.786,4.813-7.76,5.368-10.686H317.542c.554,2.924,2.549,6.9,5.368,10.686,3.585,4.819,8.809,8.072,15.523,9.675a36.971,36.971,0,0,0,10.362.977Z" transform="translate(-317.18 -1758.61)"/>
            <path id="Path_29087" data-name="Path 29087" d="M477.858,1760.666H470.13l7.728,21.23v-.054l7.727-21.232Z" transform="translate(-446.442 -1760.3)" fill="#0769b2"/>
          </g>
          <g id="face" transform="translate(52.455 0)">
            <path id="Path_29088" data-name="Path 29088" d="M494.967,556.615a4.582,4.582,0,0,1-2.912-1.013.542.542,0,1,1,.739-.794c.081.073,1.874,1.649,4.73-.067a.542.542,0,1,1,.559.929A6.037,6.037,0,0,1,494.967,556.615Z" transform="translate(-469.948 -475.43)" fill="#636363"/>
            <path id="Path_29089" data-name="Path 29089" d="M375.99,318.522s-4.982-19.4-4.454-33.171v-9.072s3.369-.874,5.119-7.871c0,0,2.842-7.762,10.713-1.093,0,0,5.247,5.685,13.556-1.312,0,0,6.887-5.357,8.964.218a5.8,5.8,0,0,1-.655,3.609s-.11,3.06,4.045,5.9a17.731,17.731,0,0,1,1.2,8.856s-.671,22.065-2.74,32.952C411.739,317.539,397.082,324.361,375.99,318.522Z" transform="translate(-368.206 -229.518)" fill="#eca867"/>
            <path id="Path_29090" data-name="Path 29090" d="M392.19,320.171a63.984,63.984,0,0,1-17.082-2.36l-.087-.023L375,317.7c-.05-.2-4.981-19.576-4.459-33.215v-9.193l.116-.029c.031-.009,3.305-.954,5.007-7.759v-.016a6.322,6.322,0,0,1,3.849-3.745c2.052-.542,4.445.328,7.11,2.586l.014.012a7.606,7.606,0,0,0,3.612,1.927c3.022.7,6.39-.429,9.743-3.252.155-.129,3.929-3.022,6.782-2.213a3.694,3.694,0,0,1,2.427,2.5v.031a5.915,5.915,0,0,1-.654,3.678c.009.373.212,3.152,3.977,5.73l.034.023.019.037a18.081,18.081,0,0,1,1.217,8.938c0,.211-.7,22.192-2.743,32.965l-.016.079-.071.033a41.054,41.054,0,0,1-10.006,2.695A57.451,57.451,0,0,1,392.19,320.171Zm-16.914-2.633a61.5,61.5,0,0,0,25.631,1.669,42.055,42.055,0,0,0,9.851-2.633c2.032-10.79,2.718-32.644,2.718-32.859a17.87,17.87,0,0,0-1.171-8.747c-4.14-2.85-4.081-5.885-4.076-6.012v-.048l.026-.037a5.618,5.618,0,0,0,.632-3.482,3.4,3.4,0,0,0-2.216-2.289c-2.7-.774-6.464,2.125-6.5,2.154-4.336,3.652-7.846,3.815-10.025,3.308a7.805,7.805,0,0,1-3.734-2.013c-2.58-2.185-4.877-3.033-6.824-2.518-2.495.661-3.574,3.385-3.635,3.545-1.59,6.35-4.491,7.714-5.111,7.937v8.961C370.345,297.618,374.914,316.1,375.276,317.538Z" transform="translate(-367.364 -228.651)"/>
            <path id="Path_29091" data-name="Path 29091" d="M387.826,287.512s4.508-6.308,5.324-8.964c0,0,1.2-2.3,5.029,1.859,0,0,2.851,3.3,10.937,2.308,0,0,3.057-2.526,4.041,3.376,0,0,5.575,15.69,2.733,32.141,0,0-1.66,11.177-3.728,13.57a39.369,39.369,0,0,1-17.824-.808s-6.872-14.62-6-36.265A24.412,24.412,0,0,1,387.826,287.512Z" transform="translate(-381.934 -241.544)" fill="#facc9b"/>
            <rect id="Rectangle_12603" data-name="Rectangle 12603" width="3.328" height="15.201" transform="translate(46.378 48.437)" fill="#cb8a4a"/>
            <path id="Path_29092" data-name="Path 29092" d="M652.348,370.335H648.71V354.82h3.638Zm-3.328-.31h3.018v-14.9H649.02Z" transform="translate(-602.487 -306.538)"/>
            <rect id="Rectangle_12604" data-name="Rectangle 12604" width="3.328" height="15.201" transform="translate(0.155 48.437)" fill="#cb8a4a"/>
            <path id="Path_29093" data-name="Path 29093" d="M353.888,370.335H350.25V354.82h3.638Zm-3.328-.31h3.019v-14.9H350.56Z" transform="translate(-350.25 -306.538)"/>
            <path id="Path_29094" data-name="Path 29094" d="M683.41,471.58a3.039,3.039,0,0,0,.285.64,2.763,2.763,0,0,0,.412.55,2.842,2.842,0,0,0,.529.44,4.825,4.825,0,0,0,.62.339,3.444,3.444,0,0,1-.347-.09,2.167,2.167,0,0,1-.332-.146,2.2,2.2,0,0,1-.579-.437,2.176,2.176,0,0,1-.407-.6A1.863,1.863,0,0,1,683.41,471.58Z" transform="translate(-631.813 -405.215)" fill="#fff"/>
            <ellipse id="Ellipse_1602" data-name="Ellipse 1602" cx="5.188" cy="5.188" rx="5.188" ry="5.188" transform="translate(6.982 58.448)" fill="none"/>
            <ellipse id="Ellipse_1603" data-name="Ellipse 1603" cx="2.987" cy="2.987" rx="2.987" ry="2.987" transform="translate(9.182 60.649)"/>
            <ellipse id="Ellipse_1604" data-name="Ellipse 1604" cx="0.585" cy="0.585" rx="0.585" ry="0.585" transform="translate(10.714 63.051)" fill="#fff"/>
            <rect id="Rectangle_12605" data-name="Rectangle 12605" width="1.821" height="0.585" rx="0.293" transform="translate(13.977 63.636)" fill="#fff"/>
            <path id="Path_29095" data-name="Path 29095" d="M442.22,464.569a3.073,3.073,0,0,0,.62-.33,2.89,2.89,0,0,0,.519-.451,3,3,0,0,0,.4-.561,4.977,4.977,0,0,0,.293-.638c-.017.118-.036.235-.064.353a2.347,2.347,0,0,1-.516.949,2.171,2.171,0,0,1-.57.449A1.822,1.822,0,0,1,442.22,464.569Z" transform="translate(-427.976 -397.617)" fill="#fff"/>
            <ellipse id="Ellipse_1605" data-name="Ellipse 1605" cx="5.188" cy="5.188" rx="5.188" ry="5.188" transform="translate(32.052 59.004)" fill="#908a8c"/>
            <path id="Path_29096" data-name="Path 29096" d="M561.131,433.391a5.421,5.421,0,1,1,5.42-5.421A5.421,5.421,0,0,1,561.131,433.391Zm0-10.376a4.956,4.956,0,1,0,4.956,4.956,4.956,4.956,0,0,0-4.956-4.956Z" transform="translate(-523.89 -363.778)" fill="#494949"/>
            <ellipse id="Ellipse_1606" data-name="Ellipse 1606" cx="2.987" cy="2.987" rx="2.987" ry="2.987" transform="translate(34.253 61.205)"/>
            <ellipse id="Ellipse_1607" data-name="Ellipse 1607" cx="0.757" cy="0.757" rx="0.757" ry="0.757" transform="translate(33.943 62.431)" fill="#fff"/>
            <ellipse id="Ellipse_1608" data-name="Ellipse 1608" cx="0.585" cy="0.585" rx="0.585" ry="0.585" transform="translate(35.785 63.607)" fill="#fff"/>
            <rect id="Rectangle_12606" data-name="Rectangle 12606" width="1.821" height="0.585" rx="0.293" transform="translate(39.048 64.192)" fill="#fff"/>
            <path id="Path_29097" data-name="Path 29097" d="M604.1,468.157a3.033,3.033,0,0,0,.619-.33,2.873,2.873,0,0,0,.519-.451,2.906,2.906,0,0,0,.4-.567,4.929,4.929,0,0,0,.293-.64,3.575,3.575,0,0,1-.063.353,2.246,2.246,0,0,1-1.084,1.394A1.835,1.835,0,0,1,604.1,468.157Z" transform="translate(-564.786 -400.643)" fill="#fff"/>
            <path id="Path_29098" data-name="Path 29098" d="M500.978,442.59,498.5,453.713h2.478Z" transform="translate(-475.54 -380.714)" fill="#eca867"/>
            <path id="Path_29099" data-name="Path 29099" d="M514.5,442.59l2.478,11.123H514.5Z" transform="translate(-489.062 -380.714)" fill="#f4b67d"/>
            <path id="Path_29100" data-name="Path 29100" d="M390.563,54.5s-1.786-6.3,5.575-8.891c0,0,11.287-5.448,19.559,4.245,0,0,5.758,4.846,4.374,12.39,0,0,.108,3.534-2.989,7.725a23.888,23.888,0,0,0-3.652,13.41s3.1,6.941-.894,10.612l-1.288-3.853c-4.154-2.842-4.044-5.9-4.044-5.9a5.8,5.8,0,0,0,.655-3.609c-2.077-5.575-8.964-.218-8.964-.218-8.309,7-13.556,1.312-13.556,1.312-7.871-6.669-10.714,1.093-10.714,1.093-1.747,7-5.117,7.872-5.117,7.872s-1.194-15.523.748-19.021a5.184,5.184,0,0,1,3.368-1.093s2.822-.547,4.468-7c0,0,1.5-2.405,7.149-1.64,0,0,10.24,1.858,13.192-7.872,0,0,1.631-3.407-2.851-3.553,0,0-2.187.091-2.041,2.97,0,0,1,2.751-.327,2.879C393.214,56.363,391.793,56.928,390.563,54.5Z" transform="translate(-366.219 -43.929)" fill="#103442"/>
            <path id="Path_29101" data-name="Path 29101" d="M411.61,93.407l-1.346-4.027c-4.134-2.85-4.073-5.885-4.069-6.007v-.051l.025-.037a5.622,5.622,0,0,0,.634-3.482,3.4,3.4,0,0,0-2.216-2.289c-2.7-.767-6.464,2.125-6.5,2.154-4.336,3.652-7.844,3.815-10.023,3.308a7.8,7.8,0,0,1-3.734-2.013c-2.58-2.184-4.875-3.031-6.814-2.518-2.5.658-3.578,3.387-3.638,3.545-1.751,7-5.086,7.939-5.227,7.974l-.18.046-.014-.184c-.05-.635-1.176-15.61.765-19.108l.026-.034a5.276,5.276,0,0,1,3.457-1.138c.17-.043,2.788-.8,4.336-6.881l.019-.043c.063-.1,1.62-2.478,7.3-1.7a14.256,14.256,0,0,0,5.439-.287,10.28,10.28,0,0,0,7.589-7.477l.008-.022a2.683,2.683,0,0,0,.019-2.232c-.417-.685-1.336-1.055-2.735-1.1a2.056,2.056,0,0,0-1.279.644,2.89,2.89,0,0,0-.6,2.14c.08.226.654,1.92.172,2.684a.8.8,0,0,1-.62.378c-.2.068-1.614.444-2.823-1.941l-.011-.028c-.018-.065-1.738-6.471,5.665-9.077a18.894,18.894,0,0,1,6.731-1.524,15.789,15.789,0,0,1,13,5.8c.277.24,5.764,5.128,4.419,12.511,0,.31,0,3.717-3.019,7.806a23.958,23.958,0,0,0-3.622,13.285c.212.5,2.943,7.178-.943,10.759ZM406.5,83.422c.009.373.212,3.152,3.977,5.73l.043.029,1.225,3.669c3.593-3.6.712-10.2.683-10.266l-.013-.028v-.031a24.3,24.3,0,0,1,3.681-13.5,13.565,13.565,0,0,0,2.969-7.632v-.034c1.353-7.369-4.264-12.195-4.319-12.235l-.017-.025a15.5,15.5,0,0,0-12.746-5.7,18.515,18.515,0,0,0-6.628,1.5h-.016c-3,1.055-4.833,2.84-5.448,5.307a7.318,7.318,0,0,0-.033,3.382c1.151,2.255,2.435,1.775,2.449,1.77l.042-.011a.5.5,0,0,0,.4-.237c.355-.559-.029-1.947-.208-2.435l-.009-.045a3.2,3.2,0,0,1,.688-2.393,2.323,2.323,0,0,1,1.5-.74c1.522.05,2.529.465,3,1.25a2.908,2.908,0,0,1,0,2.514,10.665,10.665,0,0,1-7.81,7.679,14.558,14.558,0,0,1-5.555.29c-5.2-.7-6.824,1.34-6.969,1.549-1.665,6.458-4.48,7.068-4.6,7.092h-.022a5.231,5.231,0,0,0-3.252,1.035c-1.762,3.24-.863,16.869-.731,18.71.708-.31,3.356-1.806,4.827-7.693V81.9a6.317,6.317,0,0,1,3.849-3.745c2.052-.542,4.443.328,7.11,2.586l.013.012a7.626,7.626,0,0,0,3.6,1.927c3.021.7,6.39-.429,9.743-3.252.155-.129,3.929-3.022,6.78-2.213a3.693,3.693,0,0,1,2.428,2.495v.031a5.772,5.772,0,0,1-.64,3.683Z" transform="translate(-365.364 -43.064)"/>
            <path id="Path_29102" data-name="Path 29102" d="M393.214,76.11c1.394.017.327-2.879.327-2.879-.146-2.879,2.041-2.97,2.041-2.97,4.482.146,2.851,3.553,2.851,3.553-2.952,9.731-13.192,7.872-13.192,7.872-5.648-.765-7.149,1.64-7.149,1.64-1.646,6.449-4.468,7-4.468,7a5.184,5.184,0,0,0-3.368,1.093c-1.942,3.5-.748,19.023-.748,19.023s1.732-.929.948-1.622c0,0-.674-1.129.821-2.751a11.3,11.3,0,0,0,1.749-4.92s1.9-4.682,6.1-4.5l2.679.146a8.364,8.364,0,0,1,3.389,1.055s7.758,1.46,13.527-2.913c0,0,11.234-6.667,10.908-15.195,0,0-1.039-12.244-9.566-12.244,0,0-5.029-.711-7.051,3.881a6.246,6.246,0,0,0-.082,3.881S392.956,76.106,393.214,76.11Z" transform="translate(-366.219 -63.676)" fill="#150b01"/>
          </g>
          <g id="nose" transform="translate(75.657 61.46)">
            <path id="Path_29103" data-name="Path 29103" d="M503.4,442.03l-2.7,11.121h5.4Z" transform="translate(-500.601 -441.702)" fill="#eca867"/>
            <path id="Path_29104" data-name="Path 29104" d="M505.66,451.437h-5.6l2.8-11.527Zm-5.4-.155h5.215l-2.6-10.716Z" transform="translate(-500.06 -439.91)"/>
            <path id="Path_29105" data-name="Path 29105" d="M518.14,444.33l2.6,10.685-2.6,0Z" transform="translate(-515.34 -443.646)" fill="#f4b67d"/>
          </g>
          <g id="lens" transform="translate(54.894 54.83)">
            <g id="Group_19019" data-name="Group 19019">
              <ellipse id="Ellipse_1609" data-name="Ellipse 1609" cx="9.868" cy="9.396" rx="9.868" ry="9.396" fill="#1c1c1c"/>
            </g>
            <path id="Path_29106" data-name="Path 29106" d="M380.585,430.67a25.5,25.5,0,0,0-5.8,1.189,8.584,8.584,0,0,0-.362,4.759A26.17,26.17,0,0,1,380.585,430.67Z" transform="translate(-372.965 -425.471)" fill="#333"/>
            <path id="Path_29107" data-name="Path 29107" d="M380.213,444.38a25.531,25.531,0,0,0-3.993,4.372,8.6,8.6,0,0,0,2.5,4.062A26.177,26.177,0,0,1,380.213,444.38Z" transform="translate(-374.637 -437.058)" fill="#333"/>
            <path id="Path_29108" data-name="Path 29108" d="M395.848,463.2a25.587,25.587,0,0,0-.66,5.885A8.578,8.578,0,0,0,399.6,470.9,26.218,26.218,0,0,1,395.848,463.2Z" transform="translate(-390.668 -452.963)" fill="#333"/>
            <path id="Path_29109" data-name="Path 29109" d="M408.42,480a25.5,25.5,0,0,0,2.925,5.148,8.588,8.588,0,0,0,4.638-1.124A26.239,26.239,0,0,1,408.42,480Z" transform="translate(-401.85 -467.161)" fill="#333"/>
            <path id="Path_29110" data-name="Path 29110" d="M425.53,481.714a25.545,25.545,0,0,0,5.391,2.442,8.576,8.576,0,0,0,3.1-3.636A26.2,26.2,0,0,1,425.53,481.714Z" transform="translate(-416.31 -467.6)" fill="#8e8e8e"/>
            <path id="Path_29111" data-name="Path 29111" d="M444.23,452.409a25.479,25.479,0,0,0,5.8-1.189,8.586,8.586,0,0,0,.359-4.759A26.18,26.18,0,0,1,444.23,452.409Z" transform="translate(-432.114 -438.816)" fill="#8e8e8e"/>
            <path id="Path_29112" data-name="Path 29112" d="M457.39,425.134a25.531,25.531,0,0,0,3.993-4.372,8.6,8.6,0,0,0-2.5-4.062A26.217,26.217,0,0,1,457.39,425.134Z" transform="translate(-443.236 -413.665)" fill="#8e8e8e"/>
            <path id="Path_29113" data-name="Path 29113" d="M439.514,410.312a25.588,25.588,0,0,0,.66-5.885,8.594,8.594,0,0,0-4.414-1.817A26.223,26.223,0,0,1,439.514,410.312Z" transform="translate(-424.956 -401.757)" fill="#8e8e8e"/>
            <path id="Path_29114" data-name="Path 29114" d="M409.732,407.453a25.5,25.5,0,0,0-2.926-5.148,8.582,8.582,0,0,0-4.637,1.124A26.192,26.192,0,0,1,409.732,407.453Z" transform="translate(-396.568 -401.492)" fill="#333"/>
            <path id="Path_29115" data-name="Path 29115" d="M387.579,413.966a25.467,25.467,0,0,0-5.391-2.446,8.577,8.577,0,0,0-3.1,3.636A26.2,26.2,0,0,1,387.579,413.966Z" transform="translate(-377.063 -409.287)" fill="#333"/>
            <ellipse id="Ellipse_1610" data-name="Ellipse 1610" cx="1.07" cy="1.07" rx="1.07" ry="1.07" transform="translate(4.299 9.339)" fill="#fff"/>
            <ellipse id="Ellipse_1611" data-name="Ellipse 1611" cx="0.825" cy="0.825" rx="0.825" ry="0.825" transform="translate(6.076 12.006)" fill="#fff"/>
            <rect id="Rectangle_12607" data-name="Rectangle 12607" width="2.572" height="0.825" rx="0.413" transform="translate(14 10.206)" fill="#fff"/>
          </g>
          <g id="Spectacles" transform="translate(49.219 56.388)">
            <path id="Path_29116" data-name="Path 29116" d="M386.6,408.591c-.327-.093-1.53-.341-1.882-.393a62.237,62.237,0,0,0-17.267-.726,29.26,29.26,0,0,0-6.419,1.818,10.377,10.377,0,0,1-6,0,29.5,29.5,0,0,0-6.419-1.818,62.286,62.286,0,0,0-17.265.726c-.353.053-1.549.3-1.883.393a12.992,12.992,0,0,0-.047,3.06,4.144,4.144,0,0,1,2.5,2.157c.751,1.412.791,3.22,1.231,4.776.692,2.447,2.572,3.615,4.725,4.265a22.663,22.663,0,0,0,8.97.774,8.631,8.631,0,0,0,4.759-1.589,9.112,9.112,0,0,0,2.521-3.523c1.041-2.38,1.64-6.049,3.907-6.049s2.867,3.669,3.906,6.049a9.1,9.1,0,0,0,2.523,3.523,8.684,8.684,0,0,0,4.758,1.589,22.921,22.921,0,0,0,8.97-.774c2.154-.651,4.027-1.818,4.725-4.265.44-1.556.48-3.364,1.239-4.776a4.16,4.16,0,0,1,2.5-2.157A13.774,13.774,0,0,0,386.6,408.591Zm-32.456,4.2a16.807,16.807,0,0,1-.3,2.963,15.742,15.742,0,0,1-1.01,3.347,5.558,5.558,0,0,1-2.117,2.579,5.786,5.786,0,0,1-2.625,1.058,21.263,21.263,0,0,1-11.14-1.053,5.767,5.767,0,0,1-1.934-1.394,4.973,4.973,0,0,1-1.067-2.669,35.96,35.96,0,0,1-.528-3.906,9.68,9.68,0,0,1,.17-3.822c.5-1.309,3.562-1.47,4.948-1.578a57.363,57.363,0,0,1,6.446-.113,20.98,20.98,0,0,1,6.889,1.185,3.479,3.479,0,0,1,1.893,1.394A3.972,3.972,0,0,1,354.145,412.8Zm28.486.922a35.984,35.984,0,0,1-.53,3.906,4.958,4.958,0,0,1-1.065,2.668,5.756,5.756,0,0,1-1.936,1.394,21.251,21.251,0,0,1-11.138,1.053,5.778,5.778,0,0,1-2.625-1.048,5.556,5.556,0,0,1-2.117-2.579,15.641,15.641,0,0,1-1.013-3.347,16.654,16.654,0,0,1-.3-2.963,3.96,3.96,0,0,1,.375-2.013,3.518,3.518,0,0,1,1.893-1.394,20.971,20.971,0,0,1,6.887-1.185,57.4,57.4,0,0,1,6.447.113c1.38.109,4.451.27,4.947,1.578A9.554,9.554,0,0,1,382.63,413.717Z" transform="translate(-329.353 -407.156)"/>
          </g>
          <g id="eyebrows" transform="translate(59.882 48.785)">
            <path id="Path_29117" data-name="Path 29117" d="M554.291,376.312a9.22,9.22,0,0,1-3.115.728.828.828,0,0,0-.364,1.312s.437,1.75,2.405.948l4.846-1.968a3.74,3.74,0,0,1,3.536.183l1.129.657s1.2.364.692-.438l-2.933-1.913a4.932,4.932,0,0,0-3.407-.274Z" transform="translate(-527.017 -372.706)" fill="#150b01"/>
            <path id="Path_29118" data-name="Path 29118" d="M407.464,358.984a9.206,9.206,0,0,0,3.116.729.829.829,0,0,1,.364,1.312s-.438,1.75-2.405.948L403.692,360a3.736,3.736,0,0,0-3.534.183l-1.135.655s-1.2.366-.692-.437l2.939-1.91a4.918,4.918,0,0,1,3.407-.274Z" transform="translate(-398.204 -358.064)" fill="#150b01"/>
          </g>
          <g id="mouth" transform="translate(73.401 80.214)">
            <path id="Path_29119" data-name="Path 29119" d="M485.5,561s.8.018,1.093.438a57.782,57.782,0,0,0,6.887-.218s-.438.819-3.135.782a18.324,18.324,0,0,1-3.862-.246S485.48,561.709,485.5,561Z" transform="translate(-485.498 -561)"/>
          </g>
          <g id="left_habd" data-name="left habd" transform="translate(0 114.12)">
            <path id="Path_29120" data-name="Path 29120" d="M12.81,1442.5a8.7,8.7,0,0,1,11.445-1.529l5.7,7.165,2.3,19.186s-.164,3.28-2.952-1.148c0,0-1.967-5.084-1.148-8.855,0,0-1.476-5.412-5.247,0,0,0-.655,3.444,1.476,5.739l1.8,6.559,7.051,2.788s-2.624,2.871-8.691,1.354l-3.609-2.013-5.73-7.872-2.4-21.373" transform="translate(-12.615 -1337.328)" fill="#facc9b"/>
            <path id="Path_29121" data-name="Path 29121" d="M27.054,1473.5a14.041,14.041,0,0,1-3.426-.452l-.039-.014-3.636-2.027-5.784-7.931v-.04l-2.4-21.443.042-.05a9.236,9.236,0,0,1,3.2-2.345,8.838,8.838,0,0,1,8.447.775l.025.015.017.022,5.73,7.2,2.3,19.242v.014c0,.116-.074,1.133-.692,1.3s-1.44-.619-2.545-2.37l-.014-.026c-.081-.209-1.962-5.137-1.163-8.905-.082-.273-.658-2.035-1.827-2.238-.894-.155-1.941.62-3.113,2.292-.057.349-.5,3.479,1.442,5.576l.026.028,1.79,6.526,7.188,2.842-.155.166C32.385,1471.749,30.726,1473.5,27.054,1473.5Zm-3.324-.747c5.043,1.255,7.68-.587,8.348-1.156l-6.893-2.725-1.815-6.6c-2.129-2.323-1.516-5.7-1.488-5.846v-.033l.019-.026c1.256-1.8,2.413-2.633,3.44-2.449,1.456.253,2.06,2.405,2.085,2.5l.009.035-.008.037c-.774,3.589,1.025,8.459,1.135,8.754,1.316,2.088,1.942,2.289,2.2,2.221.333-.087.444-.753.465-1l-2.289-19.128-5.668-7.107a8.586,8.586,0,0,0-11.179,1.459l2.374,21.27,5.707,7.81Z" transform="translate(-11.736 -1336.482)"/>
            <path id="Path_29122" data-name="Path 29122" d="M16.119,1464.409l5.657,7.763,3.691,2.117c6.04,1.279,8.208-1.193,8.208-1.193l-6.794-2.693-1.831-6.615c-2.133-2.3-1.577-5.885-1.577-5.885,3.982-5.76,5.7.05,5.7.05-.819,3.771,1.07,8.785,1.07,8.785,2.788,4.428,2.681,1.213,2.681,1.213l-.844-6.738s-.3-5.411-4.1-8.159c0,0-5.411-.493-8.035-7.872l.511-4.3.105-.6s-3.416-.453-6.791,2.876L15,1453.994Z" transform="translate(-13.426 -1337.99)" fill="#eca867"/>
            <path id="Path_29123" data-name="Path 29123" d="M16.381,1464.7l5.657,7.762,3.691,2.117c6.066,1.518,8.208-1.193,8.208-1.193l-2.2-.871a6.667,6.667,0,0,1-8.029-1.783l-4.657-5.247a12.461,12.461,0,0,1-1.149-5.575s.657-9.511-1.639-14.1c0,0-1.019-3.252,3.791-3.537l5.137-.256c-5.777-3.871-11.114,1.438-11.114,1.438l2.3,21.256" transform="translate(-13.688 -1338.282)" fill="#d29053"/>
            <path id="Path_29124" data-name="Path 29124" d="M37.9,1076.894a19.783,19.783,0,0,1-2.041,3.316s-.438.291-.383,3.9c0,0,.819,16.89-1.312,20.389,0,0-1.312,6.34-8.363,16.125l-2.187,9.893s-6.195-2.463-10.805,2.029c0,0,.638-6.4,1.95-8.363,0,0,.6-10.385-1.093-16.015,0,0-3.139-13.7,4.045-22.74a11.616,11.616,0,0,0,1.53-8.91l-.72-3.8S25.638,1078.532,37.9,1076.894Z" transform="translate(-12.615 -1027.375)" fill="#facc9b"/>
            <path id="Path_29125" data-name="Path 29125" d="M11.55,1130.782l.042-.423c.026-.262.649-6.382,1.951-8.4.039-.722.523-10.561-1.084-15.922a35.917,35.917,0,0,1-.685-8.027c.1-4.181,1.011-10.147,4.75-14.852a11.57,11.57,0,0,0,1.5-8.78l-.8-4.22.33.27c.071.059,7.212,5.758,19.261,4.147l.285-.037-.125.258a19.621,19.621,0,0,1-2.061,3.346l-.02.022c-.043.06-.375.619-.327,3.777.033.685.794,16.9-1.321,20.443-.105.465-1.622,6.765-8.363,16.13l-2.219,10.047-.169-.067c-.06-.025-6.158-2.368-10.64,1.99Zm6.133-59.872.647,3.407a11.885,11.885,0,0,1-1.56,9.031c-7.059,8.886-4.048,22.475-4.017,22.612,1.68,5.576,1.1,15.952,1.1,16.06v.042l-.023.034c-1.084,1.628-1.7,6.437-1.879,7.88,4.16-3.717,9.478-2.168,10.493-1.829l2.154-9.757.02-.026c6.951-9.645,8.323-16,8.337-16.065v-.027l.014-.023c2.083-3.418,1.3-20.133,1.29-20.3-.05-3.2.283-3.872.424-4.013a18.57,18.57,0,0,0,1.885-3.017C25.989,1076.242,19.208,1071.994,17.683,1070.91Z" transform="translate(-11.55 -1025.212)"/>
            <path id="Path_29126" data-name="Path 29126" d="M38.717,1079.517c-12.3,1.384-18.8-3.937-18.8-3.937l.671,3.034a12.046,12.046,0,0,1-1.363,8.919c-7.725,9.656-4.118,23.34-4.118,23.34,1.385,5.485.948,15.8.948,15.8-1.166,1.439-1.931,7.871-1.931,7.871a10,10,0,0,1,6.833-2.479s-1.587-27.934,6.283-41.38c0,0,7.555-2.735,9.28-7.888A10.349,10.349,0,0,0,38.717,1079.517Z" transform="translate(-13.722 -1029.792)" fill="#eca867"/>
            <path id="Path_29127" data-name="Path 29127" d="M53.923,1083.193c.265-.054.835-.909.835-.909a18.6,18.6,0,0,0,1.995-3.28c-12.12,1.314-18.843-4-18.843-4l.709,3.872a11.322,11.322,0,0,1-1.889,8.845c-.35.439-.609.912-.911,1.372,0,0-1.646,7.079,2.125,9.7,0,0,2.283,1.019,1.073-10.332,0,0-2-6.723,4.631-6.286C43.647,1082.172,46.707,1084.687,53.923,1083.193Z" transform="translate(-31.757 -1029.302)" fill="#c07f3f"/>
            <path id="Path_29128" data-name="Path 29128" d="M51.628,780.948s10.932,35.092,9.949,43.729l-2.788,4.1a18.909,18.909,0,0,1-6.605,2.159c-9.37,1.2-16.463-5.318-17.756-6.551,0,0-3.06-5.029,4.3-16.762a15.813,15.813,0,0,0,.146-8.382,18.313,18.313,0,0,1,.573-6.094,19.7,19.7,0,0,1,7.744-10.74A7.054,7.054,0,0,1,51.628,780.948Z" transform="translate(-30.352 -780.783)" fill="#05426f"/>
            <path id="Path_29129" data-name="Path 29129" d="M49.033,830.383c-7.841,0-13.815-5.062-15.575-6.738l-.028-.029a7.462,7.462,0,0,1-.633-4.07c.142-2.5,1.112-6.757,4.923-12.836a15.67,15.67,0,0,0,.138-8.279V798.4a18.391,18.391,0,0,1,.579-6.146,19.891,19.891,0,0,1,7.795-10.827,7.141,7.141,0,0,1,4.544-1.488h.107l.033.1c.108.35,10.929,35.223,9.954,43.792v.037l-2.83,4.163-.034.019a19.011,19.011,0,0,1-6.66,2.168,18.12,18.12,0,0,1-2.312.161Zm-15.345-6.948c1.927,1.831,8.812,7.624,17.612,6.494a18.747,18.747,0,0,0,6.519-2.125l2.744-4.035c.908-8.337-9.261-41.413-9.912-43.519a7.076,7.076,0,0,0-4.231,1.428,19.547,19.547,0,0,0-7.686,10.652,18.112,18.112,0,0,0-.57,6.04,15.868,15.868,0,0,1-.142,8.45L38,806.86C30.972,818.048,33.511,823.115,33.688,823.436Z" transform="translate(-29.488 -779.931)"/>
            <path id="Path_29130" data-name="Path 29130" d="M78.113,832.59s-4.956-23.759-9.182-22.3c0,0-6.415,4.3-3.571,19.969,0,0,2.26,5.029,3.5,6.413,0,0,.743,2.679-2.989-1.967,0,0-2.04-3.931-3.133,2.735,0,0-5.213,9.655,1.968,16.393a18.656,18.656,0,0,0,5.3,1.6,19.026,19.026,0,0,0,9.128-.948S81.1,845.491,78.113,832.59Z" transform="translate(-53.264 -805.533)" fill="#0769b2"/>
            <path id="Path_29131" data-name="Path 29131" d="M98.756,1111.943l-.026-.155c7.22-1.293,11.382-11.04,11.422-11.139l.143.059C110.254,1100.81,106.06,1110.633,98.756,1111.943Z" transform="translate(-85.228 -1050.979)"/>
            <path id="Path_29132" data-name="Path 29132" d="M57.905,1146.369c-1.039-6.24-.019-14.867-.008-14.959l.155.019c-.011.087-1.03,8.7,0,14.916Z" transform="translate(-50.332 -1076.975)"/>
          </g>
        </g>
      </g>
    </g>
  </g>
</svg>
