<svg xmlns="http://www.w3.org/2000/svg" id="iconfinder_youtube_317714" width="25.048" height="18.792" viewBox="0 0 25.048 18.792">
    <defs>
        <style>
            .cls-1{fill:#ff0030}.cls-2{fill:#f8f9fd}
        </style>
    </defs>
    <path id="Path_8904" d="M24.8 8.055a6.023 6.023 0 0 0-1-2.654 3.456 3.456 0 0 0-2.51-1.13C17.787 4 12.53 4 12.53 4h-.012s-5.258 0-8.763.272A3.457 3.457 0 0 0 1.246 5.4a6.033 6.033 0 0 0-1 2.654A43.04 43.04 0 0 0 0 12.379v2.026a43.024 43.024 0 0 0 .251 4.325 6.011 6.011 0 0 0 1 2.651 4.1 4.1 0 0 0 2.762 1.142c2 .205 8.517.269 8.517.269s5.263-.009 8.769-.278a3.47 3.47 0 0 0 2.51-1.132 6.021 6.021 0 0 0 1-2.651 43.045 43.045 0 0 0 .251-4.325V12.38a43.045 43.045 0 0 0-.26-4.325z" class="cls-1" data-name="Path 8904" transform="translate(0 -4)"/>
    <path id="Path_8905" d="M12 10v9.4l7.83-4.7z" class="cls-2" data-name="Path 8905" transform="translate(-2.604 -5.302)"/>
</svg>
